<?xml version="1.0" encoding="UTF-8"?>
<svg id="Calque_2" data-name="Calque 2" xmlns="http://www.w3.org/2000/svg" version="1.1" viewBox="0 0 64 64">
  <g id="Calque_1-2" data-name="Calque 1-2">
    <g id="Layer0_42_FILL" data-name="Layer0 42 FILL">
      <path d="M40,64v-4h-4v4h4M64,4h-4v4h4v-4M24,48h4v-4h-4v4M8,16h4v-4h-4v4M56,56v-8h-8v8h8M36,40v-4h-4v4h4M36,24v-4h-4v4h4Z" fill="#24a159" stroke-width="0"/>
      <path d="M64,4V0H0v64h36v-4h4v4h24V8h-4v-4h4M36,20v4h-4v-4h4M56,16v-4h4v4h-4M36,36v4h-4v-4h4M40,48v-4h4v4h-4M56,48v8h-8v-8h8M12,16h-4v-4h4v4M32,8v4h-4v-4h4M16,24v-8h8v8h-8M12,28h4v4h-4v-4M28,48h-4v-4h4v4M4,52v-4h4v4h-4Z" fill="#27ae60" stroke-width="0"/>
      <path d="M4,48v4h4v-4h-4M16,28h-4v4h4v-4M16,16v8h8v-8h-8M32,12v-4h-4v4h4M40,44v4h4v-4h-4M56,12v4h4v-4h-4Z" fill="#29b865" stroke-width="0"/>
    </g>
    <g id="Layer0_42_MEMBER_0_FILL" data-name="Layer0 42 MEMBER 0 FILL">
      <path d="M19.9,46.95c-1.53,0-2.83-.53-3.9-1.6-.87-.87-1.38-1.9-1.55-3.1-.8-.17-1.6-.37-2.4-.6-1.1.83-1.65,1.8-1.65,2.9,0,1.43.92,2.63,2.75,3.6,1.87,1,4.12,1.5,6.75,1.5s4.87-.5,6.7-1.5c1.87-.97,2.8-2.17,2.8-3.6,0-1.1-.55-2.07-1.65-2.9-.8.23-1.6.43-2.4.6-.17,1.17-.68,2.18-1.55,3.05-.03,0-.05.02-.05.05-1.07,1.07-2.35,1.6-3.85,1.6Z" fill="#000" stroke-width="0"/>
      <path d="M20.6,2.15c-.47-.2-.93-.2-1.4,0-.47.17-.82.47-1.05.9l-5.25,9.35c-.2.37-.27.78-.2,1.25.03.43.22.82.55,1.15l.95.95-4.65,9.4c-.17.37-.22.75-.15,1.15.03.4.2.75.5,1.05l1.15,1.25-2.95,5.05v-.05c-1.13,1.83-1.4,3.4-.8,4.7.4,1.33,1.63,2.33,3.7,3h-.05c.37.13.73.25,1.1.35.8.23,1.6.43,2.4.6.17,1.2.68,2.23,1.55,3.1,1.07,1.07,2.37,1.6,3.9,1.6s2.78-.53,3.85-1.6c0-.03.02-.05.05-.05.87-.87,1.38-1.88,1.55-3.05.8-.17,1.6-.37,2.4-.6.5-.13,1.02-.3,1.55-.5,1.7-.63,2.75-1.57,3.15-2.8.53-1.13.4-2.52-.4-4.15-.03-.07-.05-.12-.05-.15l-3.2-5.45,1.15-1.25c.27-.3.43-.65.5-1.05.03-.4-.03-.78-.2-1.15l-4.6-9.4.95-.95c.3-.33.48-.72.55-1.15.03-.47-.05-.88-.25-1.25l-5.25-9.35c-.23-.43-.58-.73-1.05-.9M11.35,26l1.15-2.35,4.1-8.35-1.95-1.95,1.35-2.35,3.9-7,3.95,7,1.3,2.35-1.95,1.95,4.15,8.35,1.1,2.35-2.15,2.35,3.95,6.7c1,2.03.45,3.43-1.65,4.2-1.73.63-3.47,1.08-5.2,1.35v.85c0,.97-.35,1.78-1.05,2.45-.67.7-1.48,1.05-2.45,1.05s-1.8-.35-2.5-1.05c-.67-.67-1-1.48-1-2.45v-.85c-1.6-.23-3.2-.63-4.8-1.2-2.63-.87-3.23-2.45-1.8-4.75l3.7-6.3s-2.15-2.35-2.15-2.35Z" fill="#115f32" stroke-width="0"/>
      <path d="M23.4,40.6c-2.33.33-4.67.33-7,0v.85c0,.97.33,1.78,1,2.45.7.7,1.53,1.05,2.5,1.05s1.78-.35,2.45-1.05c.7-.67,1.05-1.48,1.05-2.45v-.85Z" fill="#bb8044" stroke-width="0"/>
      <path d="M28.6,39.25c2.1-.77,2.65-2.17,1.65-4.2l-3.95-6.7c-4.37,1.87-8.63,1.87-12.8,0l-3.7,6.3c-1.43,2.3-.83,3.88,1.8,4.75,1.6.57,3.2.97,4.8,1.2,2.33.33,4.67.33,7,0,1.73-.27,3.47-.72,5.2-1.35M23.2,15.3c-2.03,1.03-4.23,1.03-6.6,0l-4.1,8.35c5.03,1.37,9.98,1.37,14.85,0l-4.15-8.35M16,11c2.7.63,5.32.63,7.85,0l-3.95-7s-3.9,7-3.9,7Z" fill="#1b914d" stroke-width="0"/>
      <path d="M16,11l-1.35,2.35,1.95,1.95c2.37,1.03,4.57,1.03,6.6,0l1.95-1.95-1.3-2.35c-2.53.63-5.15.63-7.85,0M12.5,23.65l-1.15,2.35,2.15,2.35c4.17,1.87,8.43,1.87,12.8,0l2.15-2.35-1.1-2.35c-4.87,1.37-9.82,1.37-14.85,0Z" fill="#198a49" stroke-width="0"/>
    </g>
    <g id="Layer0_42_MEMBER_1_FILL" data-name="Layer0 42 MEMBER 1 FILL">
      <path d="M42.4,50.05c-.43-.3-.83-.65-1.2-1.05h.05c-.2-.23-.4-.47-.6-.7-1.03.93-1.55,2-1.55,3.2,0,1.47.68,2.72,2.05,3.75s3.02,1.55,4.95,1.55,3.58-.52,4.95-1.55,2.05-2.28,2.05-3.75c0-1.2-.52-2.25-1.55-3.15-.13.2-.3.42-.5.65h-.05c-.4.4-.8.75-1.2,1.05,0,1.07-.35,1.98-1.05,2.75-.03.1-.08.18-.15.25-.67.7-1.5,1.08-2.5,1.15h-.05c-1.03,0-1.9-.4-2.6-1.2-.67-.83-1.02-1.82-1.05-2.95Z" fill="#000" stroke-width="0"/>
    </g>
    <g id="Layer0_42_MEMBER_1_MEMBER_0_FILL" data-name="Layer0 42 MEMBER 1 MEMBER 0 FILL">
      <path d="M45.4,24.15c-.47.17-.82.47-1.05.9l-4.65,8.25c-.2.37-.27.78-.2,1.25.03.43.22.82.55,1.15l.75.75-3.3,7.4s-.05.02-.05.05c-1,2.3-.32,4.1,2.05,5.4.03.03.08.07.15.1.7.3,1.4.55,2.1.75.03,1.2.47,2.22,1.3,3.05s1.87,1.25,3.1,1.25,2.22-.42,3.05-1.25l.1-.1c.83-.83,1.25-1.83,1.25-3,.67-.2,1.33-.43,2-.7.03,0,.07-.02.1-.05,2.43-1.23,3.17-2.93,2.2-5.1v-.1l-3.4-7.7.75-.8c.3-.33.48-.72.55-1.15.03-.43-.05-.83-.25-1.2l-4.65-8.25c-.23-.43-.58-.73-1.05-.9-.47-.2-.93-.2-1.4,0M49.6,32.2l1.15,2.05-1.7,1.75,3.95,8.95c.43,1.1.02,1.97-1.25,2.6-1.07.47-2.13.8-3.2,1v1.5c0,.67-.25,1.23-.75,1.7-.43.47-.98.7-1.65.7s-1.23-.23-1.7-.7-.7-1.03-.7-1.7v-1.45c-1.1-.2-2.2-.55-3.3-1.05-1.27-.7-1.65-1.67-1.15-2.9l3.9-8.65-1.75-1.75,1.2-2.05,3.45-6.2s3.5,6.2,3.5,6.2Z" fill="#115f32" stroke-width="0"/>
      <path d="M42.65,32.2c2.4.57,4.72.57,6.95,0l-3.5-6.2-3.45,6.2M39.3,44.65c-.5,1.23-.12,2.2,1.15,2.9,1.1.5,2.2.85,3.3,1.05,1.57.27,3.17.25,4.8-.05,1.07-.2,2.13-.53,3.2-1,1.27-.63,1.68-1.5,1.25-2.6l-3.95-8.95c-1.8.9-3.75.9-5.85,0l-3.9,8.65Z" fill="#1b914d" stroke-width="0"/>
      <path d="M43.75,48.6v1.45c0,.67.23,1.23.7,1.7s1.03.7,1.7.7,1.22-.23,1.65-.7c.5-.47.75-1.03.75-1.7v-1.5c-1.63.3-3.23.32-4.8.05Z" fill="#bb8044" stroke-width="0"/>
      <path d="M50.75,34.25l-1.15-2.05c-2.23.57-4.55.57-6.95,0l-1.2,2.05,1.75,1.75c2.1.9,4.05.9,5.85,0,0,0,1.7-1.75,1.7-1.75Z" fill="#198a49" stroke-width="0"/>
    </g>
  </g>
</svg>