<?xml version="1.0" encoding="UTF-8"?>
<svg id="Calque_2" data-name="Calque 2" xmlns="http://www.w3.org/2000/svg" version="1.1" viewBox="0 0 64 64">
  <g id="Calque_1-2" data-name="Calque 1-2">
    <g id="Layer0_41_FILL" data-name="Layer0 41 FILL">
      <path d="M40,64v-4h-4v4h4M64,4h-4v4h4v-4M28,44h-4v4h4v-4M36,40v-4h-4v4h4M32,20v4h4v-4h-4M12,16v-4h-4v4h4M56,56v-8h-8v8h8Z" fill="#24a159" stroke-width="0"/>
      <path d="M64,4V0H0v64h36v-4h4v4h24V8h-4v-4h4M56,16v-4h4v4h-4M56,48v8h-8v-8h8M24,16v8h-8v-8h8M12,12v4h-4v-4h4M12,28h4v4h-4v-4M28,12v-4h4v4h-4M32,24v-4h4v4h-4M4,52v-4h4v4h-4M36,36v4h-4v-4h4M40,48v-4h4v4h-4M24,44h4v4h-4v-4Z" fill="#27ae60" stroke-width="0"/>
      <path d="M40,44v4h4v-4h-4M4,48v4h4v-4h-4M28,8v4h4v-4h-4M16,28h-4v4h4v-4M24,24v-8h-8v8h8M56,12v4h4v-4h-4Z" fill="#29b865" stroke-width="0"/>
    </g>
    <g id="Layer0_41_MEMBER_0_FILL" data-name="Layer0 41 MEMBER 0 FILL">
      <path d="M26.05,35h-.05c-.4.4-.8.75-1.2,1.05,0,1.07-.35,1.98-1.05,2.75-.03.1-.08.18-.15.25-.67.7-1.5,1.08-2.5,1.15h-.05c-1.03,0-1.9-.4-2.6-1.2-.67-.83-1.02-1.82-1.05-2.95-.43-.3-.83-.65-1.2-1.05h.05c-.2-.23-.4-.47-.6-.7-1.03.93-1.55,2-1.55,3.2,0,1.47.68,2.72,2.05,3.75,1.37,1.03,3.02,1.55,4.95,1.55s3.58-.52,4.95-1.55,2.05-2.28,2.05-3.75c0-1.2-.52-2.25-1.55-3.15-.13.2-.3.42-.5.65Z" fill="#000" stroke-width="0"/>
    </g>
    <g id="Layer0_41_MEMBER_0_MEMBER_0_FILL" data-name="Layer0 41 MEMBER 0 MEMBER 0 FILL">
      <path d="M20.4,10.15c-.47.17-.82.47-1.05.9l-4.65,8.25c-.2.37-.27.78-.2,1.25.03.43.22.82.55,1.15l.75.75-3.3,7.4s-.05.02-.05.05c-1,2.3-.32,4.1,2.05,5.4.03.03.08.07.15.1.7.3,1.4.55,2.1.75.03,1.2.47,2.22,1.3,3.05.83.83,1.87,1.25,3.1,1.25s2.22-.42,3.05-1.25c.03-.03.07-.07.1-.1.83-.83,1.25-1.83,1.25-3,.67-.2,1.33-.43,2-.7.03,0,.07-.02.1-.05,2.43-1.23,3.17-2.93,2.2-5.1v-.1l-3.4-7.7.75-.8c.3-.33.48-.72.55-1.15.03-.43-.05-.83-.25-1.2l-4.65-8.25c-.23-.43-.58-.73-1.05-.9-.47-.2-.93-.2-1.4,0M16.45,20.25l1.2-2.05,3.45-6.2,3.5,6.2,1.15,2.05-1.7,1.75,3.95,8.95c.43,1.1.02,1.97-1.25,2.6-1.07.47-2.13.8-3.2,1v1.5c0,.67-.25,1.23-.75,1.7-.43.47-.98.7-1.65.7s-1.23-.23-1.7-.7-.7-1.03-.7-1.7v-1.45c-1.1-.2-2.2-.55-3.3-1.05-1.27-.7-1.65-1.67-1.15-2.9l3.9-8.65s-1.75-1.75-1.75-1.75Z" fill="#115f32" stroke-width="0"/>
      <path d="M23.55,34.55c-1.63.3-3.23.32-4.8.05v1.45c0,.67.23,1.23.7,1.7s1.03.7,1.7.7,1.22-.23,1.65-.7c.5-.47.75-1.03.75-1.7,0,0,0-1.5,0-1.5Z" fill="#bb8044" stroke-width="0"/>
      <path d="M24.05,22c-1.8.9-3.75.9-5.85,0l-3.9,8.65c-.5,1.23-.12,2.2,1.15,2.9,1.1.5,2.2.85,3.3,1.05,1.57.27,3.17.25,4.8-.05,1.07-.2,2.13-.53,3.2-1,1.27-.63,1.68-1.5,1.25-2.6l-3.95-8.95M21.1,12l-3.45,6.2c2.4.57,4.72.57,6.95,0,0,0-3.5-6.2-3.5-6.2Z" fill="#1b914d" stroke-width="0"/>
      <path d="M17.65,18.2l-1.2,2.05,1.75,1.75c2.1.9,4.05.9,5.85,0l1.7-1.75-1.15-2.05c-2.23.57-4.55.57-6.95,0Z" fill="#198a49" stroke-width="0"/>
    </g>
  </g>
</svg>