<?xml version="1.0" encoding="UTF-8"?><svg id="Calque_2" xmlns="http://www.w3.org/2000/svg" viewBox="0 0 37.32 53.55"><g id="Calque_1-2"><g id="Layer0_3_MEMBER_0_FILL"><path d="M.27,46.25c0,2,1.7,3.72,5.1,5.15,3.47,1.43,7.67,2.15,12.6,2.15,4.87,0,9.03-.72,12.5-2.15,3.53-1.43,5.3-3.15,5.3-5.15s-1.77-3.78-5.3-5.25c-3.47-1.4-7.63-2.1-12.5-2.1s-9.13.7-12.6,2.1c-3.4,1.47-5.1,3.22-5.1,5.25Z" fill="rgba(0,0,0,.05)" stroke-width="0"/></g><g id="Layer0_3_MEMBER_1_FILL"><path d="M18.92,45.8c.63,0,1.27-.02,1.9-.05l2.2,1.9-.5-4.2c-1.1.23-2.3.35-3.6.35-2,0-3.82-.3-5.45-.9l-1.85,4.75h.15l2.9-2.3c1.33.3,2.75.45,4.25.45M33.47,41.75c.83-.57,1.3-1.4,1.4-2.5.33-3.47-.25-6.53-1.75-9.2l-2.5-.15c.13.17.27.35.4.55,1.57,2.47,2.18,5.35,1.85,8.65-.03.43-.22.77-.55,1-.3.27-.65.38-1.05.35-.47-.03-.83-.22-1.1-.55-.23-.33-.33-.7-.3-1.1.13-1.43-.07-2.68-.6-3.75-.13.57-.27,1.13-.4,1.7-.7,2.93-1.22,6.57-1.55,10.9,1.5-1.97,2.37-3.78,2.6-5.45.37.13.77.22,1.2.25.9.07,1.68-.17,2.35-.7M7.07,29.7l-2.75-.25c-2.23,2.2-3.65,5.08-4.25,8.65-.2.97.03,1.85.7,2.65l-.1-.1c.57.8,1.33,1.28,2.3,1.45.97.13,1.83-.07,2.6-.6l.1-.1c.27-.2.5-.43.7-.7.73,2.9,1.12,4.9,1.15,6,.8-4.17,1.13-8.38,1-12.65-1.97.83-3.13,2.43-3.5,4.8-.07.4-.27.73-.6,1-.33.23-.72.32-1.15.25-.4-.07-.72-.27-.95-.6-.27-.33-.37-.7-.3-1.1.6-3.53,2.12-6.3,4.55-8.3.17-.17.33-.3.5-.4M9.92,13.9c-1.27,1.23-2.2,2.6-2.8,4.1-.57,1.87-.83,3.92-.8,6.15.47,1,1.07,1.95,1.8,2.85v-4.45c.1-2.8,1.17-5.22,3.2-7.25,2.1-2.1,4.63-3.15,7.6-3.15s5.55,1.05,7.65,3.15,3.08,4.45,3.15,7.25v4.55c.53-.63,1-1.28,1.4-1.95.43-2.37.33-4.73-.3-7.1-.63-1.53-1.57-2.92-2.8-4.15-2.5-2.5-5.53-3.75-9.1-3.75s-6.53,1.25-9,3.75Z" fill="#c27d94" stroke-width="0"/><path d="M7.37,29.95c-.1-.1-.18-.18-.25-.25h-.05c-.17.1-.33.23-.5.4-2.43,2-3.95,4.77-4.55,8.3-.07.4.03.77.3,1.1.23.33.55.53.95.6.43.07.82-.02,1.15-.25.33-.27.53-.6.6-1,.37-2.37,1.53-3.97,3.5-4.8.13,4.27-.2,8.48-1,12.65,0,.3-.02.53-.05.7-.03.1-.05.2-.05.3,1.37.77,2.77.75,4.2-.05l1.85-4.75c1.63.6,3.45.9,5.45.9,1.3,0,2.5-.12,3.6-.35l.5,4.2c1.43.97,2.87.97,4.3,0,.33-4.33.85-7.97,1.55-10.9.13-.57.27-1.13.4-1.7.53,1.07.73,2.32.6,3.75-.03.4.07.77.3,1.1.27.33.63.52,1.1.55.4.03.75-.08,1.05-.35.33-.23.52-.57.55-1,.33-3.3-.28-6.18-1.85-8.65-.13-.2-.27-.38-.4-.55-.03,0-.07.02-.1.05-3.2,3.17-7.07,4.75-11.6,4.75s-8.35-1.58-11.55-4.75M8.12,22.55v4.45c.33.4.68.78,1.05,1.15,2.7,2.7,5.95,4.05,9.75,4.05s7.12-1.35,9.85-4.05c.33-.33.65-.68.95-1.05v-4.55c-.07-2.8-1.12-5.22-3.15-7.25s-4.65-3.15-7.65-3.15-5.5,1.05-7.6,3.15c-2.03,2.03-3.1,4.45-3.2,7.25M18.02,19.95c0-1.03.37-1.95,1.1-2.75.77-.73,1.7-1.1,2.8-1.1,1,0,1.88.37,2.65,1.1.8.8,1.2,1.72,1.2,2.75,0,.23-.02.45-.05.65-.17.77-.55,1.43-1.15,2-.77.77-1.65,1.15-2.65,1.15-1.1,0-2.03-.38-2.8-1.15-.57-.57-.9-1.23-1-2-.07-.2-.1-.42-.1-.65M23.82,27.4c.1-.1.2-.18.3-.25.13-.2.25-.42.35-.65.03-.13.12-.22.25-.25.13-.07.27-.07.4,0h.05c.1.03.2.12.3.25.07.13.07.27,0,.4-.2.47-.55.88-1.05,1.25-.7.6-1.57.9-2.6.9-1.03,0-1.9-.3-2.6-.9-.53-.37-.87-.8-1-1.3-.03-.13-.02-.25.05-.35.07-.17.17-.25.3-.25.13-.07.28-.07.45,0,.1.07.17.17.2.3.1.2.23.4.4.6.07.1.15.18.25.25.53.4,1.18.6,1.95.6s1.43-.2,2-.6Z" fill="#f19cb7" stroke-width="0"/><path d="M2.57,17.4v1.8c.07.97.2,1.92.4,2.85.63,2.83,2.02,5.38,4.15,7.65.07.07.15.15.25.25,3.2,3.17,7.05,4.75,11.55,4.75s8.4-1.58,11.6-4.75c.03-.03.07-.05.1-.05,2.23-2.3,3.67-4.92,4.3-7.85.2-.93.32-1.88.35-2.85.03-.27.05-.55.05-.85,0-.33-.02-.65-.05-.95-.2-4.13-1.78-7.68-4.75-10.65-3.2-3.17-7.07-4.75-11.6-4.75s-8.35,1.58-11.55,4.75c-2.97,2.97-4.57,6.52-4.8,10.65M5.12,19.2c-.03-.27-.05-.55-.05-.85,0-.33.02-.65.05-.95.2-3.43,1.55-6.38,4.05-8.85,2.7-2.7,5.95-4.05,9.75-4.05s7.12,1.35,9.85,4.05c2.47,2.47,3.8,5.42,4,8.85.03.3.05.62.05.95,0,.3-.02.58-.05.85-.03,1-.17,1.95-.4,2.85-.3,1.07-.72,2.1-1.25,3.1-.4.67-.87,1.32-1.4,1.95-.3.37-.62.72-.95,1.05-2.73,2.7-6.02,4.05-9.85,4.05s-7.05-1.35-9.75-4.05c-.37-.37-.72-.75-1.05-1.15-.73-.9-1.33-1.85-1.8-2.85-.3-.67-.55-1.37-.75-2.1-.27-.9-.42-1.85-.45-2.85M19.12,17.2c-.73.8-1.1,1.72-1.1,2.75,0,.23.03.45.1.65.1.77.43,1.43,1,2,.77.77,1.7,1.15,2.8,1.15,1,0,1.88-.38,2.65-1.15.6-.57.98-1.23,1.15-2,.03-.2.05-.42.05-.65,0-1.03-.4-1.95-1.2-2.75-.77-.73-1.65-1.1-2.65-1.1-1.1,0-2.03.37-2.8,1.1M19.82,19.9c0-.67.23-1.27.7-1.8.47-.43,1.02-.68,1.65-.75.07,0,.15,0,.25,0,.67,0,1.25.25,1.75.75.5.53.75,1.13.75,1.8,0,.7-.25,1.28-.75,1.75-.5.53-1.08.8-1.75.8h-.25c-.63-.07-1.18-.33-1.65-.8s-.7-1.05-.7-1.75Z" fill="#fff" stroke-width="0"/><path d="M24.12,27.15c-.1.07-.2.15-.3.25-.57.4-1.23.6-2,.6s-1.42-.2-1.95-.6c-.1-.07-.18-.15-.25-.25-.17-.2-.3-.4-.4-.6-.03-.13-.1-.23-.2-.3-.17-.07-.32-.07-.45,0-.13,0-.23.08-.3.25-.07.1-.08.22-.05.35.13.5.47.93,1,1.3.7.6,1.57.9,2.6.9,1.03,0,1.9-.3,2.6-.9.5-.37.85-.78,1.05-1.25.07-.13.07-.27,0-.4-.1-.13-.2-.22-.3-.25h-.05c-.13-.07-.27-.07-.4,0-.13.03-.22.12-.25.25-.1.23-.22.45-.35.65M20.52,18.1c-.47.53-.7,1.13-.7,1.8,0,.7.23,1.28.7,1.75s1.02.73,1.65.8h.25c.67,0,1.25-.27,1.75-.8.5-.47.75-1.05.75-1.75s-.25-1.27-.75-1.8c-.5-.5-1.08-.75-1.75-.75-.1,0-.18,0-.25,0-.63.07-1.18.32-1.65.75Z" fill="#a55b72" stroke-width="0"/><path d="M10.57,10h.05c2.3-2.33,5.07-3.5,8.3-3.5s6.12,1.17,8.45,3.5c2.1,2.1,3.23,4.62,3.4,7.55v.1c0,.1.02.23.05.4.63,2.37.73,4.73.3,7.1.53-1,.95-2.03,1.25-3.1.23-.9.37-1.85.4-2.85.03-.27.05-.55.05-.85,0-.33-.02-.65-.05-.95-.2-3.43-1.53-6.38-4-8.85-2.73-2.7-6.02-4.05-9.85-4.05s-7.05,1.35-9.75,4.05c-2.5,2.47-3.85,5.42-4.05,8.85-.03.3-.05.62-.05.95,0,.3.02.58.05.85.03,1,.18,1.95.45,2.85.2.73.45,1.43.75,2.1-.03-2.23.23-4.28.8-6.15v-.45c.17-2.93,1.32-5.45,3.45-7.55M.57,19.2v.15c.07,1.07.22,2.12.45,3.15.57,2.53,1.67,4.85,3.3,6.95l2.75.25h.05c-2.13-2.27-3.52-4.82-4.15-7.65-.2-.93-.33-1.88-.4-2.85v-1.8c.23-4.13,1.83-7.68,4.8-10.65,3.2-3.17,7.05-4.75,11.55-4.75s8.4,1.58,11.6,4.75c2.97,2.97,4.55,6.52,4.75,10.65.03.3.05.62.05.95,0,.3-.02.58-.05.85-.03.97-.15,1.92-.35,2.85-.63,2.93-2.07,5.55-4.3,7.85l2.5.15c1.9-2.27,3.15-4.78,3.75-7.55.23-1.07.37-2.13.4-3.2.03-.3.05-.62.05-.95,0-.4-.02-.78-.05-1.15-.26-4.59-2.02-8.54-5.3-11.85h-.05C28.32,1.78,23.99,0,18.92,0S9.57,1.78,5.97,5.35C2.64,8.65.84,12.63.57,17.3v1.9Z" fill="#ccc" stroke-width="0"/></g></g></svg>