<?xml version="1.0" encoding="UTF-8"?><svg id="Calque_2" xmlns="http://www.w3.org/2000/svg" viewBox="0 0 37.85 47.95"><g id="Calque_1-2"><g id="Layer0_86_MEMBER_0_FILL"><path d="M0,40.65c0,2,1.7,3.72,5.1,5.15,3.47,1.43,7.67,2.15,12.6,2.15,4.87,0,9.03-.72,12.5-2.15,3.53-1.43,5.3-3.15,5.3-5.15s-1.77-3.78-5.3-5.25c-3.47-1.4-7.63-2.1-12.5-2.1s-9.13.7-12.6,2.1c-3.4,1.47-5.1,3.22-5.1,5.25Z" fill="rgba(0,0,0,.05)" stroke-width="0"/></g><g id="Layer0_86_MEMBER_1_FILL"><path d="M31.05,29.95c-.3.3-.6.6-.9.9.27.87.35,1.85.25,2.95-.03.4.07.77.3,1.1.27.3.63.48,1.1.55.4.03.75-.08,1.05-.35.33-.23.52-.57.55-1,.23-2.23.03-4.27-.6-6.1-.53.67-1.12,1.32-1.75,1.95M7.85,42.8c1.4.63,2.82.63,4.25,0l1.9-4.9c1.63.6,3.45.9,5.45.9,1.3,0,2.5-.12,3.6-.35l.5,4.35c1.43.63,2.87.63,4.3,0,.33-4.4.85-8.08,1.55-11.05.03-.13.07-.27.1-.4-2.87,2.23-6.22,3.35-10.05,3.35-3.97,0-7.42-1.22-10.35-3.65,0,3.93-.42,7.83-1.25,11.7v.05M2.85,34.5c.23.33.55.53.95.6.43.07.82-.02,1.15-.25.33-.27.53-.6.6-1,.27-1.8,1-3.15,2.2-4.05-.93-.97-1.72-1.97-2.35-3-1.47,1.8-2.42,4-2.85,6.6-.07.4.03.77.3,1.1M27.1,10.3c-2.1-2.1-4.65-3.15-7.65-3.15s-5.5,1.05-7.6,3.15c-2.13,2.1-3.2,4.65-3.2,7.65v6c-.33.2-.67.43-1,.7-.13.1-.27.2-.4.3.63,1.13,1.45,2.2,2.45,3.2,2.7,2.7,5.95,4.05,9.75,4.05,3.83,0,7.12-1.35,9.85-4.05.87-.87,1.6-1.78,2.2-2.75-.13-.2-.25-.38-.35-.55-.27-.37-.57-.72-.9-1.05v-5.85c0-3-1.05-5.55-3.15-7.65M15.3,22.65v-.2h5v.2c0,.67-.27,1.23-.8,1.7-.47.5-1.03.75-1.7.75-.7,0-1.3-.25-1.8-.75-.47-.47-.7-1.03-.7-1.7M29.15,22.65c0,.67-.25,1.23-.75,1.7-.47.5-1.03.75-1.7.75-.7,0-1.32-.25-1.85-.75-.47-.47-.7-1.03-.7-1.7,0-.07.02-.13.05-.2h4.95v.2M18.75,26.5c.03-.13.12-.22.25-.25.17-.03.32-.02.45.05.1.03.17.12.2.25.1.3.32.57.65.8.5.4,1.13.6,1.9.6.73,0,1.37-.2,1.9-.6.3-.23.52-.5.65-.8.03-.13.12-.23.25-.3.13-.07.27-.07.4,0,.13.03.25.12.35.25.03.13.03.27,0,.4-.23.47-.57.88-1,1.25-.7.53-1.55.8-2.55.8-1,0-1.85-.27-2.55-.8-.5-.37-.82-.8-.95-1.3-.03-.13-.02-.25.05-.35Z" fill="#fc0" stroke-width="0"/><path d="M35.4,34.25c.2-2.13.07-4.12-.4-5.95l-2.2-.3c.63,1.83.83,3.87.6,6.1-.03.43-.22.77-.55,1-.3.27-.65.38-1.05.35-.47-.07-.83-.25-1.1-.55-.23-.33-.33-.7-.3-1.1.1-1.1.02-2.08-.25-2.95-.23.17-.45.33-.65.5-.03.13-.07.27-.1.4-.7,2.97-1.22,6.65-1.55,11.05,1.5-2.07,2.37-3.95,2.6-5.65.33.13.7.23,1.1.3.03,0,.07,0,.1,0,.87.07,1.65-.17,2.35-.7.83-.57,1.3-1.4,1.4-2.5M12.1,42.8l3.1-2.45c1.33.3,2.75.45,4.25.45.63,0,1.27-.02,1.9-.05l2.2,2.05-.5-4.35c-1.1.23-2.3.35-3.6.35-2,0-3.82-.3-5.45-.9l-1.9,4.9M5.4,26.8l-2.35-.15c-1.23,1.8-2.05,3.95-2.45,6.45-.2.97.03,1.85.7,2.65l-.1-.1c.57.8,1.33,1.28,2.3,1.45.97.13,1.83-.07,2.6-.6.03-.03.07-.07.1-.1.27-.2.5-.43.7-.7-.23,2.33.08,4.68.95,7.05.83-3.87,1.25-7.77,1.25-11.7-.4-.37-.8-.73-1.2-1.1-.03-.07-.08-.12-.15-.15-1.2.9-1.93,2.25-2.2,4.05-.07.4-.27.73-.6,1-.33.23-.72.32-1.15.25-.4-.07-.72-.27-.95-.6-.27-.33-.37-.7-.3-1.1.43-2.6,1.38-4.8,2.85-6.6Z" fill="#c29b00" stroke-width="0"/><path d="M19.45,2c4.53,0,8.4,1.6,11.6,4.8,2.97,2.97,4.55,6.52,4.75,10.65.03.3.05.6.05.9s-.02.58-.05.85c-.03,1-.15,1.95-.35,2.85-.47,2.13-1.35,4.12-2.65,5.95l2.2.3c1.17-1.8,1.97-3.73,2.4-5.8.23-1.03.37-2.1.4-3.2.03-.3.05-.62.05-.95,0-.37-.02-.73-.05-1.1-.27-4.6-2.03-8.55-5.3-11.85C28.9,1.8,24.55,0,19.45,0S10.07,1.8,6.5,5.4c-3.33,3.3-5.13,7.28-5.4,11.95v2c.07,1.1.22,2.15.45,3.15.33,1.43.83,2.82,1.5,4.15l2.35.15c-.9-1.5-1.53-3.08-1.9-4.75-.2-.9-.33-1.85-.4-2.85v-1.75c.23-4.13,1.83-7.68,4.8-10.65,3.2-3.2,7.05-4.8,11.55-4.8M29.3,8.55c-2.73-2.7-6.02-4.05-9.85-4.05s-7.05,1.35-9.75,4.05c-2.5,2.5-3.85,5.47-4.05,8.9-.03.3-.05.6-.05.9s.02.58.05.85c.03,1,.18,1.95.45,2.85.27,1,.65,1.97,1.15,2.9.13-.1.27-.2.4-.3.33-.27.67-.5,1-.7v-6c0-3,1.07-5.55,3.2-7.65,2.1-2.1,4.63-3.15,7.6-3.15s5.55,1.05,7.65,3.15c2.1,2.1,3.15,4.65,3.15,7.65v5.85c.33.33.63.68.9,1.05.1.17.22.35.35.55.63-1.07,1.1-2.18,1.4-3.35.23-.9.37-1.85.4-2.85.03-.27.05-.55.05-.85s-.02-.6-.05-.9c-.2-3.43-1.53-6.4-4-8.9Z" fill="#ccc" stroke-width="0"/><path d="M31.05,6.8c-3.2-3.2-7.07-4.8-11.6-4.8s-8.35,1.6-11.55,4.8c-2.97,2.97-4.57,6.52-4.8,10.65v1.75c.07,1,.2,1.95.4,2.85.37,1.67,1,3.25,1.9,4.75.63,1.03,1.42,2.03,2.35,3,.07.03.12.08.15.15.4.37.8.73,1.2,1.1,2.93,2.43,6.38,3.65,10.35,3.65,3.83,0,7.18-1.12,10.05-3.35.2-.17.42-.33.65-.5.3-.3.6-.6.9-.9.63-.63,1.22-1.28,1.75-1.95,1.3-1.83,2.18-3.82,2.65-5.95.2-.9.32-1.85.35-2.85.03-.27.05-.55.05-.85s-.02-.6-.05-.9c-.2-4.13-1.78-7.68-4.75-10.65M19.45,4.5c3.83,0,7.12,1.35,9.85,4.05,2.47,2.5,3.8,5.47,4,8.9.03.3.05.6.05.9s-.02.58-.05.85c-.03,1-.17,1.95-.4,2.85-.3,1.17-.77,2.28-1.4,3.35-.6.97-1.33,1.88-2.2,2.75-2.73,2.7-6.02,4.05-9.85,4.05-3.8,0-7.05-1.35-9.75-4.05-1-1-1.82-2.07-2.45-3.2-.5-.93-.88-1.9-1.15-2.9-.27-.9-.42-1.85-.45-2.85-.03-.27-.05-.55-.05-.85s.02-.6.05-.9c.2-3.43,1.55-6.4,4.05-8.9,2.7-2.7,5.95-4.05,9.75-4.05Z" fill="#fff" stroke-width="0"/><path d="M19,26.25c-.13.03-.22.12-.25.25-.07.1-.08.22-.05.35.13.5.45.93.95,1.3.7.53,1.55.8,2.55.8,1,0,1.85-.27,2.55-.8.43-.37.77-.78,1-1.25.03-.13.03-.27,0-.4-.1-.13-.22-.22-.35-.25-.13-.07-.27-.07-.4,0-.13.07-.22.17-.25.3-.13.3-.35.57-.65.8-.53.4-1.17.6-1.9.6-.77,0-1.4-.2-1.9-.6-.33-.23-.55-.5-.65-.8-.03-.13-.1-.22-.2-.25-.13-.07-.28-.08-.45-.05M28.4,24.35c.5-.47.75-1.03.75-1.7v-.2h-4.95c-.03.07-.05.13-.05.2,0,.67.23,1.23.7,1.7.53.5,1.15.75,1.85.75s1.23-.25,1.7-.75M15.3,22.45v.2c0,.67.23,1.23.7,1.7.5.5,1.1.75,1.8.75s1.23-.25,1.7-.75c.53-.47.8-1.03.8-1.7v-.2h-5Z" fill="#ad8a00" stroke-width="0"/></g></g></svg>