<?xml version="1.0" encoding="UTF-8"?><svg id="Calque_2" xmlns="http://www.w3.org/2000/svg" viewBox="0 0 36.1 50.95"><g id="Calque_1-2"><g id="Layer0_89_MEMBER_0_FILL"><path d="M5.1,38.4c-3.4,1.47-5.1,3.22-5.1,5.25s1.7,3.72,5.1,5.15c3.47,1.43,7.67,2.15,12.6,2.15s9.03-.72,12.5-2.15c3.53-1.43,5.3-3.15,5.3-5.15s-1.77-3.78-5.3-5.25c-3.47-1.4-7.63-2.1-12.5-2.1s-9.13.7-12.6,2.1Z" fill="rgba(0,0,0,.05)" stroke-width="0"/></g><g id="Layer0_89_MEMBER_1_FILL"><path d="M18.4,44.05c.57,0,1.13-.02,1.7-.05l2.25,1.85-.5-4.1c-1.1.2-2.25.3-3.45.3-1.93,0-3.68-.28-5.25-.85l-1.75,4.65,3-2.2c1.23.27,2.57.4,4,.4M29.6,28.75c.13.17.25.35.35.55,1.5,2.37,2.1,5.13,1.8,8.3-.03.4-.22.72-.55.95-.3.23-.63.33-1,.3-.43-.03-.77-.2-1-.5-.27-.3-.38-.65-.35-1.05.17-1.4-.02-2.6-.55-3.6-.13.53-.27,1.07-.4,1.6-.67,2.83-1.15,6.35-1.45,10.55,1.47-1.9,2.32-3.63,2.55-5.2.3.1.65.17,1.05.2.87.07,1.67-.17,2.4-.7l-.1.05c.87-.6,1.33-1.4,1.4-2.4.3-3.33-.25-6.28-1.65-8.85l-2.5-.2M7,28.55l-2.75-.25c-2.13,2.13-3.47,4.9-4,8.3-.2.87-.02,1.7.55,2.5.6.87,1.42,1.33,2.45,1.4.87.13,1.63-.03,2.3-.5.03-.07.08-.12.15-.15.2-.17.37-.32.5-.45.9,3.13,1.25,5.25,1.05,6.35-.03.03-.05.07-.05.1h.1c.87-4.33,1.23-8.7,1.1-13.1-1.87.8-2.98,2.33-3.35,4.6-.07.37-.27.68-.6.95-.3.2-.65.27-1.05.2-.4-.03-.72-.22-.95-.55-.23-.33-.32-.68-.25-1.05.53-3.37,1.98-6.03,4.35-8,.17-.13.32-.25.45-.35Z" fill="#b8ad90" stroke-width="0"/><path d="M7.3,28.8c-.1-.1-.18-.18-.25-.25h-.05c-.13.1-.28.22-.45.35-2.37,1.97-3.82,4.63-4.35,8-.07.37.02.72.25,1.05.23.33.55.52.95.55.4.07.75,0,1.05-.2.33-.27.53-.58.6-.95.37-2.27,1.48-3.8,3.35-4.6.13,4.4-.23,8.77-1.1,13.1,1.37.57,2.73.57,4.1,0l1.75-4.65c1.57.57,3.32.85,5.25.85,1.2,0,2.35-.1,3.45-.3l.5,4.1c1.3.77,2.67.77,4.1,0,.3-4.2.78-7.72,1.45-10.55.13-.53.27-1.07.4-1.6.53,1,.72,2.2.55,3.6-.03.4.08.75.35,1.05.23.3.57.47,1,.5.37.03.7-.07,1-.3.33-.23.52-.55.55-.95.3-3.17-.3-5.93-1.8-8.3-.1-.2-.22-.38-.35-.55-.03,0-.07.02-.1.05-3.07,3.03-6.77,4.55-11.1,4.55-4.33,0-8.03-1.52-11.1-4.55M8.05,26c.3.33.63.68,1,1.05,2.57,2.6,5.68,3.9,9.35,3.9s6.8-1.3,9.4-3.9c.33-.33.65-.67.95-1v-8.75c0-2.87-1.02-5.32-3.05-7.35s-4.43-3-7.3-3-5.3,1-7.3,3-3.05,4.48-3.05,7.35v8.7M15.25,15.4c.43-.43.93-.67,1.5-.7h9.1c.5.07.93.3,1.3.7.5.47.75,1.03.75,1.7s-.25,1.17-.75,1.6c-.43.47-.97.72-1.6.75h-8.65c-.63-.03-1.18-.28-1.65-.75-.47-.43-.7-.97-.7-1.6,0-.67.23-1.23.7-1.7M23.05,21.6c.27-.27.47-.53.6-.8.03-.13.12-.23.25-.3.13-.03.27-.03.4,0,.1.03.2.12.3.25.03.13.03.27,0,.4-.2.43-.52.83-.95,1.2-.67.5-1.48.75-2.45.75-.97,0-1.78-.25-2.45-.75-.47-.37-.77-.78-.9-1.25-.03-.13-.02-.25.05-.35.03-.13.12-.22.25-.25s.27-.02.4.05c.13.03.22.12.25.25.07.3.25.57.55.8.5.37,1.12.55,1.85.55.7,0,1.32-.18,1.85-.55Z" fill="#e0d1af" stroke-width="0"/><path d="M2.75,16.8c-.03.3-.05.58-.05.85,0,.3.02.58.05.85.03.93.15,1.83.35,2.7.6,2.73,1.92,5.18,3.95,7.35.07.07.15.15.25.25,3.07,3.03,6.77,4.55,11.1,4.55,4.33,0,8.03-1.52,11.1-4.55.03-.03.07-.05.1-.05,2.13-2.2,3.5-4.72,4.1-7.55.2-.87.32-1.77.35-2.7.03-.27.05-.55.05-.85,0-.27-.02-.55-.05-.85-.2-3.97-1.72-7.37-4.55-10.2-3.07-3.07-6.77-4.6-11.1-4.6s-8.03,1.53-11.1,4.6c-2.87,2.83-4.38,6.23-4.55,10.2M5.15,16.8c.17-3.3,1.47-6.13,3.9-8.5,2.57-2.6,5.68-3.9,9.35-3.9,3.67,0,6.8,1.3,9.4,3.9,2.37,2.37,3.65,5.2,3.85,8.5.03.3.05.58.05.85,0,.3-.02.58-.05.85-.03.93-.17,1.83-.4,2.7-.47,1.77-1.3,3.38-2.5,4.85-.3.33-.62.67-.95,1-2.6,2.6-5.73,3.9-9.4,3.9s-6.78-1.3-9.35-3.9c-.37-.37-.7-.72-1-1.05-1.2-1.47-2.03-3.07-2.5-4.8-.23-.87-.37-1.77-.4-2.7-.03-.27-.05-.55-.05-.85,0-.27.02-.55.05-.85Z" fill="#fff" stroke-width="0"/><path d="M23.65,20.8c-.13.27-.33.53-.6.8-.53.37-1.15.55-1.85.55-.73,0-1.35-.18-1.85-.55-.3-.23-.48-.5-.55-.8-.03-.13-.12-.22-.25-.25-.13-.07-.27-.08-.4-.05s-.22.12-.25.25c-.07.1-.08.22-.05.35.13.47.43.88.9,1.25.67.5,1.48.75,2.45.75.97,0,1.78-.25,2.45-.75.43-.37.75-.77.95-1.2.03-.13.03-.27,0-.4-.1-.13-.2-.22-.3-.25-.13-.03-.27-.03-.4,0-.13.07-.22.17-.25.3M16.75,14.7c-.57.03-1.07.27-1.5.7-.47.47-.7,1.03-.7,1.7s.23,1.17.7,1.6c.47.47,1.02.72,1.65.75h8.65c.63-.03,1.17-.28,1.6-.75.5-.43.75-.97.75-1.6,0-.67-.25-1.23-.75-1.7-.37-.4-.8-.63-1.3-.7h-9.1Z" fill="#af9f7a" stroke-width="0"/><path d="M9.05,8.3c-2.43,2.37-3.73,5.2-3.9,8.5-.03.3-.05.58-.05.85,0,.3.02.58.05.85.03.93.17,1.83.4,2.7.47,1.73,1.3,3.33,2.5,4.8v-8.7c0-2.87,1.02-5.32,3.05-7.35s4.43-3,7.3-3,5.3,1,7.3,3,3.05,4.48,3.05,7.35v8.75c1.2-1.47,2.03-3.08,2.5-4.85.23-.87.37-1.77.4-2.7.03-.27.05-.55.05-.85,0-.27-.02-.55-.05-.85-.2-3.3-1.48-6.13-3.85-8.5-2.6-2.6-5.73-3.9-9.4-3.9-3.67,0-6.78,1.3-9.35,3.9M.75,16.75v-.15c-.03.37-.05.72-.05,1.05s.02.65.05.95c.03,1.03.17,2.05.4,3.05.53,2.43,1.57,4.65,3.1,6.65l2.75.25h.05c-2.03-2.17-3.35-4.62-3.95-7.35-.2-.87-.32-1.77-.35-2.7-.03-.27-.05-.55-.05-.85,0-.27.02-.55.05-.85.17-3.97,1.68-7.37,4.55-10.2,3.07-3.07,6.77-4.6,11.1-4.6s8.03,1.53,11.1,4.6c2.83,2.83,4.35,6.23,4.55,10.2.03.3.05.58.05.85,0,.3-.02.58-.05.85-.03.93-.15,1.83-.35,2.7-.6,2.83-1.97,5.35-4.1,7.55l2.5.2c1.8-2.2,2.98-4.65,3.55-7.35v.05c.23-1,.37-2.02.4-3.05.03-.3.05-.62.05-.95s-.02-.68-.05-1.05c-.27-4.43-1.97-8.23-5.1-11.4C27.48,1.73,23.3,0,18.4,0S9.33,1.73,5.9,5.2C2.67,8.4.95,12.25.75,16.75Z" fill="#ccc" stroke-width="0"/></g></g></svg>