<?xml version="1.0" encoding="UTF-8"?><svg id="Calque_2" xmlns="http://www.w3.org/2000/svg" viewBox="0 0 37.45 53.5"><g id="Calque_1-2"><g id="Layer0_85_MEMBER_0_FILL"><path d="M0,46.2c0,2,1.7,3.72,5.1,5.15,3.47,1.43,7.67,2.15,12.6,2.15s9.03-.72,12.5-2.15c3.53-1.43,5.3-3.15,5.3-5.15s-1.77-3.78-5.3-5.25c-3.47-1.4-7.63-2.1-12.5-2.1s-9.13.7-12.6,2.1c-3.4,1.47-5.1,3.22-5.1,5.25Z" fill="rgba(0,0,0,.05)" stroke-width="0"/></g><g id="Layer0_85_MEMBER_1_FILL"><path d="M29.45,34.95c-.13.57-.27,1.13-.4,1.7-.73,2.93-1.25,6.62-1.55,11.05,1.5-2.07,2.37-3.95,2.6-5.65.33.13.72.22,1.15.25.93.07,1.75-.17,2.45-.7v-.05c.8-.63,1.23-1.42,1.3-2.35.33-3.47-.23-6.53-1.7-9.2l-2.5-.2c.13.17.25.35.35.55,1.57,2.47,2.18,5.35,1.85,8.65-.03.4-.22.73-.55,1-.3.23-.65.33-1.05.3-.43-.03-.78-.22-1.05-.55-.23-.3-.33-.65-.3-1.05.13-1.47-.07-2.72-.6-3.75M14.9,45.2c1.33.3,2.75.45,4.25.45.63,0,1.27-.02,1.9-.05l2.25,2.1-.55-4.4c-1.13.23-2.33.35-3.6.35-2,0-3.82-.3-5.45-.9l-1.85,4.95,3.05-2.5M7.35,29.6l-2.75-.25c-2.23,2.2-3.63,5.07-4.2,8.6-.17.93.02,1.78.55,2.55.57.8,1.33,1.28,2.3,1.45.97.13,1.83-.07,2.6-.6.3-.2.55-.43.75-.7.73,2.6,1.12,4.75,1.15,6.45.83-4.33,1.18-8.72,1.05-13.15-1.97.83-3.13,2.43-3.5,4.8-.07.4-.27.72-.6.95-.33.23-.72.32-1.15.25-.4-.07-.72-.27-.95-.6-.23-.33-.32-.7-.25-1.1.57-3.5,2.07-6.25,4.5-8.25.17-.17.33-.3.5-.4Z" fill="#4b8572" stroke-width="0"/><path d="M7.65,29.85c-.1-.1-.18-.18-.25-.25h-.05c-.17.1-.33.23-.5.4-2.43,2-3.93,4.75-4.5,8.25-.07.4.02.77.25,1.1.23.33.55.53.95.6.43.07.82-.02,1.15-.25.33-.23.53-.55.6-.95.37-2.37,1.53-3.97,3.5-4.8.13,4.43-.22,8.82-1.05,13.15v.3c-.03.13-.03.27,0,.4,1.33.7,2.7.67,4.1-.1l1.85-4.95c1.63.6,3.45.9,5.45.9,1.27,0,2.47-.12,3.6-.35l.55,4.4c1.4.87,2.8.87,4.2,0,.3-4.43.82-8.12,1.55-11.05.13-.57.27-1.13.4-1.7.53,1.03.73,2.28.6,3.75-.03.4.07.75.3,1.05.27.33.62.52,1.05.55.4.03.75-.07,1.05-.3.33-.27.52-.6.55-1,.33-3.3-.28-6.18-1.85-8.65-.1-.2-.22-.38-.35-.55-.03,0-.07.02-.1.05-3.2,3.17-7.05,4.75-11.55,4.75s-8.33-1.58-11.5-4.75M8.4,26.9c.33.4.68.78,1.05,1.15,2.67,2.7,5.9,4.05,9.7,4.05s7.07-1.35,9.8-4.05c.33-.33.65-.68.95-1.05v-9.1c0-2.97-1.05-5.5-3.15-7.6-2.1-2.1-4.63-3.15-7.6-3.15s-5.5,1.05-7.6,3.15c-2.1,2.1-3.15,4.63-3.15,7.6v9M24.55,20.75c.5-.5,1.12-.75,1.85-.75.67,0,1.23.25,1.7.75.5.5.75,1.07.75,1.7v.05c0,.7-.25,1.28-.75,1.75-.47.5-1.03.75-1.7.75-.73,0-1.35-.25-1.85-.75-.47-.47-.7-1.05-.7-1.75v-.05c.03-.63.27-1.2.7-1.7M15.55,20.75c.5-.5,1.12-.75,1.85-.75.67,0,1.23.25,1.7.75.5.5.75,1.07.75,1.7v.05c0,.7-.25,1.28-.75,1.75-.47.5-1.03.75-1.7.75-.73,0-1.35-.25-1.85-.75-.47-.47-.7-1.05-.7-1.75v-.05c.03-.63.27-1.2.7-1.7M25.8,26.35c.07.13.07.28,0,.45-.2.47-.53.9-1,1.3-.77.6-1.67.9-2.7.9s-1.97-.3-2.7-.9c-.53-.4-.88-.85-1.05-1.35-.03-.17-.02-.32.05-.45.07-.13.17-.22.3-.25.17-.03.32-.02.45.05.13.07.22.17.25.3.1.33.32.63.65.9.53.43,1.22.65,2.05.65.77,0,1.43-.22,2-.65.33-.3.57-.6.7-.9.03-.17.12-.27.25-.3.17-.1.32-.1.45,0,.13.03.23.12.3.25Z" fill="#6fc4a9" stroke-width="0"/><path d="M2.85,18.3c0-.3.02-.6.05-.9.2-4.13,1.78-7.67,4.75-10.6,3.17-3.2,7-4.8,11.5-4.8s8.35,1.6,11.55,4.8c2.97,2.93,4.55,6.47,4.75,10.6v1.75c-.07.97-.18,1.92-.35,2.85-.67,2.9-2.1,5.5-4.3,7.8l2.5.2c1.87-2.27,3.12-4.78,3.75-7.55,0-.03.02-.07.05-.1.17-1,.28-2.02.35-3.05v-2c-.23-4.67-2.02-8.63-5.35-11.9h.05C28.55,1.8,24.22,0,19.15,0S9.82,1.8,6.25,5.4C2.95,8.67,1.17,12.6.9,17.2c-.03.37-.05.73-.05,1.1,0,.33.02.65.05.95.03,1.07.17,2.13.4,3.2.57,2.5,1.67,4.8,3.3,6.9l2.75.25h.05c-2.13-2.27-3.52-4.8-4.15-7.6-.2-.93-.32-1.88-.35-2.85-.03-.27-.05-.55-.05-.85M5.4,17.4c-.03.3-.05.6-.05.9s.02.58.05.85c.03,1,.18,1.95.45,2.85.47,1.8,1.32,3.43,2.55,4.9v-9c0-2.97,1.05-5.5,3.15-7.6,2.1-2.1,4.63-3.15,7.6-3.15s5.5,1.05,7.6,3.15c2.1,2.1,3.15,4.63,3.15,7.6v9.1c1.23-1.5,2.1-3.17,2.6-5,.23-.9.38-1.85.45-2.85v-1.75c-.2-3.43-1.53-6.38-4-8.85-2.73-2.7-6-4.05-9.8-4.05s-7.03,1.35-9.7,4.05c-2.5,2.47-3.85,5.42-4.05,8.85Z" fill="#ccc" stroke-width="0"/><path d="M2.9,17.4c-.03.3-.05.6-.05.9s.02.58.05.85c.03.97.15,1.92.35,2.85.63,2.8,2.02,5.33,4.15,7.6.07.07.15.15.25.25,3.17,3.17,7,4.75,11.5,4.75s8.35-1.58,11.55-4.75c.03-.03.07-.05.1-.05,2.2-2.3,3.63-4.9,4.3-7.8.17-.93.28-1.88.35-2.85v-1.75c-.2-4.13-1.78-7.67-4.75-10.6-3.2-3.2-7.05-4.8-11.55-4.8s-8.33,1.6-11.5,4.8c-2.97,2.93-4.55,6.47-4.75,10.6M5.35,18.3c0-.3.02-.6.05-.9.2-3.43,1.55-6.38,4.05-8.85,2.67-2.7,5.9-4.05,9.7-4.05s7.07,1.35,9.8,4.05c2.47,2.47,3.8,5.42,4,8.85v1.75c-.07,1-.22,1.95-.45,2.85-.5,1.83-1.37,3.5-2.6,5-.3.37-.62.72-.95,1.05-2.73,2.7-6,4.05-9.8,4.05s-7.03-1.35-9.7-4.05c-.37-.37-.72-.75-1.05-1.15-1.23-1.47-2.08-3.1-2.55-4.9-.27-.9-.42-1.85-.45-2.85-.03-.27-.05-.55-.05-.85Z" fill="#fff" stroke-width="0"/><path d="M25.8,26.8c.07-.17.07-.32,0-.45-.07-.13-.17-.22-.3-.25-.13-.1-.28-.1-.45,0-.13.03-.22.13-.25.3-.13.3-.37.6-.7.9-.57.43-1.23.65-2,.65-.83,0-1.52-.22-2.05-.65-.33-.27-.55-.57-.65-.9-.03-.13-.12-.23-.25-.3-.13-.07-.28-.08-.45-.05-.13.03-.23.12-.3.25-.07.13-.08.28-.05.45.17.5.52.95,1.05,1.35.73.6,1.63.9,2.7.9s1.93-.3,2.7-.9c.47-.4.8-.83,1-1.3M17.4,20c-.73,0-1.35.25-1.85.75-.43.5-.67,1.07-.7,1.7v.05c0,.7.23,1.28.7,1.75.5.5,1.12.75,1.85.75.67,0,1.23-.25,1.7-.75.5-.47.75-1.05.75-1.75v-.05c0-.63-.25-1.2-.75-1.7-.47-.5-1.03-.75-1.7-.75M26.4,20c-.73,0-1.35.25-1.85.75-.43.5-.67,1.07-.7,1.7v.05c0,.7.23,1.28.7,1.75.5.5,1.12.75,1.85.75.67,0,1.23-.25,1.7-.75.5-.47.75-1.05.75-1.75v-.05c0-.63-.25-1.2-.75-1.7-.47-.5-1.03-.75-1.7-.75Z" fill="#347e67" stroke-width="0"/></g></g></svg>