<?xml version="1.0" encoding="UTF-8"?><svg id="Calque_2" xmlns="http://www.w3.org/2000/svg" viewBox="0 0 37.4 53.05"><g id="Calque_1-2"><g id="Layer0_4_MEMBER_0_FILL"><path d="M30.2,40.5c-3.47-1.4-7.63-2.1-12.5-2.1s-9.13.7-12.6,2.1c-3.4,1.47-5.1,3.22-5.1,5.25s1.7,3.72,5.1,5.15c3.47,1.43,7.67,2.15,12.6,2.15s9.03-.72,12.5-2.15c3.53-1.43,5.3-3.15,5.3-5.15s-1.77-3.78-5.3-5.25Z" fill="rgba(0,0,0,.05)" stroke-width="0"/></g><g id="Layer0_4_MEMBER_1_FILL"><path d="M.65,37.6c-.17.93.03,1.77.6,2.5.57.8,1.33,1.28,2.3,1.45.93.13,1.78-.07,2.55-.6.27-.2.5-.42.7-.65.73,2.63,1.1,4.78,1.1,6.45.87-4.33,1.23-8.72,1.1-13.15-1.93.83-3.08,2.42-3.45,4.75-.07.4-.27.72-.6.95s-.7.32-1.1.25c-.4-.07-.72-.27-.95-.6-.27-.3-.37-.65-.3-1.05.57-3.47,2.07-6.2,4.5-8.2.17-.17.33-.32.5-.45l-2.8-.15c-2.2,2.17-3.58,5-4.15,8.5M19.25,45.2c.63,0,1.25-.02,1.85-.05l2.25,2.15-.55-4.45c-1.1.23-2.28.35-3.55.35-2,0-3.8-.28-5.4-.85l-1.9,4.95,3.15-2.5c1.27.27,2.65.4,4.15.4M33.3,29.7l-2.55-.2c.13.17.27.35.4.55,1.53,2.47,2.13,5.32,1.8,8.55-.03.4-.22.73-.55,1-.3.23-.63.33-1,.3-.43-.03-.78-.22-1.05-.55-.27-.3-.38-.65-.35-1.05.17-1.43-.02-2.67-.55-3.7-.13.57-.27,1.12-.4,1.65-.73,2.97-1.25,6.65-1.55,11.05,1.47-2.07,2.33-3.97,2.6-5.7.33.17.72.27,1.15.3.87.07,1.67-.17,2.4-.7v-.05c.8-.63,1.23-1.42,1.3-2.35.33-3.4-.22-6.43-1.65-9.1Z" fill="#637fa3" stroke-width="0"/><path d="M30.75,29.5s-.05.02-.05.05c-3.17,3.13-6.98,4.7-11.45,4.7s-8.22-1.57-11.35-4.7c-.1-.1-.2-.2-.3-.3-.17.13-.33.28-.5.45-2.43,2-3.93,4.73-4.5,8.2-.07.4.03.75.3,1.05.23.33.55.53.95.6.4.07.77-.02,1.1-.25s.53-.55.6-.95c.37-2.33,1.52-3.92,3.45-4.75.13,4.43-.23,8.82-1.1,13.15v.65c1.33.9,2.68.87,4.05-.1l1.9-4.95c1.6.57,3.4.85,5.4.85,1.27,0,2.45-.12,3.55-.35l.55,4.45c1.37.97,2.75.97,4.15,0,.3-4.4.82-8.08,1.55-11.05.13-.53.27-1.08.4-1.65.53,1.03.72,2.27.55,3.7-.03.4.08.75.35,1.05.27.33.62.52,1.05.55.37.03.7-.07,1-.3.33-.27.52-.6.55-1,.33-3.23-.27-6.08-1.8-8.55-.13-.2-.27-.38-.4-.55M29.9,17.7c0-2.93-1.03-5.43-3.1-7.5-2.1-2.07-4.62-3.1-7.55-3.1s-5.43,1.03-7.5,3.1c-2.1,2.07-3.15,4.57-3.15,7.5v8.95c.33.4.68.78,1.05,1.15,2.63,2.63,5.83,3.95,9.6,3.95s7-1.32,9.7-3.95c.33-.33.65-.68.95-1.05v-9.05M22.25,19.95c.33,0,.62.13.85.4.23.23.35.52.35.85,0,.37-.12.67-.35.9-.23.23-.52.35-.85.35-.37,0-.67-.12-.9-.35-.23-.23-.35-.53-.35-.9,0-.33.12-.62.35-.85.23-.27.53-.4.9-.4M25.05,22.45c.23-.23.53-.35.9-.35.33,0,.62.12.85.35.27.23.4.52.4.85,0,.37-.13.67-.4.9-.23.23-.52.35-.85.35-.37,0-.67-.12-.9-.35-.23-.23-.35-.53-.35-.9,0-.33.12-.62.35-.85M17.6,22.45c.27-.23.57-.35.9-.35.37,0,.65.12.85.35.27.23.4.52.4.85,0,.37-.13.67-.4.9-.2.23-.48.35-.85.35-.33,0-.63-.12-.9-.35-.23-.23-.35-.53-.35-.9,0-.33.12-.62.35-.85M20.25,28.5c-.07-.1-.1-.22-.1-.35s.03-.27.1-.4c.1-.1.23-.15.4-.15h3.1c.13,0,.25.05.35.15.13.13.2.27.2.4s-.07.25-.2.35c-.1.13-.22.2-.35.2h-3.1c-.17,0-.3-.07-.4-.2Z" fill="#8db5e7" stroke-width="0"/><path d="M35.35,17.25c.03.27.05.55.05.85s-.02.6-.05.9c-.03.93-.15,1.87-.35,2.8-.63,2.87-2.05,5.43-4.25,7.7l2.55.2c1.83-2.23,3.05-4.72,3.65-7.45.23-1,.37-2,.4-3,.03-.4.05-.78.05-1.15,0-.4-.02-.77-.05-1.1v.15c-.23-4.63-1.97-8.57-5.2-11.8C28.58,1.78,24.28,0,19.25,0S10.03,1.78,6.5,5.35c-3.33,3.27-5.12,7.2-5.35,11.8v2c.07,1.03.22,2.07.45,3.1.53,2.47,1.6,4.75,3.2,6.85l2.8.15c-2.1-2.2-3.45-4.68-4.05-7.45-.2-.93-.33-1.87-.4-2.8v-1.75c.2-4.1,1.78-7.6,4.75-10.5,3.13-3.17,6.92-4.75,11.35-4.75s8.28,1.58,11.45,4.75c2.9,2.9,4.45,6.4,4.65,10.5M32.9,19v-1.75c-.2-3.4-1.52-6.32-3.95-8.75-2.7-2.67-5.93-4-9.7-4s-6.97,1.33-9.6,4c-2.47,2.43-3.8,5.35-4,8.75-.03.27-.05.55-.05.85s.02.6.05.9c.03.97.18,1.9.45,2.8.47,1.77,1.3,3.38,2.5,4.85v-8.95c0-2.93,1.05-5.43,3.15-7.5,2.07-2.07,4.57-3.1,7.5-3.1s5.45,1.03,7.55,3.1c2.07,2.07,3.1,4.57,3.1,7.5v9.05c1.23-1.5,2.08-3.15,2.55-4.95.23-.9.38-1.83.45-2.8Z" fill="#ccc" stroke-width="0"/><path d="M35.4,18.1c0-.3-.02-.58-.05-.85-.2-4.1-1.75-7.6-4.65-10.5-3.17-3.17-6.98-4.75-11.45-4.75s-8.22,1.58-11.35,4.75c-2.97,2.9-4.55,6.4-4.75,10.5v1.75c.07.93.2,1.87.4,2.8.6,2.77,1.95,5.25,4.05,7.45.1.1.2.2.3.3,3.13,3.13,6.92,4.7,11.35,4.7s8.28-1.57,11.45-4.7c0-.03.02-.05.05-.05,2.2-2.27,3.62-4.83,4.25-7.7.2-.93.32-1.87.35-2.8.03-.3.05-.6.05-.9M32.9,18.1v.9c-.07.97-.22,1.9-.45,2.8-.47,1.8-1.32,3.45-2.55,4.95-.3.37-.62.72-.95,1.05-2.7,2.63-5.93,3.95-9.7,3.95s-6.97-1.32-9.6-3.95c-.37-.37-.72-.75-1.05-1.15-1.2-1.47-2.03-3.08-2.5-4.85-.27-.9-.42-1.83-.45-2.8-.03-.3-.05-.6-.05-.9s.02-.58.05-.85c.2-3.4,1.53-6.32,4-8.75,2.63-2.67,5.83-4,9.6-4s7,1.33,9.7,4c2.43,2.43,3.75,5.35,3.95,8.75v.85Z" fill="#fff" stroke-width="0"/><path d="M20.15,28.15c0,.13.03.25.1.35.1.13.23.2.4.2h3.1c.13,0,.25-.07.35-.2.13-.1.2-.22.2-.35s-.07-.27-.2-.4c-.1-.1-.22-.15-.35-.15h-3.1c-.17,0-.3.05-.4.15-.07.13-.1.27-.1.4M18.5,22.1c-.33,0-.63.12-.9.35-.23.23-.35.52-.35.85,0,.37.12.67.35.9.27.23.57.35.9.35.37,0,.65-.12.85-.35.27-.23.4-.53.4-.9,0-.33-.13-.62-.4-.85-.2-.23-.48-.35-.85-.35M25.95,22.1c-.37,0-.67.12-.9.35-.23.23-.35.52-.35.85,0,.37.12.67.35.9.23.23.53.35.9.35.33,0,.62-.12.85-.35.27-.23.4-.53.4-.9,0-.33-.13-.62-.4-.85-.23-.23-.52-.35-.85-.35M23.1,20.35c-.23-.27-.52-.4-.85-.4-.37,0-.67.13-.9.4-.23.23-.35.52-.35.85,0,.37.12.67.35.9.23.23.53.35.9.35.33,0,.62-.12.85-.35.23-.23.35-.53.35-.9,0-.33-.12-.62-.35-.85Z" fill="#4f719d" stroke-width="0"/></g></g></svg>