<?xml version="1.0" encoding="UTF-8"?><svg id="Calque_2" xmlns="http://www.w3.org/2000/svg" xmlns:xlink="http://www.w3.org/1999/xlink" viewBox="0 0 63.5 95.75"><defs><radialGradient id="Dégradé_sans_nom_9" cx="28.85" cy="607.69" fx="28.85" fy="607.69" r="13.59" gradientTransform="translate(-11.34 657.59) scale(1.51 -1)" gradientUnits="userSpaceOnUse"><stop offset="0" stop-color="#000" stop-opacity=".3"/><stop offset="1" stop-color="#000" stop-opacity="0"/></radialGradient></defs><g id="Calque_1-2"><g id="poses"><g id="back_FL_FL_FL_FL_FL_FL_FL_FL_FL_FL_FL_FL_FL_FL_FL_FL_FL_FL_FL_FL_FL_FL_FL_FL_FL_FL_FL_FL_FL_FL_FL_FL_FL_FL_FL_FL_FL_FL"><g id="Symbol_1_0_Layer0_0_MEMBER_0_FILL"><path d="M16.65,32.35l-3.7-.2c-.4-.03-.77.1-1.1.4-.33.3-.52.67-.55,1.1-.23,4.7-2.1,8.83-5.6,12.4-.3.23-.45.57-.45,1-.03.47.08.85.35,1.15v.05s.07-.07.1-.1c5.17-4.5,8.63-9.45,10.4-14.85.1-.33.28-.65.55-.95Z" fill="#454a51" stroke-width="0"/><path d="M27.1,32.95l-10.45-.6c-.27.3-.45.62-.55.95-1.77,5.4-5.23,10.35-10.4,14.85-.03.03-.07.07-.1.1.3.3.65.48,1.05.55,11,1.17,18.3-3.38,21.9-13.65.1-.37.12-.7.05-1-.1-.33-.28-.6-.55-.8-.3-.27-.62-.4-.95-.4Z" fill="#3c3e41" stroke-width="0"/></g><g id="Symbol_1_0_Layer0_0_MEMBER_1_FILL"><path d="M50.05,33.3c-.1-.33-.28-.65-.55-.95l-10.45.6c-.33,0-.65.13-.95.4-.27.2-.45.47-.55.8-.07.3-.05.63.05,1,3.6,10.27,10.9,14.82,21.9,13.65.4-.07.75-.25,1.05-.55l-.1-.1c-5.17-4.5-8.63-9.45-10.4-14.85Z" fill="#3c3e41" stroke-width="0"/><path d="M54.85,33.65c-.03-.43-.22-.8-.55-1.1-.33-.3-.7-.43-1.1-.4l-3.7.2c.27.3.45.62.55.95,1.77,5.4,5.23,10.35,10.4,14.85l.1.1v-.05c.27-.3.38-.68.35-1.15,0-.43-.15-.77-.45-1-3.5-3.57-5.37-7.7-5.6-12.4Z" fill="#454a51" stroke-width="0"/></g></g><g id="leg_0_Layer0_0_FILL"><path d="M50.65,95.75l.1-3h-14.95v3h14.85Z" fill="#fff" stroke-width="0"/><path d="M50.75,92.75c-3.23-.9-5.15-2.9-5.75-6h-9.2v6h14.95Z" fill="#bfd4e5" stroke-width="0"/><path d="M45,86.75h.05l.15-5h-9.4v5h9.2Z" fill="#bf7958" stroke-width="0"/><path d="M45.65,72.55c0-1.6-.63-2.97-1.9-4.1-1.23-1.13-2.75-1.7-4.55-1.7s-3.28.57-4.55,1.7c-1.27,1.13-1.9,2.5-1.9,4.1,1.97,1.6,2.98,4.67,3.05,9.2h9.4l.45-9.2Z" fill="#676ac6" stroke-width="0"/></g><g id="leg_0_Layer0_0_FILL-2"><path d="M12.85,95.75l-.1-3h14.95v3h-14.85Z" fill="#fff" stroke-width="0"/><path d="M12.75,92.75c3.23-.9,5.15-2.9,5.75-6h9.2v6h-14.95Z" fill="#bfd4e5" stroke-width="0"/><path d="M18.5,86.75h-.05l-.15-5h9.4v5h-9.2Z" fill="#bf7958" stroke-width="0"/><path d="M17.85,72.55c0-1.6.63-2.97,1.9-4.1,1.23-1.13,2.75-1.7,4.55-1.7s3.28.57,4.55,1.7c1.27,1.13,1.9,2.5,1.9,4.1-1.97,1.6-2.98,4.67-3.05,9.2h-9.4l-.45-9.2Z" fill="#676ac6" stroke-width="0"/></g><g id="arm_0_Layer0_0_FILL"><path d="M54.35,70.95c.43,2.37.73,4.2.9,5.5s.97,2.02,2.4,2.15c1.37.1,2.58-.3,3.65-1.2,1.07-.9,1.67-2.02,1.8-3.35.27-2.97.05-5.82-.65-8.55l-8.75,3.25c.3.77.52,1.5.65,2.2Z" fill="#bf7958" stroke-width="0"/><path d="M49.8,62.35c.83,1.1,1.57,2.15,2.2,3.15l9.1-3.85c-.6-1.37-1.33-2.72-2.2-4.05-1.73-2.67-4-5.23-6.8-7.7-1.07-.93-2.3-1.37-3.7-1.3-1.43.07-2.6.62-3.5,1.65-1,.97-1.47,2.15-1.4,3.55.07,1.37.63,2.5,1.7,3.4,1.87,1.67,3.4,3.38,4.6,5.15Z" fill="#3dbf7b" stroke-width="0"/><path d="M62.45,65.5l1.05-.45-1.1-3.95-1.3.55-9.1,3.85-.9.35,1.3,3.4,1.3-.5,8.75-3.25Z" fill="#25a863" stroke-width="0"/></g><g id="arm_0_Layer0_0_FILL-2"><path d="M9.15,70.95c-.43,2.37-.73,4.2-.9,5.5s-.97,2.02-2.4,2.15c-1.37.1-2.58-.3-3.65-1.2-1.07-.9-1.67-2.02-1.8-3.35-.27-2.97-.05-5.82.65-8.55l8.75,3.25c-.3.77-.52,1.5-.65,2.2Z" fill="#bf7958" stroke-width="0"/><path d="M13.7,62.35c-.83,1.1-1.57,2.15-2.2,3.15l-9.1-3.85c.6-1.37,1.33-2.72,2.2-4.05,1.73-2.67,4-5.23,6.8-7.7,1.07-.93,2.3-1.37,3.7-1.3,1.43.07,2.6.62,3.5,1.65,1,.97,1.47,2.15,1.4,3.55-.07,1.37-.63,2.5-1.7,3.4-1.87,1.67-3.4,3.38-4.6,5.15Z" fill="#3dbf7b" stroke-width="0"/><path d="M1.05,65.5l-1.05-.45,1.1-3.95,1.3.55,9.1,3.85.9.35-1.3,3.4-1.3-.5-8.75-3.25Z" fill="#25a863" stroke-width="0"/></g><g id="body_0_Layer0_0_FILL"><path d="M18,73.3c-.03,1.43.17,2.95.6,4.55h25.3c.43-1.6.63-3.12.6-4.55h-26.5Z" fill="#676ac6" stroke-width="0"/><path d="M17.85,68.35h2.95c.5-2.83-1.02-5.5-4.55-8l.2.8c.7,2.23,1.17,4.63,1.4,7.2M46.05,61.15l.2-.8c-3.53,2.5-5.03,5.17-4.5,8h2.95c.23-2.57.68-4.97,1.35-7.2M41.2,60.75c0-.57-.95-1.07-2.85-1.5-1.97-.33-4.33-.5-7.1-.5-2.77,0-5.13.17-7.1.5-1.9.43-2.85.93-2.85,1.5s.95,1.02,2.85,1.35c1.97.43,4.33.65,7.1.65s5.13-.22,7.1-.65c1.9-.33,2.85-.78,2.85-1.35Z" fill="#25a863" stroke-width="0"/><path d="M45.85,68.35h-29.15l.75,4.95h27.65l.75-4.95Z" fill="#3c3e41" stroke-width="0"/><path d="M49.5,54c.67-3.37-.03-5.12-2.1-5.25H15.6c-2.43-.13-3.3,1.62-2.6,5.25,1.47,2.1,2.62,4.48,3.45,7.15l-.2-.8c3.53,2.5,5.05,5.17,4.55,8h20.95c-.53-2.83.97-5.5,4.5-8l-.2.8c.83-2.67,1.98-5.05,3.45-7.15M38.35,59.25c1.9.43,2.85.93,2.85,1.5s-.95,1.02-2.85,1.35c-1.97.43-4.33.65-7.1.65s-5.13-.22-7.1-.65c-1.9-.33-2.85-.78-2.85-1.35s.95-1.07,2.85-1.5c1.97-.33,4.33-.5,7.1-.5,2.77,0,5.13.17,7.1.5Z" fill="#3dbf7b" stroke-width="0"/></g><g id="body_0_Layer0_1_FILL"><path d="M41.8,48.6c-.2,2.13-1.2,3.97-3,5.5-2.1,1.77-4.62,2.65-7.55,2.65-2.93,0-5.45-.88-7.55-2.65-1.8-1.5-2.78-3.3-2.95-5.4-.37.83-.55,1.7-.55,2.6,0,.17.02.33.05.5.1,2.07,1.15,3.82,3.15,5.25,2.17,1.63,4.78,2.45,7.85,2.45s5.7-.82,7.9-2.45c2-1.43,3.05-3.18,3.15-5.25.03-.17.05-.33.05-.5,0-.93-.18-1.83-.55-2.7Z" fill="#fff" stroke-width="0"/><path d="M41.85,47.8c0-2.47-1.02-4.6-3.05-6.4-2.1-1.7-4.62-2.55-7.55-2.55s-5.45.85-7.55,2.55c-2.03,1.8-3.05,3.93-3.05,6.4,0,.17.02.33.05.5,0,.13.02.27.05.4.17,2.1,1.15,3.9,2.95,5.4,2.1,1.77,4.62,2.65,7.55,2.65,2.93,0,5.45-.88,7.55-2.65,1.8-1.53,2.8-3.37,3-5.5v-.3c.03-.17.05-.33.05-.5Z" fill="#bf7958" stroke-width="0"/></g><g id="hand_0_Layer0_0_FILL"><path d="M49.75,83.3l-.05-.95c.33-4.13,1.87-7.35,4.6-9.65-6.27,4.37-7.8,7.92-4.6,10.65l.05-.05Z" fill="#a8603f" stroke-width="0"/><path d="M62.3,72.7h-8c-2.73,2.3-4.27,5.52-4.6,9.65l.05.95-.05.05c-.03,1.1-.03,2.28,0,3.55v.35c0,.97.68,1.58,2.05,1.85,2.07.43,4.07.63,6,.6,4.93-.03,6.45-5.7,4.55-17Z" fill="#bf7958" stroke-width="0"/></g><g id="hand_0_Layer0_0_FILL-2"><path d="M13.75,83.3l.05-.95c-.33-4.13-1.87-7.35-4.6-9.65,6.27,4.37,7.8,7.92,4.6,10.65l-.05-.05Z" fill="#a8603f" stroke-width="0"/><path d="M1.2,72.7h8c2.73,2.3,4.27,5.52,4.6,9.65l-.05.95.05.05c.03,1.1.03,2.28,0,3.55v.35c0,.97-.68,1.58-2.05,1.85-2.07.43-4.07.63-6,.6-4.93-.03-6.45-5.7-4.55-17Z" fill="#bf7958" stroke-width="0"/></g><g id="shadow_0_Layer0_0_FILL"><path d="M46.39,40.35c-3.92-2.6-8.67-3.9-14.24-3.9s-10.38,1.3-14.4,3.9c-3.92,2.67-5.88,5.85-5.88,9.55s1.96,6.85,5.88,9.45c4.02,2.67,8.82,4,14.4,4s10.33-1.33,14.24-4c4.02-2.6,6.03-5.75,6.03-9.45s-2.01-6.88-6.03-9.55Z" fill="url(#Dégradé_sans_nom_9)" stroke-width="0"/></g><g id="head_0_Layer0_0_FILL"><path d="M57.35,23.45c-.37-4.8-2.77-8.95-7.2-12.45-4.83-3.83-10.67-5.75-17.5-5.75s-12.67,1.92-17.5,5.75c-4.4,3.5-6.78,7.65-7.15,12.45.37,5.43,2.75,10.12,7.15,14.05,4.83,4.33,10.67,6.5,17.5,6.5s12.67-2.17,17.5-6.5c4.43-3.93,6.83-8.62,7.2-14.05Z" fill="#3c3e41" stroke-width="0"/><path d="M57.4,22c0-6.07-2.42-11.27-7.25-15.6C45.32,2.13,39.48,0,32.65,0s-12.67,2.13-17.5,6.4c-4.8,4.33-7.2,9.53-7.2,15.6,0,.5.02.98.05,1.45.37-4.8,2.75-8.95,7.15-12.45,4.83-3.83,10.67-5.75,17.5-5.75s12.67,1.92,17.5,5.75c4.43,3.5,6.83,7.65,7.2,12.45.03-.47.05-.95.05-1.45Z" fill="#454a51" stroke-width="0"/></g><g id="head_0_Layer0_1_MEMBER_0_FILL"><path d="M8.95,25.05c-1.57,1.57-2.35,3.48-2.35,5.75s.78,4.08,2.35,5.65c1.57,1.63,3.45,2.45,5.65,2.45,2.17,0,4.05-.82,5.65-2.45,1.57-1.57,2.35-3.45,2.35-5.65s-.78-4.18-2.35-5.75c-1.6-1.6-3.48-2.4-5.65-2.4s-4.08.8-5.65,2.4M11.2,34.2c-.93-.93-1.4-2.07-1.4-3.4,0-1.3.47-2.47,1.4-3.5.93-.93,2.07-1.4,3.4-1.4s2.5.47,3.4,1.4c.93,1.03,1.4,2.2,1.4,3.5s-.47,2.47-1.4,3.4c-.9.97-2.03,1.45-3.4,1.45s-2.47-.48-3.4-1.45M45.95,36.45c1.57,1.63,3.45,2.45,5.65,2.45,2.17,0,4.05-.82,5.65-2.45,1.57-1.57,2.35-3.45,2.35-5.65s-.78-4.18-2.35-5.75c-1.6-1.6-3.48-2.4-5.65-2.4s-4.08.8-5.65,2.4c-1.57,1.57-2.35,3.48-2.35,5.75s.78,4.08,2.35,5.65M48.2,27.3c.93-.93,2.07-1.4,3.4-1.4s2.47.47,3.4,1.4c.93,1.03,1.4,2.2,1.4,3.5,0,1.33-.47,2.47-1.4,3.4-.93.97-2.07,1.45-3.4,1.45s-2.47-.48-3.4-1.45c-.93-.93-1.4-2.07-1.4-3.4s.47-2.47,1.4-3.5Z" fill="#bf7958" stroke-width="0"/><path d="M9.8,30.8c0,1.33.47,2.47,1.4,3.4.93.97,2.07,1.45,3.4,1.45s2.5-.48,3.4-1.45c.93-.93,1.4-2.07,1.4-3.4s-.47-2.47-1.4-3.5c-.9-.93-2.03-1.4-3.4-1.4s-2.47.47-3.4,1.4c-.93,1.03-1.4,2.2-1.4,3.5M51.6,25.9c-1.33,0-2.47.47-3.4,1.4-.93,1.03-1.4,2.2-1.4,3.5s.47,2.47,1.4,3.4c.93.97,2.07,1.45,3.4,1.45s2.47-.48,3.4-1.45c.93-.93,1.4-2.07,1.4-3.4,0-1.3-.47-2.47-1.4-3.5-.93-.93-2.07-1.4-3.4-1.4Z" fill="#a8603f" stroke-width="0"/></g><g id="head_0_Layer0_1_MEMBER_1_FILL"><path d="M51.7,38.35l2.3-22.55H12.15l2.3,22.55c1.37,4.93,4.83,8.37,10.4,10.3,2.8.97,5.53,1.42,8.2,1.35,2.7.07,5.43-.38,8.2-1.35,5.6-1.93,9.08-5.37,10.45-10.3Z" fill="#bf7958" stroke-width="0"/></g><g id="head_0_Layer0_1_MEMBER_2_FILL"><path d="M35.45,37.15c.7-.47,1.05-1,1.05-1.6,0-.6-.35-1.15-1.05-1.65-.67-.43-1.48-.65-2.45-.65-.9,0-1.68.22-2.35.65-.67.5-1,1.05-1,1.65s.33,1.13,1,1.6c.67.53,1.45.8,2.35.8.97,0,1.78-.27,2.45-.8Z" fill="#955435" stroke-width="0"/></g><g id="head_0_Layer0_1_MEMBER_2_MEMBER_0_FILL"><path d="M20.5,32.8c0-.13,0-.25,0-.35,0-1.17.38-2.17,1.15-3,.63-.67,1.4-1.08,2.3-1.25h-5.75c1.4,1.1,2.17,2.63,2.3,4.6M27.15,34.95c.47-.67.7-1.5.7-2.5s-.23-1.8-.7-2.5c-.47-.7-1.05-1.05-1.75-1.05-.67,0-1.22.35-1.65,1.05-.47.7-.7,1.53-.7,2.5s.23,1.83.7,2.5c.43.7.98,1.05,1.65,1.05.7,0,1.28-.35,1.75-1.05M45.65,32.45v.35c.13-1.97.88-3.5,2.25-4.6h-5.7c.9.17,1.67.58,2.3,1.25.77.83,1.15,1.83,1.15,3M38.3,32.45c0,1,.23,1.83.7,2.5.43.7,1,1.05,1.7,1.05s1.23-.35,1.7-1.05c.47-.67.7-1.5.7-2.5s-.23-1.8-.7-2.5c-.47-.7-1.03-1.05-1.7-1.05-.7,0-1.27.35-1.7,1.05-.47.7-.7,1.53-.7,2.5Z" fill="#3c3e41" stroke-width="0"/><path d="M24.35,28.15c-.13,0-.27.02-.4.05-.9.17-1.67.58-2.3,1.25-.77.83-1.15,1.83-1.15,3,0,.1,0,.22,0,.35.07,1,.45,1.88,1.15,2.65.8.87,1.78,1.3,2.95,1.3s2.08-.43,2.85-1.3c.8-.83,1.2-1.83,1.2-3s-.4-2.17-1.2-3c-.77-.87-1.72-1.3-2.85-1.3-.1,0-.18,0-.25,0M27.85,32.45c0,1-.23,1.83-.7,2.5-.47.7-1.05,1.05-1.75,1.05s-1.22-.35-1.65-1.05c-.47-.67-.7-1.5-.7-2.5s.23-1.8.7-2.5c.43-.7.98-1.05,1.65-1.05.7,0,1.28.35,1.75,1.05.47.7.7,1.53.7,2.5M42.2,28.2c-.13-.03-.27-.05-.4-.05-.1,0-.2,0-.3,0-1.13,0-2.07.43-2.8,1.3-.8.83-1.2,1.83-1.2,3,0,1.17.4,2.17,1.2,3,.73.87,1.67,1.3,2.8,1.3,1.2,0,2.2-.43,3-1.3.7-.77,1.08-1.65,1.15-2.65v-.35c0-1.17-.38-2.17-1.15-3-.63-.67-1.4-1.08-2.3-1.25M39,34.95c-.47-.67-.7-1.5-.7-2.5s.23-1.8.7-2.5c.43-.7,1-1.05,1.7-1.05.67,0,1.23.35,1.7,1.05.47.7.7,1.53.7,2.5s-.23,1.83-.7,2.5c-.47.7-1.03,1.05-1.7,1.05-.7,0-1.27-.35-1.7-1.05Z" fill="#fff" stroke-width="0"/></g><g id="head_0_Layer0_1_MEMBER_2_MEMBER_1_FILL"><path d="M35.35,43.2v-3.2h-7.65c-.23,0-.45.08-.65.25-.23.1-.37.27-.4.5-.07.17-.07.38,0,.65.03.33.15.68.35,1.05.17.23.35.48.55.75h7.8Z" fill="#fff" stroke-width="0"/><path d="M38.5,40h-3.15v3.2h-7.8c.2.37.47.67.8.9,1.3,1.27,2.88,1.9,4.75,1.9s3.37-.62,4.7-1.85l.1-.05c.5-.47.92-1.02,1.25-1.65.2-.37.35-.72.45-1.05.03-.27.02-.48-.05-.65-.07-.23-.2-.4-.4-.5-.2-.17-.42-.25-.65-.25Z" fill="#a8603f" stroke-width="0"/></g><g id="head_0_Layer0_2_FILL"><path d="M53.65,24.35l1-8.4h-.55v-.85H11.4l.65,7.65c7.17-.13,12.47-1.5,15.9-4.1,3.47,4.3,7.15,6.5,11.05,6.6l1.45-3.1c4.5,1.67,8.9,2.4,13.2,2.2Z" fill="#3c3e41" stroke-width="0"/></g><g id="head_0_Layer0_3_FILL"><path d="M50.7,15.05c-.53-.73-1.2-1.45-2-2.15-3.7-3.13-8.9-4.7-15.6-4.7s-11.88,1.55-15.55,4.65c-.27.17-.48.37-.65.6-.57.47-1.03,1-1.4,1.6-.4.53-.45,1.18-.15,1.95,4.3-2.47,10.22-3.7,17.75-3.7,7.47,0,13.37,1.22,17.7,3.65.3-.73.27-1.37-.1-1.9Z" fill="#71a2be" stroke-width="0"/></g><g id="head_0_Layer0_4_FILL"><path d="M17,29.45c.4-.53.57-1.15.5-1.85l-.65-5.65h-4.95l.75,6.25c.07.67.38,1.23.95,1.7.53.4,1.13.55,1.8.45h.05c.67-.07,1.18-.37,1.55-.9Z" fill="#3c3e41" stroke-width="0"/></g><g id="head_0_Layer0_5_FILL"><path d="M48.45,27.6c-.07.7.1,1.32.5,1.85.4.53.93.83,1.6.9h.05c.67.1,1.27-.05,1.8-.45.57-.47.88-1.03.95-1.7l.75-6.25h-5l-.65,5.65Z" fill="#3c3e41" stroke-width="0"/></g><g id="head_0_Layer0_6_MEMBER_0_FILL"><path d="M19.25,23.65l-.65,2.4,9.45.95.55-2-9.35-1.35Z" fill="#3c3e41" stroke-width="0"/></g><g id="head_0_Layer0_6_MEMBER_1_FILL"><path d="M47.6,26.2l-.4-2.4-9.35.45.35,2.05,9.4-.1Z" fill="#3c3e41" stroke-width="0"/></g><g id="head_0_Layer0_7_FILL"><path d="M53.45,34.2c-.27.47-.33.93-.2,1.4l1,3.85c.13.47.42.83.85,1.1.43.23.9.28,1.4.15h.05c.47-.13.83-.42,1.1-.85.27-.47.33-.95.2-1.45l-1-3.8c-.13-.47-.43-.83-.9-1.1-.47-.23-.92-.28-1.35-.15h-.05c-.5.13-.87.42-1.1.85Z" fill="#eea160" stroke-width="0"/></g><g id="head_0_Layer0_8_FILL"><path d="M12.8,34.2c-.23-.43-.6-.72-1.1-.85h-.05c-.47-.13-.93-.08-1.4.15-.47.27-.77.63-.9,1.1l-.95,3.8c-.13.5-.07.98.2,1.45.27.43.62.72,1.05.85h.05c.5.13.97.08,1.4-.15.47-.27.77-.63.9-1.1l1-3.85c.13-.47.07-.93-.2-1.4Z" fill="#eea160" stroke-width="0"/></g></g></g></svg>