<?xml version="1.0" encoding="UTF-8"?><svg id="Calque_2" xmlns="http://www.w3.org/2000/svg" xmlns:xlink="http://www.w3.org/1999/xlink" viewBox="0 0 63.5 95.35"><defs><radialGradient id="Dégradé_sans_nom_51" cx="28.85" cy="607.29" fx="28.85" fy="607.29" r="13.59" gradientTransform="translate(-11.34 656.79) scale(1.51 -1)" gradientUnits="userSpaceOnUse"><stop offset="0" stop-color="#000" stop-opacity=".3"/><stop offset="1" stop-color="#000" stop-opacity="0"/></radialGradient></defs><g id="Calque_1-2"><g id="poses"><g id="back_FL_FL_FL_FL_FL_FL_FL_FL_FL_FL_FL_FL_FL_FL_FL_FL_FL_FL_FL_FL_FL_FL_FL_FL_FL_FL_FL_FL_FL_FL_FL_FL_FL_FL_FL_FL_FL_FL"><g id="Symbol_1_0_Layer0_0_FILL"><path d="M51.9,11.55c-5.2-4.07-11.48-6.1-18.85-6.1-7.33,0-13.63,2.03-18.9,6.1-2.03,1.6-3.67,3.33-4.9,5.2-.83,2.43-1.25,5.03-1.25,7.8,0,.07,0,.12,0,.15,0,.17,0,.32,0,.45.03,1.77.15,3.48.35,5.15l.8,12.15c0,.4.02.8.05,1.2.2,2.43.75,4.72,1.65,6.85,1.13,2.8,2.87,5.37,5.2,7.7,4.63,4.67,10.25,7,16.85,7s12.17-2.33,16.8-7c2.5-2.47,4.33-5.08,5.5-7.85.43-1.03.77-2.08,1-3.15,1.3-5.57,1.88-11.03,1.75-16.4-.03-1-.02-1.97.05-2.9,0-.17.02-.35.05-.55.03-.87.05-1.75.05-2.65,0-.03,0-.08,0-.15,0-2.77-.42-5.37-1.25-7.8-1.27-1.87-2.92-3.6-4.95-5.2Z" fill="#bf7958" stroke-width="0"/><path d="M33.05,5.45c7.37,0,13.65,2.03,18.85,6.1,2.03,1.6,3.68,3.33,4.95,5.2-1.2-3.53-3.23-6.72-6.1-9.55C45.85,2.4,39.95,0,33.05,0s-12.82,2.4-17.75,7.2c-2.87,2.87-4.88,6.05-6.05,9.55,1.23-1.87,2.87-3.6,4.9-5.2,5.27-4.07,11.57-6.1,18.9-6.1Z" fill="#db855c" stroke-width="0"/></g></g><g id="leg_0_Layer0_0_FILL"><path d="M45.05,86.35l.15-5h-9.4v5h9.25Z" fill="#ffd7b1" stroke-width="0"/><path d="M50.65,95.35l.1-3c-3.23-.9-5.15-2.9-5.75-6h-9.2v9h14.85Z" fill="#bf7958" stroke-width="0"/><path d="M45.65,72.15c0-1.6-.63-2.97-1.9-4.1-1.23-1.13-2.75-1.7-4.55-1.7s-3.28.57-4.55,1.7c-1.27,1.13-1.9,2.5-1.9,4.1,1.97,1.6,2.98,4.67,3.05,9.2h9.4l.45-9.2Z" fill="#eea160" stroke-width="0"/></g><g id="leg_0_Layer0_0_FILL-2"><path d="M18.45,86.35l-.15-5h9.4v5h-9.25Z" fill="#ffd7b1" stroke-width="0"/><path d="M12.85,95.35l-.1-3c3.23-.9,5.15-2.9,5.75-6h9.2v9h-14.85Z" fill="#bf7958" stroke-width="0"/><path d="M17.85,72.15c0-1.6.63-2.97,1.9-4.1,1.23-1.13,2.75-1.7,4.55-1.7s3.28.57,4.55,1.7c1.27,1.13,1.9,2.5,1.9,4.1-1.97,1.6-2.98,4.67-3.05,9.2h-9.4l-.45-9.2Z" fill="#eea160" stroke-width="0"/></g><g id="arm_0_Layer0_0_FILL"><path d="M53.1,67.1c.63,1.2,1.05,2.33,1.25,3.4.43,2.37.73,4.22.9,5.55.13,1.3.92,2.02,2.35,2.15,1.4.1,2.63-.3,3.7-1.2,1.03-.9,1.62-2.03,1.75-3.4.37-3.53-.02-6.95-1.15-10.25l-8.8,3.75Z" fill="#ffd7b1" stroke-width="0"/><path d="M61.9,63.35c-.7-2.1-1.7-4.15-3-6.15-1.73-2.67-4-5.25-6.8-7.75-1.07-.9-2.28-1.32-3.65-1.25-1.43.07-2.62.6-3.55,1.6-.97,1-1.42,2.18-1.35,3.55.07,1.37.62,2.52,1.65,3.45,1.87,1.63,3.4,3.35,4.6,5.15,1.43,1.83,2.53,3.55,3.3,5.15l8.8-3.75Z" fill="#79adcb" stroke-width="0"/></g><g id="arm_0_Layer0_1_FILL"><path d="M51.1,65.45l1.3,3.4,11.1-4.2-1.15-3.95-11.25,4.75Z" fill="#5a93b4" stroke-width="0"/></g><g id="arm_0_Layer0_0_FILL-2"><path d="M10.4,67.1c-.63,1.2-1.05,2.33-1.25,3.4-.43,2.37-.73,4.22-.9,5.55-.13,1.3-.92,2.02-2.35,2.15-1.4.1-2.63-.3-3.7-1.2-1.03-.9-1.62-2.03-1.75-3.4-.37-3.53.02-6.95,1.15-10.25l8.8,3.75Z" fill="#ffd7b1" stroke-width="0"/><path d="M1.6,63.35c.7-2.1,1.7-4.15,3-6.15,1.73-2.67,4-5.25,6.8-7.75,1.07-.9,2.28-1.32,3.65-1.25,1.43.07,2.62.6,3.55,1.6.97,1,1.42,2.18,1.35,3.55-.07,1.37-.62,2.52-1.65,3.45-1.87,1.63-3.4,3.35-4.6,5.15-1.43,1.83-2.53,3.55-3.3,5.15l-8.8-3.75Z" fill="#79adcb" stroke-width="0"/></g><g id="arm_0_Layer0_1_FILL-2"><path d="M12.4,65.45l-1.3,3.4-11.1-4.2,1.15-3.95,11.25,4.75Z" fill="#5a93b4" stroke-width="0"/></g><g id="body_0_Layer0_0_FILL"><path d="M16.25,60l.2.8c1.1,3.57,1.62,7.58,1.55,12.05,4.33-4.7,3.75-8.98-1.75-12.85M46.1,60.8l.2-.8c-5.5,3.87-6.08,8.15-1.75,12.85-.07-4.47.45-8.48,1.55-12.05Z" fill="#5a93b4" stroke-width="0"/><path d="M43.95,77.45c.43-1.6.63-3.13.6-4.6h-26.55c-.03,1.47.17,3,.6,4.6h25.35Z" fill="#eea160" stroke-width="0"/><path d="M46.3,60l-.2.8c.83-2.67,1.97-5.05,3.4-7.15.67-3.33-.02-5.07-2.05-5.2H15.6c-2.43-.13-3.3,1.6-2.6,5.2,1.47,2.1,2.62,4.48,3.45,7.15l-.2-.8c5.5,3.87,6.08,8.15,1.75,12.85h26.55c-4.33-4.7-3.75-8.98,1.75-12.85M41.25,60.4c0,.53-.97.97-2.9,1.3-1.97.43-4.33.65-7.1.65s-5.08-.22-7.05-.65c-1.93-.33-2.9-.77-2.9-1.3,0-.57.97-1.07,2.9-1.5,1.97-.33,4.32-.5,7.05-.5s5.13.17,7.1.5c1.93.43,2.9.93,2.9,1.5Z" fill="#79adcb" stroke-width="0"/><path d="M38.35,61.7c1.93-.33,2.9-.77,2.9-1.3,0-.57-.97-1.07-2.9-1.5-1.97-.33-4.33-.5-7.1-.5s-5.08.17-7.05.5c-1.93.43-2.9.93-2.9,1.5,0,.53.97.97,2.9,1.3,1.97.43,4.32.65,7.05.65s5.13-.22,7.1-.65Z" fill="#69a1c2" stroke-width="0"/></g><g id="body_0_Layer0_1_FILL"><path d="M45.75,74.45v-5h-28v5h28Z" fill="#bf7958" stroke-width="0"/></g><g id="body_0_Layer0_2_FILL"><path d="M44.55,82.2h.05c.67,0,1.22-.23,1.65-.7.43-.5.58-1.08.45-1.75l-.9-5.55h-5.05l.9,5.55c.13.67.47,1.25,1,1.75.57.47,1.2.7,1.9.7Z" fill="#bf7958" stroke-width="0"/></g><g id="body_0_Layer0_3_FILL"><path d="M41.75,47.45c0-2.5-1.02-4.65-3.05-6.45-2.07-1.7-4.55-2.55-7.45-2.55s-5.38.85-7.45,2.55c-2.03,1.8-3.05,3.95-3.05,6.45,0,.17.02.33.05.5.1,2.27,1.1,4.2,3,5.8,2.07,1.8,4.55,2.7,7.45,2.7s5.38-.9,7.45-2.7c1.9-1.6,2.9-3.53,3-5.8.03-.17.05-.33.05-.5Z" fill="#f0c49a" stroke-width="0"/></g><g id="body_0_Layer0_4_FILL"><path d="M19.85,44.45l-4.1,3.75c6.3,10.17,14.28,18.58,23.95,25.25l4.05-3.7c-8.83-6.33-16.8-14.77-23.9-25.3Z" fill="#bf7958" stroke-width="0"/></g><g id="hand_0_Layer0_0_FILL"><path d="M49.75,82.9l-.05-.95c.33-4.13,1.87-7.35,4.6-9.65-6.27,4.37-7.8,7.92-4.6,10.65l.05-.05Z" fill="#f0c49a" stroke-width="0"/><path d="M62.3,72.3h-8c-2.73,2.3-4.27,5.52-4.6,9.65l.05.95-.05.05c-.03,1.1-.03,2.28,0,3.55v.35c0,.97.68,1.58,2.05,1.85,2.07.43,4.07.63,6,.6,4.93-.03,6.45-5.7,4.55-17Z" fill="#ffd7b1" stroke-width="0"/></g><g id="hand_0_Layer0_0_FILL-2"><path d="M13.75,82.9l.05-.95c-.33-4.13-1.87-7.35-4.6-9.65,6.27,4.37,7.8,7.92,4.6,10.65l-.05-.05Z" fill="#f0c49a" stroke-width="0"/><path d="M1.2,72.3h8c2.73,2.3,4.27,5.52,4.6,9.65l-.05.95.05.05c.03,1.1.03,2.28,0,3.55v.35c0,.97-.68,1.58-2.05,1.85-2.07.43-4.07.63-6,.6-4.93-.03-6.45-5.7-4.55-17Z" fill="#ffd7b1" stroke-width="0"/></g><g id="shadow_0_Layer0_0_FILL"><path d="M46.39,39.95c-3.92-2.6-8.67-3.9-14.24-3.9s-10.38,1.3-14.4,3.9c-3.92,2.67-5.88,5.85-5.88,9.55s1.96,6.85,5.88,9.45c4.02,2.67,8.82,4,14.4,4s10.33-1.33,14.24-4c4.02-2.6,6.03-5.75,6.03-9.45s-2.01-6.88-6.03-9.55Z" fill="url(#Dégradé_sans_nom_51)" stroke-width="0"/></g><g id="head_0_Layer0_0_MEMBER_0_FILL"><path d="M51.6,22.1c-2.2,0-4.08.8-5.65,2.4-1.57,1.6-2.35,3.52-2.35,5.75s.78,4.15,2.35,5.75c1.57,1.6,3.45,2.4,5.65,2.4s4.08-.8,5.65-2.4c1.57-1.6,2.35-3.52,2.35-5.75s-.78-4.15-2.35-5.75c-1.57-1.6-3.45-2.4-5.65-2.4M51.6,35.15c-1.33,0-2.47-.48-3.4-1.45-.93-.93-1.4-2.08-1.4-3.45s.47-2.45,1.4-3.45c.93-.97,2.07-1.45,3.4-1.45s2.48.48,3.45,1.45c.9,1,1.35,2.15,1.35,3.45,0,1.37-.45,2.52-1.35,3.45-.97.97-2.12,1.45-3.45,1.45Z" fill="#ffd7b1" stroke-width="0"/><path d="M48.2,33.7c.93.97,2.07,1.45,3.4,1.45,1.33,0,2.48-.48,3.45-1.45.9-.93,1.35-2.08,1.35-3.45,0-1.3-.45-2.45-1.35-3.45-.97-.97-2.12-1.45-3.45-1.45s-2.47.48-3.4,1.45c-.93,1-1.4,2.15-1.4,3.45,0,1.37.47,2.52,1.4,3.45Z" fill="#e7b687" stroke-width="0"/></g><g id="head_0_Layer0_0_MEMBER_1_FILL"><path d="M8.95,24.5c-1.57,1.6-2.35,3.52-2.35,5.75s.78,4.15,2.35,5.75c1.57,1.6,3.45,2.4,5.65,2.4s4.05-.8,5.65-2.4c1.57-1.6,2.35-3.52,2.35-5.75s-.78-4.15-2.35-5.75c-1.6-1.6-3.48-2.4-5.65-2.4s-4.08.8-5.65,2.4M11.2,33.7c-.9-.93-1.35-2.08-1.35-3.45s.45-2.45,1.35-3.45c.93-.97,2.07-1.45,3.4-1.45s2.5.48,3.4,1.45c.93,1,1.4,2.15,1.4,3.45,0,1.37-.47,2.52-1.4,3.45-.9.97-2.03,1.45-3.4,1.45-1.33,0-2.47-.48-3.4-1.45Z" fill="#ffd7b1" stroke-width="0"/><path d="M9.85,30.25c0,1.37.45,2.52,1.35,3.45.93.97,2.07,1.45,3.4,1.45,1.37,0,2.5-.48,3.4-1.45.93-.93,1.4-2.08,1.4-3.45s-.47-2.45-1.4-3.45c-.9-.97-2.03-1.45-3.4-1.45s-2.47.48-3.4,1.45c-.9,1-1.35,2.15-1.35,3.45Z" fill="#e7b687" stroke-width="0"/></g><g id="head_0_Layer0_0_MEMBER_2_FILL"><path d="M51.7,37.9l2.3-22.7H12.15l2.3,22.7c1.37,4.97,4.85,8.4,10.45,10.3,2.77,1,5.48,1.47,8.15,1.4,2.7.07,5.43-.4,8.2-1.4,5.6-1.9,9.08-5.33,10.45-10.3Z" fill="#ffd7b1" stroke-width="0"/></g><g id="head_0_Layer0_0_MEMBER_3_FILL"><path d="M35.45,36.7c.7-.47,1.05-1.02,1.05-1.65,0-.6-.35-1.15-1.05-1.65-.67-.43-1.48-.65-2.45-.65-.9,0-1.68.22-2.35.65-.67.5-1,1.05-1,1.65,0,.63.33,1.18,1,1.65.67.5,1.45.75,2.35.75.97,0,1.78-.25,2.45-.75Z" fill="#e7b687" stroke-width="0"/></g><g id="head_0_Layer0_0_MEMBER_3_MEMBER_0_MEMBER_0_FILL"><path d="M20.5,32.3c0-.13,0-.25,0-.35,0-1.2.38-2.22,1.15-3.05.63-.67,1.4-1.07,2.3-1.2h-5.75c1.4,1.07,2.17,2.6,2.3,4.6M27.15,34.45c.47-.67.7-1.5.7-2.5s-.23-1.85-.7-2.55c-.47-.7-1.05-1.05-1.75-1.05-.63,0-1.18.35-1.65,1.05-.47.7-.7,1.55-.7,2.55s.23,1.83.7,2.5c.47.73,1.02,1.1,1.65,1.1.7,0,1.28-.37,1.75-1.1Z" fill="#bf7958" stroke-width="0"/><path d="M24.35,27.65c-.13,0-.27.02-.4.05-.9.13-1.67.53-2.3,1.2-.77.83-1.15,1.85-1.15,3.05,0,.1,0,.22,0,.35.07,1,.45,1.88,1.15,2.65.8.9,1.8,1.35,3,1.35,1.1,0,2.03-.45,2.8-1.35.8-.83,1.2-1.83,1.2-3s-.4-2.22-1.2-3.05c-.77-.83-1.7-1.25-2.8-1.25h-.3M27.85,31.95c0,1-.23,1.83-.7,2.5-.47.73-1.05,1.1-1.75,1.1-.63,0-1.18-.37-1.65-1.1-.47-.67-.7-1.5-.7-2.5s.23-1.85.7-2.55c.47-.7,1.02-1.05,1.65-1.05.7,0,1.28.35,1.75,1.05.47.7.7,1.55.7,2.55Z" fill="#fff" stroke-width="0"/></g><g id="head_0_Layer0_0_MEMBER_3_MEMBER_0_MEMBER_1_FILL"><path d="M45.65,31.95v.35c.13-2,.88-3.53,2.25-4.6h-5.7c.9.13,1.67.53,2.3,1.2.77.83,1.15,1.85,1.15,3.05M38.3,31.95c0,1,.23,1.83.7,2.5.47.73,1.03,1.1,1.7,1.1.67,0,1.23-.37,1.7-1.1.47-.67.7-1.5.7-2.5s-.23-1.85-.7-2.55c-.47-.7-1.03-1.05-1.7-1.05s-1.23.35-1.7,1.05c-.47.7-.7,1.55-.7,2.55Z" fill="#bf7958" stroke-width="0"/><path d="M42.2,27.7c-.13-.03-.27-.05-.4-.05h-.3c-1.1,0-2.03.42-2.8,1.25-.8.83-1.2,1.85-1.2,3.05,0,1.17.4,2.17,1.2,3,.77.9,1.7,1.35,2.8,1.35,1.2,0,2.2-.45,3-1.35.7-.77,1.08-1.65,1.15-2.65v-.35c0-1.2-.38-2.22-1.15-3.05-.63-.67-1.4-1.07-2.3-1.2M39,34.45c-.47-.67-.7-1.5-.7-2.5s.23-1.85.7-2.55c.47-.7,1.03-1.05,1.7-1.05s1.23.35,1.7,1.05c.47.7.7,1.55.7,2.55s-.23,1.83-.7,2.5c-.47.73-1.03,1.1-1.7,1.1-.67,0-1.23-.37-1.7-1.1Z" fill="#fff" stroke-width="0"/></g><g id="head_0_Layer0_0_MEMBER_3_MEMBER_1_FILL"><path d="M47.65,24.95v-2.45l-9.35-1.1v2.05l9.35,1.5Z" fill="#bf7958" stroke-width="0"/></g><g id="head_0_Layer0_0_MEMBER_3_MEMBER_2_FILL"><path d="M18.55,24.55v2.45l9.35-1.5v-2.1l-9.35,1.15Z" fill="#bf7958" stroke-width="0"/></g><g id="head_0_Layer0_0_MEMBER_3_MEMBER_3_FILL"><path d="M26.65,40.35c-.07.17-.07.38,0,.65.03.33.15.68.35,1.05.17.23.35.48.55.75h7.8v-3.2h-7.65c-.23,0-.45.08-.65.25-.23.1-.37.27-.4.5Z" fill="#fff" stroke-width="0"/><path d="M38.5,39.6h-3.15v3.2h-7.8c.2.37.47.67.8.9,1.3,1.27,2.88,1.9,4.75,1.9s3.37-.62,4.7-1.85l.1-.05c.5-.47.92-1.02,1.25-1.65.2-.37.35-.72.45-1.05.03-.27.02-.48-.05-.65-.07-.23-.2-.4-.4-.5-.2-.17-.42-.25-.65-.25Z" fill="#bf7958" stroke-width="0"/></g><g id="head_0_Layer0_1_FILL"><path d="M52.5,33.15l1.15-9.35c-7.73.37-15.85-2.4-24.35-8.3,3.17,9.57,10.9,15.45,23.2,17.65Z" fill="#db855c" stroke-width="0"/><path d="M53.65,23.8l1.15-9.3H11.4l.65,7.7c7.17-.13,12.92-2.37,17.25-6.7,8.5,5.9,16.62,8.67,24.35,8.3Z" fill="#bf7958" stroke-width="0"/></g><g id="head_0_Layer0_2_FILL"><path d="M50.7,14.45c-.53-.73-1.2-1.45-2-2.15-3.7-3.13-8.9-4.7-15.6-4.7s-11.88,1.55-15.55,4.65c-.23.17-.43.37-.6.6-.6.47-1.08,1-1.45,1.6-.4.53-.45,1.18-.15,1.95,4.3-2.47,10.22-3.7,17.75-3.7s13.37,1.22,17.7,3.65c.3-.73.27-1.37-.1-1.9Z" fill="#71a2be" stroke-width="0"/></g></g></g></svg>