<?xml version="1.0" encoding="UTF-8"?><svg id="Calque_2" xmlns="http://www.w3.org/2000/svg" xmlns:xlink="http://www.w3.org/1999/xlink" viewBox="0 0 66.77 93.76"><defs><radialGradient id="Dégradé_sans_nom_9" cx="30.49" cy="605.7" fx="30.49" fy="605.7" r="13.59" gradientTransform="translate(-12.17 653.62) scale(1.51 -1)" gradientUnits="userSpaceOnUse"><stop offset="0" stop-color="#000" stop-opacity=".3"/><stop offset="1" stop-color="#000" stop-opacity="0"/></radialGradient></defs><g id="Calque_1-2"><g id="poses"><g id="leg_0_Layer0_0_FILL"><path d="M46.68,84.76l.15-5h-11.9l-.15,5h11.9Z" fill="#4c4eaa" stroke-width="0"/><path d="M52.38,90.76l-5.75-6h-11.85l-.25,6h17.85Z" fill="#fff" stroke-width="0"/><path d="M52.28,93.76l.1-3h-17.85l-.15,3h17.9Z" fill="#eea160" stroke-width="0"/><path d="M47.28,70.56c0-1.6-.63-2.97-1.9-4.1-1.23-1.13-2.75-1.7-4.55-1.7s-3.28.57-4.55,1.7c-1.27,1.13-1.9,2.5-1.9,4.1l.55,9.2h11.9l.45-9.2Z" fill="#676ac6" stroke-width="0"/></g><g id="leg_0_Layer0_0_FILL-2"><path d="M20.08,84.76l-.15-5h11.9l.15,5h-11.9Z" fill="#4c4eaa" stroke-width="0"/><path d="M14.38,90.76l5.75-6h11.85l.25,6H14.38Z" fill="#fff" stroke-width="0"/><path d="M14.48,93.76l-.1-3h17.85l.15,3H14.48Z" fill="#eea160" stroke-width="0"/><path d="M19.48,70.56c0-1.6.63-2.97,1.9-4.1,1.23-1.13,2.75-1.7,4.55-1.7s3.28.57,4.55,1.7c1.27,1.13,1.9,2.5,1.9,4.1l-.55,9.2h-11.9l-.45-9.2Z" fill="#676ac6" stroke-width="0"/></g><g id="arm_0_Layer0_0_FILL"><path d="M64.28,62.21c-.83-2.3-1.9-4.53-3.2-6.7-3.73.9-7.15,2.97-10.25,6.2.57.9,1.07,1.82,1.5,2.75,1.03,2.13,1.68,4.43,1.95,6.9.17,1.6.88,2.92,2.15,3.95,1.3,1,2.77,1.43,4.4,1.3,1.6-.2,2.92-.95,3.95-2.25,1.03-1.23,1.47-2.68,1.3-4.35-.23-1.93-.6-3.78-1.1-5.55-.2-.77-.43-1.52-.7-2.25Z" fill="#bf7958" stroke-width="0"/><path d="M50.93,46.61c-1.63.03-3.03.63-4.2,1.8-1.13,1.2-1.67,2.6-1.6,4.2,0,1.63.57,3.02,1.7,4.15,1.6,1.53,2.93,3.18,4,4.95,3.1-3.23,6.52-5.3,10.25-6.2-1.63-2.57-3.62-4.98-5.95-7.25-1.17-1.07-2.57-1.62-4.2-1.65Z" fill="#e7f3fc" stroke-width="0"/></g><g id="arm_0_Layer0_1_FILL"><path d="M63.53,56.41l-2.05-3.6-12.9,7.5,2,3.55,12.95-7.45Z" fill="#bfd4e5" stroke-width="0"/></g><g id="arm_0_Layer0_0_FILL-2"><path d="M2.48,62.21c.83-2.3,1.9-4.53,3.2-6.7,3.73.9,7.15,2.97,10.25,6.2-.57.9-1.07,1.82-1.5,2.75-1.03,2.13-1.68,4.43-1.95,6.9-.17,1.6-.88,2.92-2.15,3.95-1.3,1-2.77,1.43-4.4,1.3-1.6-.2-2.92-.95-3.95-2.25-1.03-1.23-1.47-2.68-1.3-4.35.23-1.93.6-3.78,1.1-5.55.2-.77.43-1.52.7-2.25Z" fill="#bf7958" stroke-width="0"/><path d="M15.83,46.61c1.63.03,3.03.63,4.2,1.8,1.13,1.2,1.67,2.6,1.6,4.2,0,1.63-.57,3.02-1.7,4.15-1.6,1.53-2.93,3.18-4,4.95-3.1-3.23-6.52-5.3-10.25-6.2,1.63-2.57,3.62-4.98,5.95-7.25,1.17-1.07,2.57-1.62,4.2-1.65Z" fill="#e7f3fc" stroke-width="0"/></g><g id="arm_0_Layer0_1_FILL-2"><path d="M3.23,56.41l2.05-3.6,12.9,7.5-2,3.55-12.95-7.45Z" fill="#bfd4e5" stroke-width="0"/></g><g id="body_0_Layer0_0_FILL"><path d="M47.98,70.66v-4.95h-30.05v4.95h30.05Z" fill="#bfd4e5" stroke-width="0"/><path d="M46.48,75.86c.93-1.27,1.43-3,1.5-5.2h-30.05c.07,2.2.57,3.93,1.5,5.2h27.05Z" fill="#676ac6" stroke-width="0"/><path d="M51.18,52.06c.7-3.6-.17-5.33-2.6-5.2h-31.3c-2.43-.13-3.3,1.6-2.6,5.2l3.25,13.65h30.05l3.2-13.65Z" fill="#e7f3fc" stroke-width="0"/></g><g id="body_0_Layer0_0_MEMBER_0_FILL"><path d="M40.98,39.41c-2.1-1.7-4.62-2.55-7.55-2.55s-5.45.85-7.55,2.55c-2.07,1.8-3.1,3.95-3.1,6.45,0,.17.02.33.05.5.1,2.27,1.12,4.2,3.05,5.8,2.1,1.8,4.62,2.7,7.55,2.7s5.45-.9,7.55-2.7c1.93-1.6,2.95-3.53,3.05-5.8.03-.17.05-.33.05-.5,0-2.5-1.03-4.65-3.1-6.45Z" fill="#a8603f" stroke-width="0"/></g><g id="body_0_Layer0_0_MEMBER_1_FILL"><path d="M30.23,65.91l-14.1,1.25c.27,1.63.55,3.37.85,5.2l12.45-1.5c.33-1.53.6-3.18.8-4.95Z" fill="#d78b49" stroke-width="0"/><path d="M30.23,65.91c.23-2.33.32-4.85.25-7.55-4.5-2.83-8.07-7.13-10.7-12.9l-4.55-.85c-1.37,2.47-1.07,9.98.9,22.55l14.1-1.25Z" fill="#eea160" stroke-width="0"/></g><g id="body_0_Layer0_0_MEMBER_2_FILL"><path d="M50.23,67.16l-14.1-1.25c.2,1.77.47,3.42.8,4.95l12.45,1.5c.3-1.83.58-3.57.85-5.2Z" fill="#d78b49" stroke-width="0"/><path d="M35.88,58.36c-.07,2.7.02,5.22.25,7.55l14.1,1.25c1.97-12.57,2.27-20.08.9-22.55l-4.55.85c-2.63,5.77-6.2,10.07-10.7,12.9Z" fill="#eea160" stroke-width="0"/></g><g id="body_0_Layer0_0_MEMBER_3_FILL"><path d="M20.33,45.86l-2.05,3.6,13.1,7.6,2.05-3.65-13.1-7.55M46.53,45.86l-13.1,7.55,2.05,3.65,13.1-7.6-2.05-3.6Z" fill="#bfd4e5" stroke-width="0"/><path d="M35.48,57.06l-2.05-3.65-2.05,3.65h4.1Z" fill="#e7f3fc" stroke-width="0"/></g><g id="hand_0_Layer0_0_FILL"><path d="M50.53,81.31l-.05-.95c.33-4.13,1.6-7.33,3.8-9.6-5.8,4.3-7.07,7.83-3.8,10.6l.05-.05Z" fill="#a8603f" stroke-width="0"/><path d="M66.73,72.06c-.03-.9-.53-1.35-1.5-1.35l-10.95.05c-2.2,2.27-3.47,5.47-3.8,9.6l.05.95-.05.05c-.03,1.1-.03,2.27,0,3.5v.4c0,.93.72,1.53,2.15,1.8,2.1.47,4.15.68,6.15.65,5.67-.03,8.32-4.95,7.95-14.75v-.9Z" fill="#bf7958" stroke-width="0"/></g><g id="hand_0_Layer0_0_FILL-2"><path d="M16.23,81.31l.05-.95c-.33-4.13-1.6-7.33-3.8-9.6,5.8,4.3,7.07,7.83,3.8,10.6l-.05-.05Z" fill="#a8603f" stroke-width="0"/><path d="M.03,72.06c.03-.9.53-1.35,1.5-1.35l10.95.05c2.2,2.27,3.47,5.47,3.8,9.6l-.05.95.05.05c.03,1.1.03,2.27,0,3.5v.4c0,.93-.72,1.53-2.15,1.8-2.1.47-4.15.68-6.15.65-5.67-.03-8.32-4.95-7.95-14.75v-.9Z" fill="#bf7958" stroke-width="0"/></g><g id="shadow_0_Layer0_0_FILL"><path d="M48.03,38.36c-3.92-2.6-8.67-3.9-14.24-3.9s-10.38,1.3-14.4,3.9c-3.92,2.67-5.88,5.85-5.88,9.55s1.96,6.85,5.88,9.45c4.02,2.67,8.82,4,14.4,4s10.33-1.33,14.24-4c4.02-2.6,6.03-5.75,6.03-9.45s-2.01-6.88-6.03-9.55Z" fill="url(#Dégradé_sans_nom_9)" stroke-width="0"/></g><g id="head_0_Layer0_0_FILL"><path d="M47.88,4.96l-2.9-4.55C35.25-.35,26.13-.05,17.63,1.31c-4.77.67-6.93,2.93-6.5,6.8l.2,1.7c.63-2.37,2.75-3.8,6.35-4.3,8.5-1.33,17.62-1.62,27.35-.85l2.85.3M58.38,9.36l.15-1.25c.47-3.77-1.35-6.03-5.45-6.8l-4.55,3.75,4.6.45c2.87.53,4.62,1.82,5.25,3.85Z" fill="#454a51" stroke-width="0"/><path d="M53.13,5.51l-4.6-.45-.4.3-.25-.4-2.85-.3c-9.73-.77-18.85-.48-27.35.85-3.6.5-5.72,1.93-6.35,4.3l2.25,19.4c.37,2.9,2.27,4.35,5.7,4.35h31.1c3.47,0,5.37-1.45,5.7-4.35l2.3-19.85c-.63-2.03-2.38-3.32-5.25-3.85Z" fill="#3c3e41" stroke-width="0"/></g><g id="head_0_Layer0_1_FILL"><path d="M10.58,28.76c-1.57,1.57-2.35,3.47-2.35,5.7s.78,4.13,2.35,5.7c1.6,1.63,3.48,2.45,5.65,2.45s4.1-.82,5.7-2.45c1.53-1.57,2.3-3.47,2.3-5.7s-.77-4.13-2.3-5.7c-1.6-1.63-3.5-2.45-5.7-2.45s-4.05.82-5.65,2.45M12.88,37.91c-.93-.93-1.4-2.08-1.4-3.45s.47-2.45,1.4-3.45c.93-.93,2.05-1.4,3.35-1.4,1.37,0,2.52.47,3.45,1.4.93,1,1.4,2.15,1.4,3.45,0,1.37-.47,2.52-1.4,3.45-.93.97-2.08,1.45-3.45,1.45s-2.42-.48-3.35-1.45M47.58,28.76c-1.57,1.57-2.35,3.47-2.35,5.7s.78,4.13,2.35,5.7c1.6,1.63,3.48,2.45,5.65,2.45s4.1-.82,5.7-2.45c1.53-1.57,2.3-3.47,2.3-5.7s-.77-4.13-2.3-5.7c-1.6-1.63-3.5-2.45-5.7-2.45s-4.05.82-5.65,2.45M49.88,31.01c.93-.93,2.05-1.4,3.35-1.4s2.48.47,3.45,1.4c.93,1,1.4,2.15,1.4,3.45,0,1.37-.47,2.52-1.4,3.45-.97.97-2.12,1.45-3.45,1.45s-2.42-.48-3.35-1.45c-.97-.93-1.45-2.08-1.45-3.45s.48-2.45,1.45-3.45Z" fill="#bf7958" stroke-width="0"/><path d="M11.48,34.46c0,1.37.47,2.52,1.4,3.45.93.97,2.05,1.45,3.35,1.45,1.37,0,2.52-.48,3.45-1.45.93-.93,1.4-2.08,1.4-3.45,0-1.3-.47-2.45-1.4-3.45-.93-.93-2.08-1.4-3.45-1.4s-2.42.47-3.35,1.4c-.93,1-1.4,2.15-1.4,3.45M53.23,29.61c-1.3,0-2.42.47-3.35,1.4-.97,1-1.45,2.15-1.45,3.45,0,1.37.48,2.52,1.45,3.45.93.97,2.05,1.45,3.35,1.45s2.48-.48,3.45-1.45c.93-.93,1.4-2.08,1.4-3.45s-.47-2.45-1.4-3.45c-.97-.93-2.12-1.4-3.45-1.4Z" fill="#a8603f" stroke-width="0"/></g><g id="head_0_Layer0_2_FILL"><path d="M46.93,48.01c3.6-.47,5.63-2.4,6.1-5.8l2.65-26H13.83l3.2,31.8h29.9Z" fill="#bf7958" stroke-width="0"/></g><g id="head_0_Layer0_3_FILL"><path d="M22.28,31.86c0,1.17.37,2.17,1.1,3,.8.9,1.8,1.35,3,1.35,1.13,0,2.08-.45,2.85-1.35.77-.83,1.15-1.83,1.15-3s-.38-2.17-1.15-3c-.77-.87-1.72-1.3-2.85-1.3-1.2,0-2.2.43-3,1.3-.73.83-1.1,1.83-1.1,3M24.78,32.01v-.25c.03-.7.27-1.3.7-1.8.47-.53,1.03-.8,1.7-.8.7,0,1.28.27,1.75.8.43.5.67,1.1.7,1.8v.25c-.03.67-.27,1.25-.7,1.75-.47.53-1.05.8-1.75.8-.67,0-1.23-.27-1.7-.8-.43-.5-.67-1.08-.7-1.75M40.33,34.86c.83.9,1.83,1.35,3,1.35s2.1-.45,2.8-1.35c.83-.83,1.25-1.83,1.25-3,0-1.17-.42-2.17-1.25-3-.7-.87-1.63-1.3-2.8-1.3s-2.17.43-3,1.3c-.73.83-1.1,1.83-1.1,3s.37,2.17,1.1,3M43.88,29.96c.47.5.72,1.1.75,1.8v.25c-.03.67-.28,1.25-.75,1.75-.43.53-.98.8-1.65.8-.67,0-1.27-.27-1.8-.8-.4-.5-.62-1.08-.65-1.75v-.35c.03-.63.25-1.2.65-1.7.53-.53,1.13-.8,1.8-.8.67,0,1.22.27,1.65.8Z" fill="#fff" stroke-width="0"/><path d="M24.78,31.76v.25c.03.67.27,1.25.7,1.75.47.53,1.03.8,1.7.8.7,0,1.28-.27,1.75-.8.43-.5.67-1.08.7-1.75v-.25c-.03-.7-.27-1.3-.7-1.8-.47-.53-1.05-.8-1.75-.8-.67,0-1.23.27-1.7.8-.43.5-.67,1.1-.7,1.8M44.63,31.76c-.03-.7-.28-1.3-.75-1.8-.43-.53-.98-.8-1.65-.8-.67,0-1.27.27-1.8.8-.4.5-.62,1.07-.65,1.7v.35c.03.67.25,1.25.65,1.75.53.53,1.13.8,1.8.8.67,0,1.22-.27,1.65-.8.47-.5.72-1.08.75-1.75v-.25Z" fill="#3c3e41" stroke-width="0"/></g><g id="head_0_Layer0_3_MEMBER_0_FILL"><path d="M31.83,28.71l.2-2.85-10.8-.5-.15,2.85,10.75.5M38.13,25.86l.2,2.85,10.75-.5-.15-2.85-10.8.5Z" fill="#3c3e41" stroke-width="0"/></g><g id="head_0_Layer0_3_MEMBER_1_FILL"><path d="M34.53,36.71c-2.37,0-4.37.48-6,1.45-1.53.87-2.4,1.9-2.6,3.1-.07.17-.07.35,0,.55.07.17.17.32.3.45s.3.22.5.25c2.87.43,5.57.1,8.1-1,2.5,1.1,5.2,1.43,8.1,1,.2-.03.37-.12.5-.25s.23-.28.3-.45c.07-.2.08-.38.05-.55-.23-1.2-1.12-2.23-2.65-3.1-1.67-.97-3.67-1.45-6-1.45h-.6Z" fill="#3c3e41" stroke-width="0"/></g><g id="head_0_Layer0_3_MEMBER_2_FILL"><path d="M37.33,36.61c.67-.47,1-1.02,1-1.65,0-.6-.33-1.15-1-1.65-.67-.43-1.48-.65-2.45-.65s-1.73.22-2.4.65c-.67.5-1,1.05-1,1.65,0,.63.33,1.18,1,1.65.67.5,1.47.75,2.4.75s1.78-.25,2.45-.75Z" fill="#955435" stroke-width="0"/></g><g id="head_0_Layer0_4_FILL"><path d="M14.63,16.71h-.05c-.67.1-1.22.43-1.65,1-.43.5-.6,1.08-.5,1.75l1.9,16c.07.63.37,1.18.9,1.65.53.4,1.13.55,1.8.45h.05c.67-.07,1.2-.37,1.6-.9s.57-1.15.5-1.85l-1.9-15.9c-.1-.7-.42-1.25-.95-1.65-.5-.4-1.07-.58-1.7-.55M53.13,17.26c-.5.4-.8.95-.9,1.65l-1.9,15.9c-.07.7.1,1.32.5,1.85.4.53.93.83,1.6.9h.05c.63.1,1.22-.05,1.75-.45.57-.47.88-1.02.95-1.65l1.9-16c.1-.67-.07-1.25-.5-1.75-.43-.57-.98-.9-1.65-1h-.05c-.67-.03-1.25.15-1.75.55Z" fill="#3c3e41" stroke-width="0"/></g><g id="head_0_Layer0_5_FILL"><path d="M49.88,20.11c4.27-1.37,6.4-2.95,6.4-4.75s-2.13-3.22-6.4-4.35c-4.2-1.13-9.32-1.62-15.35-1.45-5.97.2-11.08.98-15.35,2.35-4.23,1.4-6.35,2.98-6.35,4.75s2.12,3.25,6.35,4.35c4.27,1.17,9.38,1.65,15.35,1.45,6.03-.17,11.15-.95,15.35-2.35Z" fill="#3c3e41" stroke-width="0"/></g></g></g></svg>