<?xml version="1.0" encoding="UTF-8"?><svg id="Calque_2" xmlns="http://www.w3.org/2000/svg" xmlns:xlink="http://www.w3.org/1999/xlink" viewBox="0 0 66.77 105.75"><defs><radialGradient id="Dégradé_sans_nom_9" cx="30.49" cy="617.69" fx="30.49" fy="617.69" r="13.59" gradientTransform="translate(-12.17 677.59) scale(1.51 -1)" gradientUnits="userSpaceOnUse"><stop offset="0" stop-color="#000" stop-opacity=".3"/><stop offset="1" stop-color="#000" stop-opacity="0"/></radialGradient></defs><g id="Calque_1-2"><g id="poses"><g id="leg_0_Layer0_0_FILL"><path d="M46.63,96.75h.05l.15-5h-11.9l-.15,5h11.85Z" fill="#d78b49" stroke-width="0"/><path d="M52.38,102.75l-5.75-6h-11.85l-.4,9h17.9l.1-3Z" fill="#bf7958" stroke-width="0"/><path d="M47.28,82.55c0-1.6-.63-2.97-1.9-4.1-1.23-1.13-2.75-1.7-4.55-1.7s-3.28.57-4.55,1.7c-1.27,1.13-1.9,2.5-1.9,4.1l.55,9.2h11.9l.45-9.2Z" fill="#eea160" stroke-width="0"/></g><g id="leg_0_Layer0_0_FILL-2"><path d="M20.13,96.75h-.05l-.15-5h11.9l.15,5h-11.85Z" fill="#d78b49" stroke-width="0"/><path d="M14.38,102.75l5.75-6h11.85l.4,9H14.48l-.1-3Z" fill="#bf7958" stroke-width="0"/><path d="M19.48,82.55c0-1.6.63-2.97,1.9-4.1,1.23-1.13,2.75-1.7,4.55-1.7s3.28.57,4.55,1.7c1.27,1.13,1.9,2.5,1.9,4.1l-.55,9.2h-11.9l-.45-9.2Z" fill="#eea160" stroke-width="0"/></g><g id="arm_0_Layer0_0_FILL"><path d="M61.08,67.5c-1.63-2.57-3.62-4.98-5.95-7.25-1.17-1.07-2.57-1.62-4.2-1.65-1.63.03-3.03.63-4.2,1.8-1.13,1.2-1.67,2.6-1.6,4.2,0,1.63.57,3.02,1.7,4.15,1.6,1.53,2.93,3.18,4,4.95,3.1-3.23,6.52-5.3,10.25-6.2Z" fill="#3dbf7b" stroke-width="0"/><path d="M64.98,76.45c-.2-.77-.43-1.52-.7-2.25-.83-2.3-1.9-4.53-3.2-6.7-3.73.9-7.15,2.97-10.25,6.2.57.9,1.07,1.82,1.5,2.75h12.65Z" fill="#fff" stroke-width="0"/><path d="M52.33,76.45c1.03,2.13,1.68,4.43,1.95,6.9.17,1.6.88,2.92,2.15,3.95,1.3,1,2.77,1.43,4.4,1.3,1.6-.2,2.92-.95,3.95-2.25,1.03-1.23,1.47-2.68,1.3-4.35-.23-1.93-.6-3.78-1.1-5.55h-12.65Z" fill="#ffd7b1" stroke-width="0"/></g><g id="arm_0_Layer0_0_MEMBER_0_FILL"><path d="M63.53,68.4l-2.05-3.6-12.9,7.5,2,3.55,12.95-7.45Z" fill="#25a863" stroke-width="0"/></g><g id="arm_0_Layer0_0_FILL-2"><path d="M5.68,67.5c1.63-2.57,3.62-4.98,5.95-7.25,1.17-1.07,2.57-1.62,4.2-1.65,1.63.03,3.03.63,4.2,1.8,1.13,1.2,1.67,2.6,1.6,4.2,0,1.63-.57,3.02-1.7,4.15-1.6,1.53-2.93,3.18-4,4.95-3.1-3.23-6.52-5.3-10.25-6.2Z" fill="#3dbf7b" stroke-width="0"/><path d="M1.78,76.45c.2-.77.43-1.52.7-2.25.83-2.3,1.9-4.53,3.2-6.7,3.73.9,7.15,2.97,10.25,6.2-.57.9-1.07,1.82-1.5,2.75H1.78Z" fill="#fff" stroke-width="0"/><path d="M14.43,76.45c-1.03,2.13-1.68,4.43-1.95,6.9-.17,1.6-.88,2.92-2.15,3.95-1.3,1-2.77,1.43-4.4,1.3-1.6-.2-2.92-.95-3.95-2.25-1.03-1.23-1.47-2.68-1.3-4.35.23-1.93.6-3.78,1.1-5.55h12.65Z" fill="#ffd7b1" stroke-width="0"/></g><g id="arm_0_Layer0_0_MEMBER_0_FILL-2"><path d="M3.23,68.4l2.05-3.6,12.9,7.5-2,3.55-12.95-7.45Z" fill="#25a863" stroke-width="0"/></g><g id="body_0_Layer0_0_FILL"><path d="M47.93,77.7h-30.05v4.95h30.05v-4.95Z" fill="#bf7958" stroke-width="0"/><path d="M17.88,82.65c.07,2.2.57,3.93,1.5,5.2h27.05c.93-1.27,1.43-3,1.5-5.2h-30.05Z" fill="#eea160" stroke-width="0"/><path d="M47.93,77.7l3.2-13.65c.7-3.6-.17-5.33-2.6-5.2h-31.3c-2.43-.13-3.3,1.6-2.6,5.2l3.25,13.65h30.05Z" fill="#3dbf7b" stroke-width="0"/></g><g id="body_0_Layer0_1_FILL"><path d="M15.83,74.8l4.9,1.35,3.9-14.55h-5.25l-3.55,13.2M46.03,76.15l4.9-1.35-3.55-13.2h-5.25l3.9,14.55Z" fill="#bf7958" stroke-width="0"/></g><g id="body_0_Layer0_2_FILL"><path d="M43.38,57.85c0-2.5-1.02-4.65-3.05-6.45-2.07-1.7-4.55-2.55-7.45-2.55s-5.38.85-7.45,2.55c-2.03,1.8-3.05,3.95-3.05,6.45,0,.17.02.33.05.5.1,2.27,1.1,4.2,3,5.8,2.07,1.8,4.55,2.7,7.45,2.7s5.38-.9,7.45-2.7c1.9-1.6,2.9-3.53,3-5.8.03-.17.05-.33.05-.5Z" fill="#f0c49a" stroke-width="0"/></g><g id="body_0_Layer0_3_FILL"><path d="M20.28,57.85l-2.05,3.6,13.1,7.6,2.05-3.65-13.1-7.55M46.48,57.85l-13.1,7.55,2.05,3.65,13.1-7.6-2.05-3.6Z" fill="#25a863" stroke-width="0"/><path d="M35.43,69.05l-2.05-3.65-2.05,3.65h4.1Z" fill="#3dbf7b" stroke-width="0"/></g><g id="hand_0_Layer0_0_FILL"><path d="M50.53,93.3l-.05-.95c.33-4.13,1.6-7.33,3.8-9.6-5.8,4.3-7.07,7.83-3.8,10.6l.05-.05Z" fill="#f0c49a" stroke-width="0"/><path d="M66.73,84.05c-.03-.9-.53-1.35-1.5-1.35l-10.95.05c-2.2,2.27-3.47,5.47-3.8,9.6l.05.95-.05.05c-.03,1.1-.03,2.27,0,3.5v.4c0,.93.72,1.53,2.15,1.8,2.1.47,4.15.68,6.15.65,5.67-.03,8.32-4.95,7.95-14.75v-.9Z" fill="#ffd7b1" stroke-width="0"/></g><g id="hand_0_Layer0_0_FILL-2"><path d="M16.23,93.3l.05-.95c-.33-4.13-1.6-7.33-3.8-9.6,5.8,4.3,7.07,7.83,3.8,10.6l-.05-.05Z" fill="#f0c49a" stroke-width="0"/><path d="M.03,84.05c.03-.9.53-1.35,1.5-1.35l10.95.05c2.2,2.27,3.47,5.47,3.8,9.6l-.05.95.05.05c.03,1.1.03,2.27,0,3.5v.4c0,.93-.72,1.53-2.15,1.8-2.1.47-4.15.68-6.15.65-5.67-.03-8.32-4.95-7.95-14.75v-.9Z" fill="#ffd7b1" stroke-width="0"/></g><g id="shadow_0_Layer0_0_FILL"><path d="M48.03,50.35c-3.92-2.6-8.67-3.9-14.24-3.9s-10.38,1.3-14.4,3.9c-3.92,2.67-5.88,5.85-5.88,9.55s1.96,6.85,5.88,9.45c4.02,2.67,8.82,4,14.4,4s10.33-1.33,14.24-4c4.02-2.6,6.03-5.75,6.03-9.45s-2.01-6.88-6.03-9.55Z" fill="url(#Dégradé_sans_nom_9)" stroke-width="0"/></g><g id="head_0_Layer0_0_FILL"><path d="M11.08,40.75c-1.57,1.57-2.35,3.47-2.35,5.7s.78,4.13,2.35,5.7c1.6,1.6,3.48,2.4,5.65,2.4s4.1-.8,5.7-2.4c1.53-1.57,2.3-3.47,2.3-5.7s-.77-4.13-2.3-5.7c-1.6-1.63-3.5-2.45-5.7-2.45s-4.05.82-5.65,2.45M13.38,49.9c-.93-.93-1.4-2.08-1.4-3.45s.47-2.45,1.4-3.45c.9-.93,2.02-1.4,3.35-1.4s2.52.47,3.45,1.4c.93,1,1.4,2.15,1.4,3.45,0,1.37-.47,2.52-1.4,3.45-.93.97-2.08,1.45-3.45,1.45s-2.45-.48-3.35-1.45M53.78,38.3c-2.17,0-4.05.82-5.65,2.45-1.57,1.57-2.35,3.47-2.35,5.7s.78,4.13,2.35,5.7c1.6,1.6,3.48,2.4,5.65,2.4s4.1-.8,5.7-2.4c1.53-1.57,2.3-3.47,2.3-5.7,0-2.23-.77-4.13-2.3-5.7-1.6-1.63-3.5-2.45-5.7-2.45M53.78,51.35c-1.33,0-2.45-.48-3.35-1.45-.97-.93-1.45-2.08-1.45-3.45s.48-2.45,1.45-3.45c.9-.93,2.02-1.4,3.35-1.4s2.48.47,3.45,1.4c.93,1,1.4,2.15,1.4,3.45,0,1.37-.47,2.52-1.4,3.45-.97.97-2.12,1.45-3.45,1.45Z" fill="#ffd7b1" stroke-width="0"/><path d="M11.98,46.45c0,1.37.47,2.52,1.4,3.45.9.97,2.02,1.45,3.35,1.45s2.52-.48,3.45-1.45c.93-.93,1.4-2.08,1.4-3.45,0-1.3-.47-2.45-1.4-3.45-.93-.93-2.08-1.4-3.45-1.4s-2.45.47-3.35,1.4c-.93,1-1.4,2.15-1.4,3.45M50.43,49.9c.9.97,2.02,1.45,3.35,1.45s2.48-.48,3.45-1.45c.93-.93,1.4-2.08,1.4-3.45s-.47-2.45-1.4-3.45c-.97-.93-2.12-1.4-3.45-1.4s-2.45.47-3.35,1.4c-.97,1-1.45,2.15-1.45,3.45,0,1.37.48,2.52,1.45,3.45Z" fill="#e7b687" stroke-width="0"/></g><g id="head_0_Layer0_1_FILL"><path d="M47.48,60.05c3.6-.5,5.65-2.45,6.15-5.85l2.65-26.2H14.23l3.25,32.05h30Z" fill="#ffd7b1" stroke-width="0"/></g><g id="head_0_Layer0_2_FILL"><path d="M55.63,7.6l-12.55,12.15c-11.4-4.27-22.87-2.57-34.4,5.1l7.95,11.55v-5.15c.53-.1,1.07-.22,1.6-.35.1.03.2.07.3.1,3.5,1.57,7.75,2.35,12.75,2.35s9.2-.78,12.7-2.35c.97-.43,1.8-.87,2.5-1.3,3.1.33,6.2.85,9.3,1.55v5.75l4.95-9.6c1.3-3,2.1-5.88,2.4-8.65-.6-4.1-3.1-7.82-7.5-11.15Z" fill="#bf7958" stroke-width="0"/><path d="M43.08,19.75l12.55-12.15c4.4,3.33,6.9,7.05,7.5,11.15.77-7.03-1.73-13.28-7.5-18.75l-12.55,15.25c-11.87-5.53-23.82-3-35.85,7.6l1.45,2c11.53-7.67,23-9.37,34.4-5.1Z" fill="#db855c" stroke-width="0"/></g><g id="head_0_Layer0_3_FILL"><path d="M31.83,37.5l-.95-3.45-9.1,2.4,1,3.45,9.05-2.4Z" fill="#bf7958" stroke-width="0"/></g><g id="head_0_Layer0_4_FILL"><path d="M22.78,44.85c0,1.17.37,2.18,1.1,3.05.8.87,1.8,1.3,3,1.3,1.13,0,2.08-.43,2.85-1.3.8-.87,1.2-1.88,1.2-3.05s-.4-2.17-1.2-3c-.77-.83-1.72-1.25-2.85-1.25-1.2,0-2.2.42-3,1.25-.73.83-1.1,1.83-1.1,3M29.43,42.35c.47.7.7,1.53.7,2.5s-.23,1.83-.7,2.5c-.47.73-1.05,1.1-1.75,1.1s-1.23-.37-1.7-1.1c-.47-.67-.7-1.5-.7-2.5s.23-1.8.7-2.5,1.03-1.05,1.7-1.05c.7,0,1.28.35,1.75,1.05M43.83,40.6c-1.13,0-2.12.42-2.95,1.25-.73.83-1.1,1.83-1.1,3s.37,2.18,1.1,3.05c.83.87,1.82,1.3,2.95,1.3s2.12-.43,2.85-1.3c.83-.87,1.25-1.88,1.25-3.05s-.42-2.17-1.25-3c-.73-.83-1.68-1.25-2.85-1.25M40.33,44.85c0-.97.22-1.8.65-2.5.53-.7,1.12-1.05,1.75-1.05.67,0,1.22.35,1.65,1.05.5.7.75,1.53.75,2.5s-.25,1.83-.75,2.5c-.43.73-.98,1.1-1.65,1.1s-1.22-.37-1.75-1.1c-.43-.67-.65-1.5-.65-2.5Z" fill="#fff" stroke-width="0"/><path d="M30.13,44.85c0-.97-.23-1.8-.7-2.5-.47-.7-1.05-1.05-1.75-1.05s-1.23.35-1.7,1.05-.7,1.53-.7,2.5.23,1.83.7,2.5c.47.73,1.03,1.1,1.7,1.1.7,0,1.28-.37,1.75-1.1.47-.67.7-1.5.7-2.5M40.98,42.35c-.43.7-.65,1.53-.65,2.5s.22,1.83.65,2.5c.53.73,1.12,1.1,1.75,1.1.67,0,1.22-.37,1.65-1.1.5-.67.75-1.5.75-2.5s-.25-1.8-.75-2.5c-.43-.7-.98-1.05-1.65-1.05s-1.22.35-1.75,1.05Z" fill="#bf7958" stroke-width="0"/></g><g id="head_0_Layer0_5_FILL"><path d="M40.18,36.85l-.5,3.55,9.25,1.35.6-3.55-9.35-1.35Z" fill="#bf7958" stroke-width="0"/></g><g id="head_0_Layer0_6_FILL"><path d="M37.83,49.6c.7-.47,1.05-1,1.05-1.6,0-.63-.35-1.2-1.05-1.7-.67-.43-1.48-.65-2.45-.65s-1.73.22-2.4.65c-.63.5-.95,1.07-.95,1.7,0,.6.32,1.13.95,1.6.67.5,1.47.75,2.4.75s1.78-.25,2.45-.75Z" fill="#e7b687" stroke-width="0"/></g><g id="head_0_Layer0_7_FILL"><path d="M12.93,31.5l1.85,15.9c.07.67.38,1.23.95,1.7.53.4,1.13.55,1.8.45h.05c.67-.07,1.2-.37,1.6-.9.4-.57.57-1.18.5-1.85l-1.9-15.9c-.1-.7-.42-1.25-.95-1.65-.5-.4-1.08-.58-1.75-.55h-.05c-.63.1-1.17.43-1.6,1-.43.5-.6,1.1-.5,1.8M53.68,29.25c-.53.4-.85.95-.95,1.65l-1.85,15.9c-.07.67.1,1.28.5,1.85.37.53.88.83,1.55.9h.05c.67.1,1.27-.05,1.8-.45.57-.47.88-1.03.95-1.7l1.9-15.9c.1-.7-.07-1.3-.5-1.8-.43-.57-.98-.9-1.65-1h-.05c-.67-.03-1.25.15-1.75.55Z" fill="#bf7958" stroke-width="0"/></g><g id="head_0_Layer0_8_FILL"><path d="M37.98,55.2v-3.2h-7.65c-.23,0-.45.08-.65.25-.23.1-.37.27-.4.5-.07.17-.07.38,0,.65.03.33.15.68.35,1.05.17.23.35.48.55.75h7.8Z" fill="#fff" stroke-width="0"/><path d="M41.78,52.25c-.2-.17-.42-.25-.65-.25h-3.15v3.2h-7.8c.2.37.47.67.8.9,1.3,1.27,2.88,1.9,4.75,1.9s3.37-.62,4.7-1.85l.1-.05c.5-.47.92-1.02,1.25-1.65.2-.37.35-.72.45-1.05.03-.27.02-.48-.05-.65-.07-.23-.2-.4-.4-.5Z" fill="#bf7958" stroke-width="0"/></g></g></g></svg>