<?xml version="1.0" encoding="UTF-8"?>
<svg id="Calque_2" data-name="Calque 2" xmlns="http://www.w3.org/2000/svg" version="1.1" viewBox="0 0 16.1 24">
  <g id="Calque_1-2" data-name="Calque 1-2">
    <g id="Layer0_94_FILL" data-name="Layer0 94 FILL">
      <path d="M2,12v6h2.05v-4l-2.05-2M14.05,18h.05v-6l-2.05,2v4h2Z" fill="#e9c07f" stroke-width="0"/>
      <path d="M2,18H0v4c0,.57.2,1.05.6,1.45.37.37.83.55,1.4.55h2.05v-2h-2.05v-4M16.05,18.5c.03-.17.05-.33.05-.5h-2.05v4h-2v2h2c.57,0,1.05-.18,1.45-.55.37-.4.55-.88.55-1.45v-3.5M12.05,4h-2v4h4.05v4h2v-4c0-.57-.18-1.03-.55-1.4-.4-.4-.88-.6-1.45-.6h-2.05v-2M.6,6.6c-.4.37-.6.83-.6,1.4v4h2v-4h4.05v-4h-2v2h-2.05c-.57,0-1.03.2-1.4.6Z" fill="#a6583c" stroke-width="0"/>
      <path d="M2,12H0v6h2v-6M16.1,12h-2v6h2v-6Z" fill="#af8f5e" stroke-width="0"/>
      <path d="M12.05,24v-2H4.05v2h8Z" fill="#9a6836" stroke-width="0"/>
      <path d="M12.05,20H4.05v2h8v-2Z" fill="#c48647" stroke-width="0"/>
      <path d="M14.1,8h-2.05v4h-2v8h2v2h2v-4h-2v-4l2.05-2v-4M4.05,8h-2.05v4l2.05,2v4h-2.05v4h2.05v-2h2.25v-8h-2.25v-4Z" fill="#e27952" stroke-width="0"/>
      <path d="M6.05,2v2h4v-2h-4Z" fill="#fc0" stroke-width="0"/>
      <path d="M6.05,4v2h4v-2h-4Z" fill="#7b7360" stroke-width="0"/>
      <path d="M6.05,6v4h4v-4h-4Z" fill="#ffd18b" stroke-width="0"/>
      <path d="M6.05,8h-2v4h2.25v8h3.75v-8h2v-4h-2v2h-4v-2Z" fill="#f5f5f5" stroke-width="0"/>
      <path d="M6.05,0C5.48,0,5.02.2,4.65.6c-.4.37-.6.83-.6,1.4v2h2v-2h4v2h2v-2c0-.57-.18-1.03-.55-1.4C11.1.2,10.62,0,10.05,0h-4Z" fill="#c69d00" stroke-width="0"/>
    </g>
  </g>
</svg>