<?xml version="1.0" encoding="UTF-8"?>
<svg id="Calque_2" data-name="Calque 2" xmlns="http://www.w3.org/2000/svg" version="1.1" viewBox="0 0 20.05 25">
  <g id="Calque_1-2" data-name="Calque 1-2">
    <g id="Layer0_97_FILL" data-name="Layer0 97 FILL">
      <path d="M14.05,15v8h2v-8h-2M4.05,21v2h8v-2h-8M4.05,15v4h4v-4h-4M14.05,9h-4l-2,2-2-2H2v2h2.05v2h12v-4s-2,0-2,0Z" fill="#c48647" stroke-width="0"/>
      <path d="M12.05,19h-1.95v2h1.95v-2M16.05,15v-2h-5.95v2h5.95M6.05,5v4l2,2,2-2v-4h-4Z" fill="#ffd18b" stroke-width="0"/>
      <path d="M12.05,15h-1.95v4h1.95v-4M6.05,9v-4h4v4h2v-4l-2-2h-4l-2,2v4h2Z" fill="#e27952" stroke-width="0"/>
      <path d="M4.05,23h-2c0,.57.2,1.05.6,1.45.37.37.83.55,1.4.55h8c.37,0,.7-.08,1-.25.3.17.63.25,1,.25h2c.57,0,1.05-.18,1.45-.55.37-.4.55-.88.55-1.45v-12h-2v12h-2v-8h-2v8h-8M2.05,7h-.05c-.57,0-1.03.2-1.4.6-.4.37-.6.83-.6,1.4v4h2v-4h.05v-2Z" fill="#9a6836" stroke-width="0"/>
      <path d="M4.05,13h-2.05v8h8.1v-8h-6.05M4.05,19v-4h4v4h-4M14.05,3v6h4v-2h-2V3l-1-1s-1,1-1,1Z" fill="#acb8b8" stroke-width="0"/>
      <path d="M2,13H0v8c0,.57.2,1.05.6,1.45.37.37.83.55,1.4.55h2.05v-2h-2.05v-8M12.65,1.6c-.23.2-.38.43-.45.7l-.15,2.7v4h2V3l1-1,1,1v4h2v2h-2v2h2c.57,0,1.05-.18,1.45-.55.37-.4.55-.88.55-1.45v-2c0-.57-.18-1.03-.55-1.4-.4-.4-.88-.6-1.45-.6v-2c0-.57-.18-1.03-.55-1.4l-1-1C16.1.2,15.62,0,15.05,0s-1.03.2-1.4.6c0,0-1,1-1,1Z" fill="#686d6d" stroke-width="0"/>
      <path d="M2,11v2h2.05v-2h-2.05Z" fill="#e9c07f" stroke-width="0"/>
      <path d="M11.5,1.6c-.4-.4-.88-.6-1.45-.6h-4c-.57,0-1.03.2-1.4.6l-2,2c-.4.37-.6.83-.6,1.4v4h2v-4l2-2h4l2,2,.15-2.7s-.7-.7-.7-.7Z" fill="#a6583c" stroke-width="0"/>
    </g>
  </g>
</svg>