<?xml version="1.0" encoding="UTF-8"?>
<svg id="Calque_2" data-name="Calque 2" xmlns="http://www.w3.org/2000/svg" version="1.1" viewBox="0 0 18.05 25">
  <g id="Calque_1-2" data-name="Calque 1-2">
    <g id="Layer0_88_FILL" data-name="Layer0 88 FILL">
      <path d="M12.05,19H4.05v2h8v-2M6.05,13h-2v2h2v-2M10.05,15h6v-2h-6v2M10.05,5h-4v4l2,2,2-2v-4Z" fill="#ffd18b" stroke-width="0"/>
      <path d="M4.05,21v2h8v-2H4.05M16.05,15h-2v8h2v-8M16.05,13v-4h-6l-2,2-2-2H2v2h2.05v2h2v2h4v-2h6Z" fill="#c48647" stroke-width="0"/>
      <path d="M.05,8.55c-.03.1-.05.23-.05.4v10.15c0,.13.02.27.05.4.07.33.25.65.55.95.37.37.83.55,1.4.55h2.05v-2h-2.05V7c-.57,0-1.03.2-1.4.6-.3.27-.48.58-.55.95Z" fill="#af8f5e" stroke-width="0"/>
      <path d="M4.05,13v-2h-2.05v8h2.05v-6Z" fill="#e9c07f" stroke-width="0"/>
      <path d="M12.05,15H4.05v4h8v-4M6.05,3l-2,2v4h2v-4h4v4h2v-4l-2-2h-4Z" fill="#1ea7e1" stroke-width="0"/>
      <path d="M16.05,9v14h-2v-8h-2v8h-8v-2h-2v2c0,.57.2,1.05.6,1.45.37.37.83.55,1.4.55h8c.37,0,.7-.08,1-.25.3.17.63.25,1,.25h2c.57,0,1.05-.18,1.45-.55.37-.4.55-.88.55-1.45v-14h-2Z" fill="#9a6836" stroke-width="0"/>
      <path d="M15.05,2l-1,1v6h2V3s-1-1-1-1Z" fill="#acb8b8" stroke-width="0"/>
      <path d="M16.5.6C16.1.2,15.62,0,15.05,0s-1.03.2-1.4.6l-1,1c-.23.2-.38.43-.45.7l-.15,2.7v4h2V3l1-1,1,1v6h2V3c0-.57-.18-1.03-.55-1.4,0,0-1-1-1-1Z" fill="#686d6d" stroke-width="0"/>
      <path d="M2.65,3.6c-.4.37-.6.83-.6,1.4v2h-.05v2h2.05v-4l2-2h4l2,2,.15-2.7-.7-.7c-.4-.4-.88-.6-1.45-.6h-4c-.57,0-1.03.2-1.4.6l-2,2Z" fill="#157da8" stroke-width="0"/>
    </g>
  </g>
</svg>