<?xml version="1.0" encoding="UTF-8"?>
<svg id="Calque_2" data-name="Calque 2" xmlns="http://www.w3.org/2000/svg" version="1.1" viewBox="0 0 18.05 25">
  <g id="Calque_1-2" data-name="Calque 1-2">
    <g id="Layer0_105_FILL" data-name="Layer0 105 FILL">
      <path d="M12.05,21v-2H4.05v2h8M16.05,13h-6v2h6v-2M6.05,13h-2v2h2v-2M6.05,9l2,2,2-2v-4h-4v4Z" fill="#ffd18b" stroke-width="0"/>
      <path d="M12.05,23v-2H4.05v2h8M16.05,15h-2v8h2v-8M2,9v2h2.05v2h2v2h4v-2h6v-4h-6l-2,2-2-2H2Z" fill="#c48647" stroke-width="0"/>
      <path d="M12.05,19v-4H4.05v4h8M6.05,3l-2,2v4h2v-4h4v4h2v-4l-2-2h-4Z" fill="#1b914d" stroke-width="0"/>
      <path d="M18.05,9h-2v14h-2v-8h-2v8h-8v-2h-2v2c0,.57.2,1.05.6,1.45.37.37.83.55,1.4.55h8c.37,0,.7-.08,1-.25.3.17.63.25,1,.25h2c.57,0,1.05-.18,1.45-.55.37-.4.55-.88.55-1.45v-14Z" fill="#9a6836" stroke-width="0"/>
      <path d="M16.05,3l-1-1-1,1v6h2V3Z" fill="#acb8b8" stroke-width="0"/>
      <path d="M4.05,13v-2h-2.05v8h2.05v-6Z" fill="#e9c07f" stroke-width="0"/>
      <path d="M2,11v-4c-.57,0-1.03.2-1.4.6-.3.27-.48.58-.55.95C.02,8.65,0,8.78,0,8.95v10.15C0,19.23.02,19.37.05,19.5c.07.33.25.65.55.95.37.37.83.55,1.4.55h2.05v-2h-2.05s0-8,0-8Z" fill="#af8f5e" stroke-width="0"/>
      <path d="M4.05,5l2-2h4l2,2,.15-2.7-.7-.7c-.4-.4-.88-.6-1.45-.6h-4c-.57,0-1.03.2-1.4.6l-2,2c-.4.37-.6.83-.6,1.4v2h-.05v2h2.05v-4Z" fill="#115f32" stroke-width="0"/>
      <path d="M15.05,0C14.48,0,14.02.2,13.65.6l-1,1c-.23.2-.38.43-.45.7l-.15,2.7v4h2V3l1-1,1,1v6h2V3c0-.57-.18-1.03-.55-1.4l-1-1C16.1.2,15.62,0,15.05,0Z" fill="#686d6d" stroke-width="0"/>
    </g>
  </g>
</svg>