<?xml version="1.0" encoding="UTF-8"?><svg id="Calque_2" xmlns="http://www.w3.org/2000/svg" xmlns:xlink="http://www.w3.org/1999/xlink" viewBox="0 0 64.7 90.75"><defs><radialGradient id="Dégradé_sans_nom_9" cx="29.46" cy="602.69" fx="29.46" fy="602.69" r="13.59" gradientTransform="translate(-11.65 647.59) scale(1.51 -1)" gradientUnits="userSpaceOnUse"><stop offset="0" stop-color="#000" stop-opacity=".3"/><stop offset="1" stop-color="#000" stop-opacity="0"/></radialGradient></defs><g id="Calque_1-2"><g id="poses"><g id="leg_0_Layer0_0_FILL"><path d="M51.35,87.75l-5.75-6h-5.8v-4.35c0-.83-.3-1.55-.9-2.15-.6-.6-1.32-.9-2.15-.9h-.05c-.83,0-1.55.3-2.15.9-.3.3-.53.63-.7,1-.13.37-.2.75-.2,1.15l-.3,13.35h17.9l.1-3M36.75,76.1c.4,0,.75.15,1.05.45.3.3.45.65.45,1.05s-.15.75-.45,1.05c-.3.3-.65.45-1.05.45-.4,0-.75-.15-1.05-.45s-.45-.65-.45-1.05.15-.75.45-1.05c.3-.3.65-.45,1.05-.45Z" fill="#334e63" stroke-width="0"/><path d="M37.8,76.55c-.3-.3-.65-.45-1.05-.45s-.75.15-1.05.45c-.3.3-.45.65-.45,1.05s.15.75.45,1.05.65.45,1.05.45c.4,0,.75-.15,1.05-.45.3-.3.45-.65.45-1.05s-.15-.75-.45-1.05M46.25,67.55c0-1.6-.63-2.97-1.9-4.1-1.23-1.13-2.75-1.7-4.55-1.7s-3.28.57-4.55,1.7c-1.27,1.13-1.9,2.5-1.9,4.1l.5,8.7c.17-.37.4-.7.7-1,.6-.6,1.32-.9,2.15-.9h.05c.83,0,1.55.3,2.15.9.6.6.9,1.32.9,2.15v4.35h5.85l.6-14.2Z" fill="#477ca6" stroke-width="0"/></g><g id="leg_0_Layer0_0_FILL-2"><path d="M13.35,87.75l5.75-6h5.8v-4.35c0-.83.3-1.55.9-2.15.6-.6,1.32-.9,2.15-.9h.05c.83,0,1.55.3,2.15.9.3.3.53.63.7,1,.13.37.2.75.2,1.15l.3,13.35H13.45l-.1-3M27.95,76.1c-.4,0-.75.15-1.05.45-.3.3-.45.65-.45,1.05s.15.75.45,1.05c.3.3.65.45,1.05.45.4,0,.75-.15,1.05-.45s.45-.65.45-1.05-.15-.75-.45-1.05c-.3-.3-.65-.45-1.05-.45Z" fill="#334e63" stroke-width="0"/><path d="M26.9,76.55c.3-.3.65-.45,1.05-.45s.75.15,1.05.45c.3.3.45.65.45,1.05s-.15.75-.45,1.05-.65.45-1.05.45c-.4,0-.75-.15-1.05-.45-.3-.3-.45-.65-.45-1.05s.15-.75.45-1.05M18.45,67.55c0-1.6.63-2.97,1.9-4.1,1.23-1.13,2.75-1.7,4.55-1.7s3.28.57,4.55,1.7c1.27,1.13,1.9,2.5,1.9,4.1l-.5,8.7c-.17-.37-.4-.7-.7-1-.6-.6-1.32-.9-2.15-.9h-.05c-.83,0-1.55.3-2.15.9-.6.6-.9,1.32-.9,2.15v4.35h-5.85l-.6-14.2Z" fill="#477ca6" stroke-width="0"/></g><g id="arm_0_Layer0_0_FILL"><path d="M56.5,63.3c-.87,0-1.69-.17-2.45-.5.49,1.87.78,3.87.85,6,.03,1.07.48,1.98,1.35,2.75.8.73,1.77,1.08,2.9,1.05,1.13-.03,2.1-.45,2.9-1.25.73-.83,1.08-1.78,1.05-2.85-.11-3.03-.55-5.87-1.3-8.5-.27.62-.67,1.18-1.2,1.7-1.13,1.07-2.5,1.6-4.1,1.6M56.5,52.05c.69,0,1.32.1,1.9.3-1.94-3.07-4.5-5.72-7.7-7.95-.93-.67-1.97-.92-3.1-.75-1.13.17-2.02.68-2.65,1.55-.7.87-.97,1.85-.8,2.95.2,1.07.75,1.93,1.65,2.6,2.06,1.48,3.78,3.2,5.15,5.15.27-.8.74-1.54,1.4-2.2,1.17-1.1,2.55-1.65,4.15-1.65M55.15,55.7c-.13.13-.25.28-.35.45-.3.43-.45.93-.45,1.5,0,.77.27,1.42.8,1.95.57.53,1.25.8,2.05.8.6,0,1.13-.13,1.6-.4.13-.13.27-.27.4-.4.27-.23.47-.45.6-.65.2-.4.3-.83.3-1.3,0-.77-.3-1.42-.9-1.95-.53-.53-1.2-.8-2-.8-.5,0-.93.1-1.3.3-.27.13-.52.3-.75.5Z" fill="#477ca6" stroke-width="0"/><path d="M61.8,60c.37-.7.55-1.47.55-2.3,0-1.53-.58-2.87-1.75-4-.65-.63-1.38-1.08-2.2-1.35-.58-.2-1.21-.3-1.9-.3-1.6,0-2.98.55-4.15,1.65-.66.66-1.13,1.4-1.4,2.2-.2.57-.3,1.17-.3,1.8,0,1.53.57,2.87,1.7,4,.53.49,1.1.85,1.7,1.1.76.33,1.58.5,2.45.5,1.6,0,2.97-.53,4.1-1.6.53-.52.93-1.08,1.2-1.7M54.8,56.15c.1-.17.22-.32.35-.45.23-.2.48-.37.75-.5.37-.2.8-.3,1.3-.3.8,0,1.47.27,2,.8.6.53.9,1.18.9,1.95,0,.47-.1.9-.3,1.3-.13.2-.33.42-.6.65-.13.13-.27.27-.4.4-.47.27-1,.4-1.6.4-.8,0-1.48-.27-2.05-.8-.53-.53-.8-1.18-.8-1.95,0-.57.15-1.07.45-1.5Z" fill="#334e63" stroke-width="0"/></g><g id="arm_0_Layer0_0_FILL-2"><path d="M8.2,63.3c.87,0,1.69-.17,2.45-.5-.49,1.87-.78,3.87-.85,6-.03,1.07-.48,1.98-1.35,2.75-.8.73-1.77,1.08-2.9,1.05-1.13-.03-2.1-.45-2.9-1.25-.73-.83-1.08-1.78-1.05-2.85.11-3.03.55-5.87,1.3-8.5.27.62.67,1.18,1.2,1.7,1.13,1.07,2.5,1.6,4.1,1.6M8.2,52.05c-.69,0-1.32.1-1.9.3,1.94-3.07,4.5-5.72,7.7-7.95.93-.67,1.97-.92,3.1-.75,1.13.17,2.02.68,2.65,1.55.7.87.97,1.85.8,2.95-.2,1.07-.75,1.93-1.65,2.6-2.06,1.48-3.78,3.2-5.15,5.15-.27-.8-.74-1.54-1.4-2.2-1.17-1.1-2.55-1.65-4.15-1.65M9.55,55.7c.13.13.25.28.35.45.3.43.45.93.45,1.5,0,.77-.27,1.42-.8,1.95-.57.53-1.25.8-2.05.8-.6,0-1.13-.13-1.6-.4-.13-.13-.27-.27-.4-.4-.27-.23-.47-.45-.6-.65-.2-.4-.3-.83-.3-1.3,0-.77.3-1.42.9-1.95.53-.53,1.2-.8,2-.8.5,0,.93.1,1.3.3.27.13.52.3.75.5Z" fill="#477ca6" stroke-width="0"/><path d="M2.9,60c-.37-.7-.55-1.47-.55-2.3,0-1.53.58-2.87,1.75-4,.65-.63,1.38-1.08,2.2-1.35.58-.2,1.21-.3,1.9-.3,1.6,0,2.98.55,4.15,1.65.66.66,1.13,1.4,1.4,2.2.2.57.3,1.17.3,1.8,0,1.53-.57,2.87-1.7,4-.53.49-1.1.85-1.7,1.1-.76.33-1.58.5-2.45.5-1.6,0-2.97-.53-4.1-1.6-.53-.52-.93-1.08-1.2-1.7M9.9,56.15c-.1-.17-.22-.32-.35-.45-.23-.2-.48-.37-.75-.5-.37-.2-.8-.3-1.3-.3-.8,0-1.47.27-2,.8-.6.53-.9,1.18-.9,1.95,0,.47.1.9.3,1.3.13.2.33.42.6.65.13.13.27.27.4.4.47.27,1,.4,1.6.4.8,0,1.48-.27,2.05-.8.53-.53.8-1.18.8-1.95,0-.57-.15-1.07-.45-1.5Z" fill="#334e63" stroke-width="0"/></g><g id="body_0_Layer0_0_FILL"><path d="M19.4,49.95c1.3-1.27,1.95-2.8,1.95-4.6s-.65-3.33-1.95-4.6c-1.27-1.27-2.8-1.9-4.6-1.9s-3.32.63-4.55,1.9c-1.27,1.27-1.9,2.8-1.9,4.6s.63,3.33,1.9,4.6c1.23,1.27,2.75,1.9,4.55,1.9s3.33-.63,4.6-1.9M53.45,49.95c1.27-1.27,1.9-2.8,1.9-4.6s-.63-3.33-1.9-4.6-2.8-1.9-4.6-1.9-3.32.63-4.55,1.9c-1.3,1.27-1.95,2.8-1.95,4.6s.65,3.33,1.95,4.6c1.23,1.27,2.75,1.9,4.55,1.9s3.33-.63,4.6-1.9Z" fill="#334e63" stroke-width="0"/></g><g id="body_0_Layer0_1_FILL"><path d="M45.25,72.85c.93-1.3,1.43-3.05,1.5-5.25h-29.9c.07,2.2.57,3.95,1.5,5.25h26.9Z" fill="#5393c5" stroke-width="0"/><path d="M40.1,62.6c.9-1.47,1.35-3.13,1.35-5,0-2.67-.93-4.95-2.8-6.85-1.9-1.9-4.18-2.85-6.85-2.85s-4.95.95-6.85,2.85c-1.9,1.9-2.85,4.18-2.85,6.85,0,1.87.47,3.53,1.4,5h-6.65v5h29.9v-5h-6.65M36.85,56.05l-1.65,5.25c-.03.13-.12.25-.25.35-.13.1-.28.15-.45.15h-5.25c-.13,0-.27-.05-.4-.15-.17-.1-.27-.22-.3-.35l-1.65-5.25c-.03-.17-.03-.33,0-.5.07-.13.17-.27.3-.4l4.3-3.15c.1-.1.23-.15.4-.15.13,0,.28.05.45.15l4.25,3.15c.1.13.18.27.25.4.03.17.03.33,0,.5Z" fill="#334e63" stroke-width="0"/><path d="M35.2,61.3l1.65-5.25c.03-.17.03-.33,0-.5-.07-.13-.15-.27-.25-.4l-4.25-3.15c-.17-.1-.32-.15-.45-.15-.17,0-.3.05-.4.15l-4.3,3.15c-.13.13-.23.27-.3.4-.03.17-.03.33,0,.5l1.65,5.25c.03.13.13.25.3.35.13.1.27.15.4.15h5.25c.17,0,.32-.05.45-.15.13-.1.22-.22.25-.35Z" fill="#f69" stroke-width="0"/><path d="M50,48.85c.83-3.33.08-5.08-2.25-5.25h-5.35v-.25c.03-.17.05-.33.05-.5,0-2.5-1.02-4.65-3.05-6.45-2.1-1.7-4.62-2.55-7.55-2.55s-5.45.85-7.55,2.55c-2.03,1.8-3.05,3.95-3.05,6.45,0,.17.02.33.05.5,0,.1.02.18.05.25h-5.15c-2.43-.13-3.3,1.62-2.6,5.25l3.25,13.75h6.65c-.93-1.47-1.4-3.13-1.4-5,0-2.67.95-4.95,2.85-6.85,1.9-1.9,4.18-2.85,6.85-2.85s4.95.95,6.85,2.85c1.87,1.9,2.8,4.18,2.8,6.85,0,1.87-.45,3.53-1.35,5h6.65l3.25-13.75Z" fill="#477ca6" stroke-width="0"/></g><g id="hand_0_Layer0_0_FILL"><path d="M57.55,81.35c-.07-.07-.12-.05-.15.05-.07.1-.12.22-.15.35v3.5c0,.1.05.23.15.4.07.03.15.05.25.05,1.87-.03,3.47-.72,4.8-2.05h.05c1.4-1.4,2.13-3.1,2.2-5.1.03-2.03-.62-3.75-1.95-5.15l-.15-.15c-.02.37-.08.74-.2,1.1-.34,1.27-1.07,2.25-2.2,2.95.17.36.25.75.25,1.15-.07.77-.33,1.43-.8,2-.03,0-.08.02-.15.05-.5.53-1.15.82-1.95.85M53,70.25c-.28.06-.56.13-.85.2-1.87.43-3.33,1.52-4.4,3.25-1,1.73-1.28,3.57-.85,5.5v.1c.5,1.83,1.53,3.25,3.1,4.25.1.07.2.1.3.1.07-.03.12-.1.15-.2l1.95-3.05c.07-.07.1-.13.1-.2-.07-.13-.13-.23-.2-.3-.6-.4-1-.97-1.2-1.7v-.1c-.17-.73-.05-1.43.35-2.1.32-.52.72-.91,1.2-1.15-.38-1.09-.43-2.21-.15-3.35.13-.44.29-.85.5-1.25Z" fill="#bfd4e5" stroke-width="0"/><path d="M61.95,70.4c-.67-1.23-1.68-2.07-3.05-2.5-1.33-.4-2.65-.25-3.95.45-.84.5-1.49,1.13-1.95,1.9-.21.4-.37.81-.5,1.25-.28,1.14-.23,2.26.15,3.35.09.22.19.43.3.65.7,1.23,1.73,2.05,3.1,2.45,1.37.37,2.67.22,3.9-.45.09-.05.18-.12.25-.2,1.13-.7,1.86-1.68,2.2-2.95.12-.36.18-.73.2-1.1.11-.97-.11-1.92-.65-2.85Z" fill="#5393c5" stroke-width="0"/></g><g id="hand_0_Layer0_0_FILL-2"><path d="M7.15,81.35c.07-.07.12-.05.15.05.07.1.12.22.15.35v3.5c0,.1-.05.23-.15.4-.07.03-.15.05-.25.05-1.87-.03-3.47-.72-4.8-2.05h-.05C.8,82.25.07,80.55,0,78.55c-.03-2.03.62-3.75,1.95-5.15l.15-.15c.02.37.08.74.2,1.1.34,1.27,1.07,2.25,2.2,2.95-.17.36-.25.75-.25,1.15.07.77.33,1.43.8,2,.03,0,.08.02.15.05.5.53,1.15.82,1.95.85M11.7,70.25c.28.06.56.13.85.2,1.87.43,3.33,1.52,4.4,3.25,1,1.73,1.28,3.57.85,5.5v.1c-.5,1.83-1.53,3.25-3.1,4.25-.1.07-.2.1-.3.1-.07-.03-.12-.1-.15-.2l-1.95-3.05c-.07-.07-.1-.13-.1-.2.07-.13.13-.23.2-.3.6-.4,1-.97,1.2-1.7v-.1c.17-.73.05-1.43-.35-2.1-.32-.52-.72-.91-1.2-1.15.38-1.09.43-2.21.15-3.35-.13-.44-.29-.85-.5-1.25Z" fill="#bfd4e5" stroke-width="0"/><path d="M2.75,70.4c.67-1.23,1.68-2.07,3.05-2.5,1.33-.4,2.65-.25,3.95.45.84.5,1.49,1.13,1.95,1.9.21.4.37.81.5,1.25.28,1.14.23,2.26-.15,3.35-.09.22-.19.43-.3.65-.7,1.23-1.73,2.05-3.1,2.45-1.37.37-2.67.22-3.9-.45-.09-.05-.18-.12-.25-.2-1.13-.7-1.86-1.68-2.2-2.95-.12-.36-.18-.73-.2-1.1-.11-.97.11-1.92.65-2.85Z" fill="#5393c5" stroke-width="0"/></g><g id="shadow_0_Layer0_0_FILL"><path d="M47,35.35c-3.92-2.6-8.67-3.9-14.24-3.9s-10.38,1.3-14.4,3.9c-3.92,2.67-5.88,5.85-5.88,9.55s1.96,6.85,5.88,9.45c4.02,2.67,8.82,4,14.4,4s10.33-1.33,14.24-4c4.02-2.6,6.03-5.75,6.03-9.45s-2.01-6.88-6.03-9.55Z" fill="url(#Dégradé_sans_nom_9)" stroke-width="0"/></g><g id="head_0_Layer0_0_FILL"><path d="M46.05,29.9c3.43-3.4,5.15-7.52,5.15-12.35s-1.72-8.97-5.15-12.4c-3.43-3.43-7.57-5.15-12.4-5.15s-8.97,1.72-12.4,5.15c-3.43,3.43-5.15,7.57-5.15,12.4s1.72,8.95,5.15,12.35c3.43,3.47,7.57,5.2,12.4,5.2s8.97-1.73,12.4-5.2M43.6,17.55c0,2.73-.97,5.07-2.9,7-1.97,1.97-4.32,2.95-7.05,2.95s-5.07-.98-7-2.95c-1.97-1.93-2.95-4.27-2.95-7s.98-5.07,2.95-7c1.93-1.97,4.27-2.95,7-2.95s5.08.98,7.05,2.95c1.93,1.93,2.9,4.27,2.9,7Z" fill="#bfd4e5" stroke-width="0"/><path d="M40.7,24.55c1.93-1.93,2.9-4.27,2.9-7s-.97-5.07-2.9-7c-1.97-1.97-4.32-2.95-7.05-2.95s-5.07.98-7,2.95c-1.97,1.93-2.95,4.27-2.95,7s.98,5.07,2.95,7c1.93,1.97,4.27,2.95,7,2.95s5.08-.98,7.05-2.95Z" fill="#fff" stroke-width="0"/></g><g id="head_0_Layer0_1_FILL"><path d="M18.2,6.55c-.63.37-1.05.92-1.25,1.65l-2.2,8.2c-.2.73-.12,1.45.25,2.15.43.63,1.02,1.05,1.75,1.25h.05c.73.2,1.43.13,2.1-.2.67-.43,1.1-1.02,1.3-1.75l2.15-8.2c.2-.73.1-1.43-.3-2.1-.37-.67-.9-1.1-1.6-1.3h-.05c-.73-.2-1.47-.1-2.2.3Z" fill="#477ca6" stroke-width="0"/></g><g id="head_0_Layer0_2_FILL"><path d="M50.5,8.2c-.2-.73-.62-1.28-1.25-1.65-.73-.4-1.47-.5-2.2-.3h-.05c-.73.2-1.28.63-1.65,1.3-.4.67-.5,1.37-.3,2.1l2.2,8.2c.2.73.63,1.32,1.3,1.75.67.33,1.37.4,2.1.2h.05c.7-.2,1.27-.62,1.7-1.25.37-.7.45-1.42.25-2.15l-2.15-8.2Z" fill="#477ca6" stroke-width="0"/></g><g id="head_0_Layer0_3_FILL"><path d="M9.55,26c-1.57,1.57-2.35,3.45-2.35,5.65s.78,4.07,2.35,5.6c1.6,1.6,3.48,2.4,5.65,2.4s4.1-.8,5.7-2.4c1.53-1.53,2.3-3.4,2.3-5.6s-.77-4.08-2.3-5.65c-1.6-1.6-3.5-2.4-5.7-2.4-2.17,0-4.05.8-5.65,2.4M11.85,35.05c-.93-.93-1.4-2.07-1.4-3.4s.47-2.43,1.4-3.4c.93-.93,2.05-1.4,3.35-1.4,1.37,0,2.52.47,3.45,1.4.93.97,1.4,2.1,1.4,3.4,0,1.33-.47,2.47-1.4,3.4-.93.97-2.08,1.45-3.45,1.45s-2.42-.48-3.35-1.45M46.55,26c-1.57,1.57-2.35,3.45-2.35,5.65s.78,4.07,2.35,5.6c1.6,1.6,3.48,2.4,5.65,2.4s4.1-.8,5.7-2.4c1.53-1.53,2.3-3.4,2.3-5.6s-.77-4.08-2.3-5.65c-1.6-1.6-3.5-2.4-5.7-2.4-2.17,0-4.05.8-5.65,2.4M48.85,28.25c.93-.93,2.05-1.4,3.35-1.4s2.48.47,3.45,1.4c.93.97,1.4,2.1,1.4,3.4s-.47,2.47-1.4,3.4c-.97.97-2.12,1.45-3.45,1.45s-2.42-.48-3.35-1.45c-.97-.93-1.45-2.07-1.45-3.4s.48-2.43,1.45-3.4Z" fill="#5393c5" stroke-width="0"/><path d="M10.45,31.65c0,1.33.47,2.47,1.4,3.4.93.97,2.05,1.45,3.35,1.45,1.37,0,2.52-.48,3.45-1.45.93-.93,1.4-2.07,1.4-3.4,0-1.3-.47-2.43-1.4-3.4-.93-.93-2.08-1.4-3.45-1.4s-2.42.47-3.35,1.4c-.93.97-1.4,2.1-1.4,3.4M52.2,26.85c-1.3,0-2.42.47-3.35,1.4-.97.97-1.45,2.1-1.45,3.4s.48,2.47,1.45,3.4c.93.97,2.05,1.45,3.35,1.45s2.48-.48,3.45-1.45c.93-.93,1.4-2.07,1.4-3.4s-.47-2.43-1.4-3.4c-.97-.93-2.12-1.4-3.45-1.4Z" fill="#477ca6" stroke-width="0"/></g><g id="head_0_Layer0_4_FILL"><path d="M16,45h8c-.03-6.53-3.13-10.77-9.3-12.7l1.3,12.7M45.9,45c3.57-.47,5.6-2.37,6.1-5.7l.9-8.75c-6.03,3.1-9.17,7.92-9.4,14.45h2.4Z" fill="#334e63" stroke-width="0"/><path d="M52.9,30.55l1.75-16.9H12.8l1.9,18.65c6.17,1.93,9.27,6.17,9.3,12.7h19.5c.23-6.53,3.37-11.35,9.4-14.45Z" fill="#5393c5" stroke-width="0"/></g><g id="head_0_Layer0_5_FILL"><path d="M39.65,32.4c1.57-1.57,2.35-3.45,2.35-5.65,0-2.23-.78-4.12-2.35-5.65-1.57-1.57-3.45-2.35-5.65-2.35s-4.12.78-5.65,2.35c-1.57,1.53-2.35,3.42-2.35,5.65s.78,4.08,2.35,5.65c1.53,1.57,3.42,2.35,5.65,2.35s4.08-.78,5.65-2.35M39.35,26.75c0,1.47-.53,2.72-1.6,3.75-1.03,1.07-2.28,1.6-3.75,1.6s-2.78-.53-3.85-1.6c-1.03-1.03-1.55-2.28-1.55-3.75s.52-2.78,1.55-3.85c1.07-1,2.35-1.5,3.85-1.5,1.47,0,2.72.5,3.75,1.5,1.07,1.07,1.6,2.35,1.6,3.85Z" fill="#477ca6" stroke-width="0"/><path d="M37.75,30.5c1.07-1.03,1.6-2.28,1.6-3.75s-.53-2.78-1.6-3.85c-1.03-1-2.28-1.5-3.75-1.5-1.5,0-2.78.5-3.85,1.5-1.03,1.07-1.55,2.35-1.55,3.85s.52,2.72,1.55,3.75c1.07,1.07,2.35,1.6,3.85,1.6s2.72-.53,3.75-1.6M37.1,26.75c0,.6-.22,1.1-.65,1.5-.37.43-.85.65-1.45.65s-1.12-.22-1.55-.65c-.4-.4-.6-.9-.6-1.5s.2-1.12.6-1.55c.43-.4.95-.6,1.55-.6.6,0,1.08.2,1.45.6.43.43.65.95.65,1.55Z" fill="#fc0" stroke-width="0"/><path d="M36.45,28.25c.43-.4.65-.9.65-1.5,0-.6-.22-1.12-.65-1.55-.37-.4-.85-.6-1.45-.6-.6,0-1.12.2-1.55.6-.4.43-.6.95-.6,1.55s.2,1.1.6,1.5c.43.43.95.65,1.55.65s1.08-.22,1.45-.65Z" fill="#fff" stroke-width="0"/></g><g id="head_0_Layer0_6_FILL"><path d="M39.15,38.15c0-.2-.02-.38-.05-.55-.23-.07-.48-.1-.75-.1h-9.45c-.23,0-.47.03-.7.1-.03.17-.05.35-.05.55v.05c0,.63.2,1.17.6,1.6.47.47,1.02.7,1.65.7h6.45c.63,0,1.17-.23,1.6-.7.47-.43.7-.97.7-1.6v-.05Z" fill="#bfd4e5" stroke-width="0"/><path d="M41.3,40.45c0-.8-.3-1.5-.9-2.1-.4-.4-.83-.65-1.3-.75.03.17.05.35.05.55v.05c0,.63-.23,1.17-.7,1.6-.43.47-.97.7-1.6.7h-6.45c-.63,0-1.18-.23-1.65-.7-.4-.43-.6-.97-.6-1.6v-.05c0-.2.02-.38.05-.55-.5.1-.95.35-1.35.75-.57.6-.85,1.3-.85,2.1s.28,1.48.85,2.05c.6.6,1.28.9,2.05.9h9.45c.8,0,1.48-.3,2.05-.9.6-.57.9-1.25.9-2.05Z" fill="#334e63" stroke-width="0"/></g><g id="head_0_Layer0_7_FILL"><path d="M49.35,29.1c.6-.57.9-1.25.9-2.05s-.3-1.5-.9-2.1c-.57-.57-1.25-.85-2.05-.85-.8,0-1.5.28-2.1.85-.57.6-.85,1.3-.85,2.1s.28,1.48.85,2.05c.6.57,1.3.85,2.1.85.8,0,1.48-.28,2.05-.85Z" fill="#477ca6" stroke-width="0"/></g><g id="head_0_Layer0_8_FILL"><path d="M22.65,29.1c.6-.57.9-1.25.9-2.05s-.3-1.5-.9-2.1c-.57-.57-1.23-.85-2-.85-.8,0-1.5.28-2.1.85-.57.6-.85,1.3-.85,2.1s.28,1.48.85,2.05c.6.57,1.3.85,2.1.85.77,0,1.43-.28,2-.85Z" fill="#477ca6" stroke-width="0"/></g></g></g></svg>