<?xml version="1.0" encoding="UTF-8"?><svg id="Calque_2" xmlns="http://www.w3.org/2000/svg" xmlns:xlink="http://www.w3.org/1999/xlink" viewBox="0 0 66.77 101.75"><defs><radialGradient id="Dégradé_sans_nom_9" cx="30.49" cy="613.69" fx="30.49" fy="613.69" r="13.59" gradientTransform="translate(-12.17 669.59) scale(1.51 -1)" gradientUnits="userSpaceOnUse"><stop offset="0" stop-color="#000" stop-opacity=".3"/><stop offset="1" stop-color="#000" stop-opacity="0"/></radialGradient></defs><g id="Calque_1-2"><g id="poses"><g id="leg_0_Layer0_0_FILL"><path d="M46.68,92.75l.15-5h-5.95c-1.13,2.23-3.15,3.4-6.05,3.5l-.05,1.5h11.9Z" fill="#3dbf9e" stroke-width="0"/><path d="M52.28,101.75l.1-3-5.75-6h-11.85l-.4,9h17.9Z" fill="#3c3e41" stroke-width="0"/><path d="M47.28,78.55c0-1.6-.63-2.97-1.9-4.1-1.23-1.13-2.75-1.7-4.55-1.7s-3.28.57-4.55,1.7c-1.27,1.13-1.9,2.5-1.9,4.1l.55,9.2-.1,3.5c2.9-.1,4.92-1.27,6.05-3.5h5.95l.45-9.2Z" fill="#eea160" stroke-width="0"/></g><g id="leg_0_Layer0_0_FILL-2"><path d="M20.08,92.75l-.15-5h5.95c1.13,2.23,3.15,3.4,6.05,3.5l.05,1.5h-11.9Z" fill="#3dbf9e" stroke-width="0"/><path d="M14.48,101.75l-.1-3,5.75-6h11.85l.4,9H14.48Z" fill="#3c3e41" stroke-width="0"/><path d="M19.48,78.55c0-1.6.63-2.97,1.9-4.1,1.23-1.13,2.75-1.7,4.55-1.7s3.28.57,4.55,1.7c1.27,1.13,1.9,2.5,1.9,4.1l-.55,9.2.1,3.5c-2.9-.1-4.92-1.27-6.05-3.5h-5.95l-.45-9.2Z" fill="#eea160" stroke-width="0"/></g><g id="arm_0_Layer0_0_FILL"><path d="M62.88,66.85h2.2c-1.77-.8-3.1-1.92-4-3.35-1.63-2.57-3.62-4.98-5.95-7.25-1.17-1.07-2.57-1.62-4.2-1.65-1.63.03-3.03.63-4.2,1.8-1.13,1.2-1.67,2.6-1.6,4.2,0,1.63.57,3.02,1.7,4.15,1.6,1.53,2.93,3.18,4,4.95,1.13,1.53,1.67,3.23,1.6,5.1l.45-1.15,1.25-3.35c1.67.97,3.15,1.47,4.45,1.5.67-1.4.93-3.05.8-4.95h3.5Z" fill="#4c4eaa" stroke-width="0"/><path d="M64.28,70.2c-.1-.27-.2-.53-.3-.8l-10.3,6.7c.27,1.03.47,2.12.6,3.25.17,1.6.88,2.92,2.15,3.95,1.3,1,2.77,1.43,4.4,1.3,1.6-.2,2.92-.95,3.95-2.25,1.03-1.23,1.47-2.68,1.3-4.35-.23-1.93-.6-3.78-1.1-5.55-.2-.77-.43-1.52-.7-2.25Z" fill="#3dbf9e" stroke-width="0"/><path d="M63.98,69.4c-.33-.87-.7-1.72-1.1-2.55h-3.5c.13,1.9-.13,3.55-.8,4.95-1.3-.03-2.78-.53-4.45-1.5l-1.25,3.35c.3.8.57,1.62.8,2.45l10.3-6.7Z" fill="#29a686" stroke-width="0"/></g><g id="arm_0_Layer0_0_FILL-2"><path d="M3.88,66.85H1.68c1.77-.8,3.1-1.92,4-3.35,1.63-2.57,3.62-4.98,5.95-7.25,1.17-1.07,2.57-1.62,4.2-1.65,1.63.03,3.03.63,4.2,1.8,1.13,1.2,1.67,2.6,1.6,4.2,0,1.63-.57,3.02-1.7,4.15-1.6,1.53-2.93,3.18-4,4.95-1.13,1.53-1.67,3.23-1.6,5.1l-.45-1.15-1.25-3.35c-1.67.97-3.15,1.47-4.45,1.5-.67-1.4-.93-3.05-.8-4.95h-3.5Z" fill="#4c4eaa" stroke-width="0"/><path d="M2.48,70.2c.1-.27.2-.53.3-.8l10.3,6.7c-.27,1.03-.47,2.12-.6,3.25-.17,1.6-.88,2.92-2.15,3.95-1.3,1-2.77,1.43-4.4,1.3-1.6-.2-2.92-.95-3.95-2.25-1.03-1.23-1.47-2.68-1.3-4.35.23-1.93.6-3.78,1.1-5.55.2-.77.43-1.52.7-2.25Z" fill="#3dbf9e" stroke-width="0"/><path d="M2.78,69.4c.33-.87.7-1.72,1.1-2.55h3.5c-.13,1.9.13,3.55.8,4.95,1.3-.03,2.78-.53,4.45-1.5l1.25,3.35c-.3.8-.57,1.62-.8,2.45l-10.3-6.7Z" fill="#29a686" stroke-width="0"/></g><g id="body_0_Layer0_0_FILL"><path d="M47.93,78.65h-2.75l-4.15-4.45-4.5,4.45h-18.65c.07,2.2.57,3.93,1.5,5.2h27.05c.93-1.27,1.43-3,1.5-5.2Z" fill="#eea160" stroke-width="0"/><path d="M51.13,60.05c.7-3.6-.17-5.33-2.6-5.2h-31.3c-2.43-.13-3.3,1.6-2.6,5.2l3.25,13.65v4.95h18.65l4.5-4.45,4.15,4.45h2.75v-4.95l3.2-13.65Z" fill="#676ac6" stroke-width="0"/></g><g id="body_0_Layer0_0_MEMBER_0_FILL"><path d="M40.93,47.4c-2.1-1.7-4.62-2.55-7.55-2.55s-5.45.85-7.55,2.55c-2.07,1.8-3.1,3.95-3.1,6.45,0,.17.02.33.05.5.1,2.27,1.12,4.2,3.05,5.8,2.1,1.8,4.62,2.7,7.55,2.7s5.45-.9,7.55-2.7c1.93-1.6,2.95-3.53,3.05-5.8.03-.17.05-.33.05-.5,0-2.5-1.03-4.65-3.1-6.45Z" fill="#29a686" stroke-width="0"/></g><g id="body_0_Layer0_0_MEMBER_1_FILL"><path d="M20.28,53.85l-2.05,3.6,13.1,7.6,2.05-3.65-13.1-7.55M46.48,53.85l-13.1,7.55,2.05,3.65,13.1-7.6-2.05-3.6Z" fill="#4c4eaa" stroke-width="0"/><path d="M35.43,65.05l-2.05-3.65-2.05,3.65h4.1Z" fill="#676ac6" stroke-width="0"/></g><g id="body_0_Layer0_0_MEMBER_2_FILL"><path d="M34.33,67.5c-.1-.07-.18-.07-.25,0-.9.27-2.18,1.2-3.85,2.8h-.05c-1.57,1.7-2.5,2.97-2.8,3.8-.03.1-.03.18,0,.25.03.1.1.18.2.25.1.03.18.03.25,0,.9-.27,2.2-1.17,3.9-2.7v-.05c1.57-1.7,2.48-3,2.75-3.9.03-.1.03-.18,0-.25-.03-.1-.08-.17-.15-.2Z" fill="#3dbf9e" stroke-width="0"/></g><g id="body_0_Layer0_0_MEMBER_3_FILL"><path d="M20.28,62.1c-.03.1-.05.18-.05.25.03.93.62,2.42,1.75,4.45v.05c1.23,1.97,2.2,3.2,2.9,3.7.1.03.18.05.25.05.13,0,.23-.03.3-.1.07-.1.1-.18.1-.25-.03-.93-.58-2.43-1.65-4.5-1.27-1.93-2.3-3.15-3.1-3.65-.1-.07-.18-.1-.25-.1-.1.03-.18.07-.25.1Z" fill="#3dbf9e" stroke-width="0"/></g><g id="hand_0_Layer0_0_FILL"><path d="M50.53,89.3l-.05-.95c.33-4.13,1.6-7.33,3.8-9.6-5.8,4.3-7.07,7.83-3.8,10.6l.05-.05Z" fill="#29a686" stroke-width="0"/><path d="M66.73,80.05c-.03-.9-.53-1.35-1.5-1.35l-10.95.05c-2.2,2.27-3.47,5.47-3.8,9.6l.05.95-.05.05c-.03,1.1-.03,2.27,0,3.5v.4c0,.93.72,1.53,2.15,1.8,2.1.47,4.15.68,6.15.65,5.67-.03,8.32-4.95,7.95-14.75v-.9Z" fill="#3dbf9e" stroke-width="0"/></g><g id="hand_0_Layer0_0_FILL-2"><path d="M16.23,89.3l.05-.95c-.33-4.13-1.6-7.33-3.8-9.6,5.8,4.3,7.07,7.83,3.8,10.6l-.05-.05Z" fill="#29a686" stroke-width="0"/><path d="M.03,80.05c.03-.9.53-1.35,1.5-1.35l10.95.05c2.2,2.27,3.47,5.47,3.8,9.6l-.05.95.05.05c.03,1.1.03,2.27,0,3.5v.4c0,.93-.72,1.53-2.15,1.8-2.1.47-4.15.68-6.15.65-5.67-.03-8.32-4.95-7.95-14.75v-.9Z" fill="#3dbf9e" stroke-width="0"/></g><g id="shadow_0_Layer0_0_FILL"><path d="M48.03,46.35c-3.92-2.6-8.67-3.9-14.24-3.9s-10.38,1.3-14.4,3.9c-3.92,2.67-5.88,5.85-5.88,9.55s1.96,6.85,5.88,9.45c4.02,2.67,8.82,4,14.4,4s10.33-1.33,14.24-4c4.02-2.6,6.03-5.75,6.03-9.45s-2.01-6.88-6.03-9.55Z" fill="url(#Dégradé_sans_nom_9)" stroke-width="0"/></g><g id="head_0_Layer0_0_FILL"><path d="M10.58,36.75c-1.57,1.57-2.35,3.48-2.35,5.75s.78,4.1,2.35,5.7c1.6,1.6,3.5,2.4,5.7,2.4s4.1-.8,5.7-2.4c1.57-1.6,2.35-3.5,2.35-5.7,0-2.27-.78-4.18-2.35-5.75s-3.5-2.4-5.7-2.4c-2.2,0-4.1.8-5.7,2.4M12.88,45.9c-.93-.93-1.4-2.07-1.4-3.4s.47-2.47,1.4-3.5c.93-.93,2.07-1.4,3.4-1.4s2.52.47,3.45,1.4c.93,1.03,1.4,2.2,1.4,3.5,0,1.33-.47,2.47-1.4,3.4-.93,1-2.08,1.5-3.45,1.5s-2.47-.5-3.4-1.5M47.83,36.75c-1.57,1.57-2.35,3.48-2.35,5.75s.78,4.1,2.35,5.7c1.6,1.6,3.5,2.4,5.7,2.4s4.1-.8,5.7-2.4c1.57-1.6,2.35-3.5,2.35-5.7s-.78-4.18-2.35-5.75c-1.6-1.6-3.5-2.4-5.7-2.4-2.2,0-4.1.8-5.7,2.4M50.13,39c.93-.93,2.07-1.4,3.4-1.4s2.48.47,3.45,1.4c.93,1.03,1.4,2.2,1.4,3.5s-.47,2.47-1.4,3.4c-.97,1-2.12,1.5-3.45,1.5s-2.47-.5-3.4-1.5c-.97-.93-1.45-2.07-1.45-3.4s.48-2.47,1.45-3.5Z" fill="#3dbf9e" stroke-width="0"/><path d="M11.48,42.5c0,1.33.47,2.47,1.4,3.4.93,1,2.07,1.5,3.4,1.5s2.52-.5,3.45-1.5c.93-.93,1.4-2.07,1.4-3.4,0-1.3-.47-2.47-1.4-3.5-.93-.93-2.08-1.4-3.45-1.4s-2.47.47-3.4,1.4c-.93,1.03-1.4,2.2-1.4,3.5M53.53,37.6c-1.33,0-2.47.47-3.4,1.4-.97,1.03-1.45,2.2-1.45,3.5s.48,2.47,1.45,3.4c.93,1,2.07,1.5,3.4,1.5s2.48-.5,3.45-1.5c.93-.93,1.4-2.07,1.4-3.4s-.47-2.47-1.4-3.5c-.97-.93-2.12-1.4-3.45-1.4Z" fill="#29a686" stroke-width="0"/></g><g id="head_0_Layer0_1_FILL"><path d="M46.98,56c3.57-.47,5.6-2.42,6.1-5.85l2.65-26.35H13.73l3.25,32.2h30Z" fill="#3dbf9e" stroke-width="0"/></g><g id="head_0_Layer0_2_FILL"><path d="M61.83,11.75l-.2-.4-5.8.55c-.53,4.9-3.18,8.47-7.95,10.7,1.03-5.93.67-9.48-1.1-10.65-2.5-.9-5.15-2.9-7.95-6-1.3-1.63-2.53-1.68-3.7-.15-3.3,4.8-7.03,8.75-11.2,11.85-3.03-1.1-6.1-2.77-9.2-5-1.23,2.77-1.88,4.28-1.95,4.55-.73,2.33-1.02,4.67-.85,7,.07.83.18,1.7.35,2.6l3.9,5.6v-5.15c.53-.1,1.07-.2,1.6-.3l.3.1c3.53,1.53,7.8,2.3,12.8,2.3s9.27-.77,12.8-2.3c.97-.43,1.8-.88,2.5-1.35,3.1.37,6.22.88,9.35,1.55v5.8l1.2-2.45c2.83-5.53,4.38-8.67,4.65-9.4.33-1.07.57-2.13.7-3.2v-.1c.23-2.07.15-4.12-.25-6.15Z" fill="#3c3e41" stroke-width="0"/><path d="M61.83,11.75c-.43-2.07-1.22-4.12-2.35-6.15l-10.6,1.5c-3.17.33-6.8-1.65-10.9-5.95-1.33-1.53-2.48-1.53-3.45,0-2.6,4.9-6.17,8.73-10.7,11.5-2.47,1.1-5.5,1.1-9.1,0,3.1,2.23,6.17,3.9,9.2,5,4.17-3.1,7.9-7.05,11.2-11.85,1.17-1.53,2.4-1.48,3.7.15,2.8,3.1,5.45,5.1,7.95,6,1.77,1.17,2.13,4.72,1.1,10.65,4.77-2.23,7.42-5.8,7.95-10.7l5.8-.55.2.4Z" fill="#454a51" stroke-width="0"/></g><g id="head_0_Layer0_3_FILL"><path d="M37.48,45.6c.7-.47,1.05-1,1.05-1.6s-.35-1.15-1.05-1.65c-.67-.43-1.48-.65-2.45-.65-.93,0-1.73.22-2.4.65-.67.5-1,1.05-1,1.65,0,.6.33,1.13,1,1.6.67.5,1.47.75,2.4.75s1.78-.25,2.45-.75Z" fill="#29a686" stroke-width="0"/></g><g id="head_0_Layer0_3_MEMBER_0_MEMBER_0_FILL"><path d="M51.88,43.65c0-1.67-.55-3.12-1.65-4.35-1.17-1.2-2.6-1.8-4.3-1.8s-3,.6-4.1,1.8c-1.17,1.23-1.75,2.68-1.75,4.35s.58,3.12,1.75,4.35c1.1,1.23,2.47,1.85,4.1,1.85s3.13-.62,4.3-1.85c1.1-1.23,1.65-2.68,1.65-4.35Z" fill="#29a686" stroke-width="0"/></g><g id="head_0_Layer0_3_MEMBER_0_MEMBER_1_FILL"><path d="M42.38,42.3c0,.97.33,1.78,1,2.45.6.7,1.37,1.05,2.3,1.05,1,0,1.82-.35,2.45-1.05.63-.67.95-1.48.95-2.45,0-.93-.32-1.77-.95-2.5-.63-.67-1.45-1-2.45-1-.93,0-1.7.33-2.3,1-.67.73-1,1.57-1,2.5Z" fill="#fc0" stroke-width="0"/></g><g id="head_0_Layer0_3_MEMBER_1_FILL"><path d="M29.73,44.15c1.17-1.2,1.75-2.65,1.75-4.35s-.58-3.1-1.75-4.3c-1.1-1.2-2.47-1.8-4.1-1.8s-3.13.6-4.3,1.8c-1.1,1.2-1.65,2.63-1.65,4.3s.55,3.15,1.65,4.35c1.17,1.23,2.6,1.85,4.3,1.85s3-.62,4.1-1.85Z" fill="#29a686" stroke-width="0"/></g><g id="head_0_Layer0_3_MEMBER_2_FILL"><path d="M19.18,30.7l.9,3.5,9.1-2.5-.9-3.45-9.1,2.45Z" fill="#454a51" stroke-width="0"/></g><g id="head_0_Layer0_3_MEMBER_3_FILL"><path d="M50.78,37.3l.4-3.55-9.4-1.15-.35,3.6,9.35,1.1Z" fill="#454a51" stroke-width="0"/></g><g id="head_0_Layer0_3_MEMBER_4_FILL"><path d="M28.18,40.95c.67-.67,1-1.5,1-2.5,0-.93-.33-1.75-1-2.45-.6-.67-1.37-1-2.3-1-1,0-1.82.33-2.45,1-.63.7-.95,1.52-.95,2.45,0,1,.32,1.83.95,2.5.63.7,1.45,1.05,2.45,1.05.93,0,1.7-.35,2.3-1.05Z" fill="#fc0" stroke-width="0"/></g><g id="head_0_Layer0_4_FILL"><path d="M14.63,24.7h-.05c-.67.1-1.22.43-1.65,1-.43.53-.6,1.13-.5,1.8l1.3,10.55c.07.63.38,1.18.95,1.65.53.43,1.13.6,1.8.5h.05c.67-.07,1.2-.38,1.6-.95.4-.53.57-1.13.5-1.8l-1.3-10.5c-.1-.7-.42-1.27-.95-1.7-.5-.4-1.08-.58-1.75-.55M53.43,25.25c-.53.43-.85,1-.95,1.7l-1.45,11.9c-.07.67.1,1.28.5,1.85.4.53.93.83,1.6.9h.05c.67.1,1.27-.05,1.8-.45.57-.47.88-1.03.95-1.7l1.45-11.95c.1-.67-.07-1.27-.5-1.8-.43-.57-.98-.9-1.65-1h-.05c-.67-.03-1.25.15-1.75.55Z" fill="#3c3e41" stroke-width="0"/></g><g id="head_0_Layer0_5_FILL"><path d="M38.63,49.3c-.93-.47-2.03-.7-3.3-.7s-2.37.23-3.3.7c-1.1.57-1.63,1.27-1.6,2.1,0,.5.22.97.65,1.4.17.17.38.27.65.3.27,0,.5-.05.7-.15.23-.13.37-.3.4-.5.1-.2.32-.37.65-.5.57-.3,1.25-.45,2.05-.45s1.48.15,2.05.45c.27.1.43.23.5.4.13.17.32.3.55.4.27.07.52.07.75,0,.27-.1.45-.23.55-.4.2-.3.3-.62.3-.95.03-.83-.5-1.53-1.6-2.1Z" fill="#197e64" stroke-width="0"/></g></g></g></svg>