<?xml version="1.0" encoding="UTF-8"?>
<svg id="Calque_2" data-name="Calque 2" xmlns="http://www.w3.org/2000/svg" version="1.1" viewBox="0 0 65 59">
  <g id="Calque_1-2" data-name="Calque 1-2">
    <path d="M24.7,40.35l-13.85-14.75-.15-.15-.05-.05-.05-.05c-1.73-1.97-2.6-4.3-2.6-7v-.05c0-2.87.97-5.3,2.9-7.3h.05c1.8-2,4.02-3,6.65-3h.1c2.6,0,4.83.98,6.7,2.95l.05.05,1.35,1.75c1,1.57,2.38,2.65,4.15,3.25l2.55.45,2.75-.5c1.73-.67,3.1-1.78,4.1-3.35l1.15-1.5-.15.1.05-.05.25-.2c1.8-1.97,4.02-2.95,6.65-2.95h.1c2.6,0,4.83.98,6.7,2.95l.05.05c1.9,2,2.85,4.43,2.85,7.3v.05c0,2.7-.87,5.03-2.6,7l-.05.05-.15.2-21.7,23.05-7.8-8.3" fill="#c83e3e" stroke-width="0"/>
    <path d="M54.1,10.95c-1.87-1.97-4.1-2.95-6.7-2.95h-.1c-2.63,0-4.85.98-6.65,2.95l-.25.2-.05.05.15-.1-1.15,1.5c-1,1.57-2.37,2.68-4.1,3.35l-2.75.5-2.55-.45c-1.77-.6-3.15-1.68-4.15-3.25l-1.35-1.75-.05-.05c-1.87-1.97-4.1-2.95-6.7-2.95h-.1c-2.63,0-4.85,1-6.65,3h-.05c-1.93,2-2.9,4.43-2.9,7.3v.05c0,2.7.87,5.03,2.6,7l.05.05.05.05.15.15,13.85,14.75-5.65,5.65-14.05-14.95-.2-.2-.2-.2C1.53,27.18,0,23.07,0,18.3c.03-5,1.72-9.27,5.05-12.8l.2-.2C8.68,1.73,12.82-.03,17.65,0c4.9-.03,9.1,1.8,12.6,5.5l2.25,2.9c.63-1.03,1.37-1.98,2.2-2.85l.05-.05C38.15,1.8,42.35-.03,47.35,0c4.8-.03,8.93,1.73,12.4,5.3l-5.65,5.65" fill="#d44c4c" stroke-width="0"/>
    <path d="M54.1,10.95l5.65-5.65.2.2c3.33,3.53,5.02,7.8,5.05,12.8,0,4.43-1.32,8.3-3.95,11.6l-.65.75-.2.2-.2.2-25.4,27-1.35.8-.75.15-.8-.15-1.3-.8-11.35-12.05,5.65-5.65,7.8,8.3,21.7-23.05.15-.2.05-.05c1.73-1.97,2.6-4.3,2.6-7v-.05c0-2.87-.95-5.3-2.85-7.3l-.05-.05" fill="#aa3030" stroke-width="0"/>
  </g>
</svg>