<?xml version="1.0" encoding="UTF-8"?>
<svg id="Calque_2" data-name="Calque 2" xmlns="http://www.w3.org/2000/svg" version="1.1" viewBox="0 0 64 64">
  <g id="Calque_1-2" data-name="Calque 1-2">
    <g>
      <path d="M56,32c0-6.63-2.35-12.3-7.05-17-4.67-4.67-10.32-7-16.95-7s-12.3,2.33-17,7c-4.67,4.7-7,10.37-7,17s2.33,12.33,7,17c4.7,4.67,10.37,7,17,7s12.28-2.33,16.95-7c4.7-4.67,7.05-10.33,7.05-17M31.9,18.5c1.4,0,2.58.53,3.55,1.6s1.45,2.37,1.45,3.9v16c0,1.53-.48,2.83-1.45,3.9s-2.15,1.6-3.55,1.6-2.58-.53-3.55-1.6-1.45-2.37-1.45-3.9v-16c0-1.53.48-2.83,1.45-3.9.97-1.07,2.15-1.6,3.55-1.6M64,32c0,8.87-3.13,16.42-9.4,22.65-6.23,6.23-13.77,9.35-22.6,9.35s-16.42-3.12-22.65-9.35C3.12,48.42,0,40.87,0,32S3.12,15.62,9.35,9.35C15.58,3.12,23.13,0,32,0s16.37,3.12,22.6,9.35c6.27,6.27,9.4,13.82,9.4,22.65" fill="#fc0" stroke-width="0"/>
      <path d="M31.9,18.5c-1.4,0-2.58.53-3.55,1.6s-1.45,2.37-1.45,3.9v16c0,1.53.48,2.83,1.45,3.9.97,1.07,2.15,1.6,3.55,1.6s2.58-.53,3.55-1.6,1.45-2.37,1.45-3.9v-16c0-1.53-.48-2.83-1.45-3.9s-2.15-1.6-3.55-1.6M56,32c0,6.67-2.35,12.33-7.05,17-4.67,4.67-10.32,7-16.95,7s-12.3-2.33-17-7c-4.67-4.67-7-10.33-7-17s2.33-12.3,7-17c4.7-4.67,10.37-7,17-7s12.28,2.33,16.95,7c4.7,4.7,7.05,10.37,7.05,17" fill="#d7ac00" stroke-width="0"/>
    </g>
  </g>
</svg>