<?xml version="1.0" encoding="UTF-8"?>
<svg id="Calque_2" data-name="Calque 2" xmlns="http://www.w3.org/2000/svg" version="1.1" viewBox="0 0 64 64">
  <g id="Calque_1-2" data-name="Calque 1-2">
    <g id="Layer0_27_FILL" data-name="Layer0 27 FILL">
      <path d="M36,60v4h4v-4h-4M60,8h4v-4h-4v4M48,48v8h8v-8h-8M24,44v4h4v-4h-4M32,40h4v-4h-4v4M36,20h-4v4h4v-4M12,16v-4h-4v4h4Z" fill="#24a159" stroke-width="0"/>
      <path d="M64,4V0H0v64h36v-4h4v4h24V8h-4v-4h4M56,12h4v4h-4v-4M16,16h8v8h-8v-8M32,12h-4v-4h4v4M12,12v4h-4v-4h4M32,20h4v4h-4v-4M36,40h-4v-4h4v4M12,28h4v4h-4v-4M24,48v-4h4v4h-4M44,44v4h-4v-4h4M48,56v-8h8v8h-8M4,52v-4h4v4h-4Z" fill="#27ae60" stroke-width="0"/>
      <path d="M4,48v4h4v-4h-4M44,48v-4h-4v4h4M16,28h-4v4h4v-4M28,12h4v-4h-4v4M24,16h-8v8h8v-8M60,12h-4v4h4v-4Z" fill="#29b865" stroke-width="0"/>
    </g>
    <g id="Layer0_27_MEMBER_0_FILL" data-name="Layer0 27 MEMBER 0 FILL">
      <path d="M64,43.15v-2.2c-10.67,5.4-21.33,5.4-32,0-7.43-3.79-14.87-4.94-22.3-3.45C6.47,38.15,3.23,39.3,0,40.95v2c.31,0,.61-.09.9-.25,2.93-1.48,5.87-2.53,8.8-3.15,7.13-1.51,14.27-.46,21.4,3.15,10.97,5.57,21.93,5.72,32.9.45M43.15,0h-2.2c3.53,6.97,4.77,13.95,3.7,20.95-.73,3.97.45,6.03,3.55,6.2,5.27-.03,10.53-1.4,15.8-4.1v-2c-.31,0-.61.07-.9.2-4.92,2.53-9.87,3.83-14.85,3.9-.7-.04-1.22-.28-1.55-.7-.31-.7-.34-1.75-.1-3.15.02,0,.02-.03,0-.05C47.71,14.15,46.56,7.07,43.15,0M25.15,15.6c.01.71-.19,1.23-.6,1.55-.76.38-1.93.44-3.5.2-3.79-.55-7.57-.47-11.35.25C6.46,18.2,3.23,19.27,0,20.8v2.25c3.23-1.64,6.46-2.79,9.7-3.45,3.68-.72,7.36-.8,11.05-.25,4.33.63,6.47-.63,6.4-3.8C27.05,10.38,25.68,5.2,23.05,0h-2c0,.31.07.61.2.9,2.5,4.92,3.8,9.82,3.9,14.7Z" fill="#219853" stroke-width="0"/>
      <path d="M40.95,0h-17.9c2.63,5.2,4,10.38,4.1,15.55.07,3.17-2.07,4.43-6.4,3.8-3.69-.55-7.37-.47-11.05.25C6.46,20.26,3.23,21.41,0,23.05v17.9c3.23-1.65,6.47-2.8,9.7-3.45,7.43-1.49,14.87-.34,22.3,3.45,10.67,5.4,21.33,5.4,32,0v-17.9c-5.27,2.7-10.53,4.07-15.8,4.1-3.1-.17-4.28-2.23-3.55-6.2C45.72,13.95,44.48,6.97,40.95,0Z" fill="#d9a24d" stroke-width="0"/>
    </g>
    <g id="Layer0_27_MEMBER_0_MEMBER_0_FILL" data-name="Layer0 27 MEMBER 0 MEMBER 0 FILL">
      <path d="M18,30h4v-4h-4v4Z" fill="#e2a94f" stroke-width="0"/>
    </g>
    <g id="Layer0_27_MEMBER_0_MEMBER_1_FILL" data-name="Layer0 27 MEMBER 0 MEMBER 1 FILL">
      <path d="M50,36v-4h-4v4h4Z" fill="#cd9948" stroke-width="0"/>
    </g>
    <g id="Layer0_27_MEMBER_0_MEMBER_2_FILL" data-name="Layer0 27 MEMBER 0 MEMBER 2 FILL">
      <path d="M10,26h4v-4h-4v4Z" fill="#cd9948" stroke-width="0"/>
    </g>
    <g id="Layer0_27_MEMBER_0_MEMBER_3_FILL" data-name="Layer0 27 MEMBER 0 MEMBER 3 FILL">
      <path d="M35,6v4h4v-4h-4Z" fill="#e2a94f" stroke-width="0"/>
    </g>
    <g id="Layer0_27_MEMBER_0_MEMBER_4_FILL" data-name="Layer0 27 MEMBER 0 MEMBER 4 FILL">
      <path d="M54,41h4v-4h-4v4Z" fill="#cd9948" stroke-width="0"/>
    </g>
  </g>
</svg>