<?xml version="1.0" encoding="UTF-8"?>
<svg id="Calque_2" data-name="Calque 2" xmlns="http://www.w3.org/2000/svg" version="1.1" viewBox="0 0 64 64">
  <g id="Calque_1-2" data-name="Calque 1-2">
    <g id="Layer0_30_FILL" data-name="Layer0 30 FILL">
      <path d="M36,64h4v-4h-4v4M48,48v8h8v-8h-8M32,40h4v-4h-4v4M28,44h-4v4h4v-4M12,16v-4h-4v4h4M36,20h-4v4h4v-4M64,8v-4h-4v4h4Z" fill="#24a159" stroke-width="0"/>
      <path d="M64,4V0H0v64h36v-4h4v4h24V8h-4v-4h4M32,20h4v4h-4v-4M32,8v4h-4v-4h4M56,16v-4h4v4h-4M16,16h8v8h-8v-8M12,12v4h-4v-4h4M24,44h4v4h-4v-4M16,28v4h-4v-4h4M8,48v4h-4v-4h4M40,44h4v4h-4v-4M36,40h-4v-4h4v4M48,56v-8h8v8h-8Z" fill="#27ae60" stroke-width="0"/>
      <path d="M44,44h-4v4h4v-4M8,52v-4h-4v4h4M16,32v-4h-4v4h4M24,16h-8v8h8v-8M56,12v4h4v-4h-4M32,12v-4h-4v4h4Z" fill="#29b865" stroke-width="0"/>
    </g>
    <g id="Layer0_30_MEMBER_0_FILL" data-name="Layer0 30 MEMBER 0 FILL">
      <path d="M64,43.15v-2.2c-6.83,3.47-13.67,4.72-20.5,3.75-4.7-.6-6.88,1.12-6.55,5.15.27,4.73,1.6,9.45,4,14.15h2c0-.31-.09-.61-.25-.9-2.25-4.44-3.5-8.89-3.75-13.35v-.1c-.1-1.16.1-2.01.6-2.55.8-.49,2.02-.64,3.65-.45h.05c6.92,1,13.83-.16,20.75-3.5M20.8,64h2.25c-4.5-8.93-5.23-17.85-2.2-26.75,4.37-9.2,11.82-12.7,22.35-10.5,6.93,1.07,13.87-.17,20.8-3.7v-2c-.31,0-.61.07-.9.2-6.53,3.34-13.07,4.51-19.6,3.5-11.53-2.36-19.68,1.53-24.45,11.65-.04.07-.07.13-.1.2-3.11,9.12-2.5,18.25,1.85,27.4Z" fill="#219853" stroke-width="0"/>
      <path d="M20.85,37.25c-3.03,8.9-2.3,17.82,2.2,26.75h17.9c-2.4-4.7-3.73-9.42-4-14.15-.33-4.03,1.85-5.75,6.55-5.15,6.83.97,13.67-.28,20.5-3.75v-17.9c-6.93,3.53-13.87,4.77-20.8,3.7-10.53-2.2-17.98,1.3-22.35,10.5Z" fill="#d9a24d" stroke-width="0"/>
    </g>
    <g id="Layer0_30_MEMBER_0_MEMBER_0_FILL" data-name="Layer0 30 MEMBER 0 MEMBER 0 FILL">
      <path d="M34,41h4v-4h-4v4Z" fill="#e2a94f" stroke-width="0"/>
    </g>
    <g id="Layer0_30_MEMBER_0_MEMBER_1_FILL" data-name="Layer0 30 MEMBER 0 MEMBER 1 FILL">
      <path d="M46,35v-4h-4v4h4Z" fill="#cd9948" stroke-width="0"/>
    </g>
    <g id="Layer0_30_MEMBER_0_MEMBER_2_FILL" data-name="Layer0 30 MEMBER 0 MEMBER 2 FILL">
      <path d="M22,56h4v-4h-4v4Z" fill="#cd9948" stroke-width="0"/>
    </g>
  </g>
</svg>