<?xml version="1.0" encoding="UTF-8"?>
<svg id="Calque_2" data-name="Calque 2" xmlns="http://www.w3.org/2000/svg" version="1.1" viewBox="0 0 64 64">
  <g id="Calque_1-2" data-name="Calque 1-2">
    <g id="Layer0_29_FILL" data-name="Layer0 29 FILL">
      <path d="M36,60v4h4v-4h-4M64,8v-4h-4v4h4M48,48v8h8v-8h-8M28,44h-4v4h4v-4M32,36v4h4v-4h-4M12,16v-4h-4v4h4M36,20h-4v4h4v-4Z" fill="#24a159" stroke-width="0"/>
      <path d="M64,4V0H0v64h36v-4h4v4h24V8h-4v-4h4M60,12v4h-4v-4h4M16,16h8v8h-8v-8M32,12h-4v-4h4v4M32,20h4v4h-4v-4M12,12v4h-4v-4h4M32,40v-4h4v4h-4M40,44h4v4h-4v-4M12,32v-4h4v4h-4M24,44h4v4h-4v-4M48,56v-8h8v8h-8M4,52v-4h4v4h-4Z" fill="#27ae60" stroke-width="0"/>
      <path d="M4,48v4h4v-4h-4M12,28v4h4v-4h-4M44,44h-4v4h4v-4M28,12h4v-4h-4v4M24,16h-8v8h8v-8M60,16v-4h-4v4h4Z" fill="#29b865" stroke-width="0"/>
    </g>
    <g id="Layer0_29_MEMBER_0_FILL" data-name="Layer0 29 MEMBER 0 FILL">
      <path d="M38.9,48.85v-.1c.06-1.2.31-2.07.75-2.6.54-.3,1.31-.33,2.3-.1,7.22,1.65,14.57.68,22.05-2.9v-2.2c-7.33,3.7-14.53,4.75-21.6,3.15-3.53-.83-5.37.73-5.5,4.7.1,5.07,1.45,10.13,4.05,15.2h2c0-.32-.08-.63-.25-.95-2.41-4.72-3.68-9.45-3.8-14.2M43.15,0h-2.2c3.83,7.57,4.95,15.13,3.35,22.7-1.07,3.13.2,4.67,3.8,4.6,5.27-.1,10.57-1.52,15.9-4.25v-2c-.31,0-.61.07-.9.2-5.05,2.6-10.07,3.95-15.05,4.05-.98.02-1.67-.12-2.05-.4-.11-.32-.04-.84.2-1.55.02-.08.04-.16.05-.25C47.89,15.41,46.86,7.71,43.15,0M21.05,0c0,.31.07.61.2.9,5.14,10.07,5.14,20.13,0,30.2-5.54,10.97-5.69,21.93-.45,32.9h2.25c-5.4-10.67-5.4-21.33,0-32C28.48,21.33,28.48,10.67,23.05,0,23.05,0,21.05,0,21.05,0Z" fill="#219853" stroke-width="0"/>
      <path d="M40.95,0h-17.9c5.43,10.67,5.43,21.33,0,32-5.4,10.67-5.4,21.33,0,32h17.9c-2.6-5.07-3.95-10.13-4.05-15.2.13-3.97,1.97-5.53,5.5-4.7,7.07,1.6,14.27.55,21.6-3.15v-17.9c-5.33,2.73-10.63,4.15-15.9,4.25-3.6.07-4.87-1.47-3.8-4.6C45.9,15.13,44.78,7.57,40.95,0Z" fill="#d9a24d" stroke-width="0"/>
    </g>
    <g id="Layer0_29_MEMBER_0_MEMBER_0_FILL" data-name="Layer0 29 MEMBER 0 MEMBER 0 FILL">
      <path d="M38,38h4v-4h-4v4Z" fill="#e2a94f" stroke-width="0"/>
    </g>
    <g id="Layer0_29_MEMBER_0_MEMBER_1_FILL" data-name="Layer0 29 MEMBER 0 MEMBER 1 FILL">
      <path d="M50,42v-4h-4v4h4Z" fill="#cd9948" stroke-width="0"/>
    </g>
    <g id="Layer0_29_MEMBER_0_MEMBER_2_FILL" data-name="Layer0 29 MEMBER 0 MEMBER 2 FILL">
      <path d="M24,58h4v-4h-4v4Z" fill="#cd9948" stroke-width="0"/>
    </g>
    <g id="Layer0_29_MEMBER_0_MEMBER_3_FILL" data-name="Layer0 29 MEMBER 0 MEMBER 3 FILL">
      <path d="M36,5v4h4v-4h-4Z" fill="#cd9948" stroke-width="0"/>
    </g>
  </g>
</svg>