<?xml version="1.0" encoding="UTF-8"?>
<svg id="Calque_2" data-name="Calque 2" xmlns="http://www.w3.org/2000/svg" version="1.1" viewBox="0 0 64 64">
  <g id="Calque_1-2" data-name="Calque 1-2">
    <g id="Layer0_35_FILL" data-name="Layer0 35 FILL">
      <path d="M40,64v-4h-4v4h4M60,4v4h4v-4h-4M32,40h4v-4h-4v4M24,48h4v-4h-4v4M36,20h-4v4h4v-4M12,12h-4v4h4v-4M56,48h-8v8h8v-8Z" fill="#24a159" stroke-width="0"/>
      <path d="M60,8v-4h4V0H0v64h36v-4h4v4h24V8h-4M56,12h4v4h-4v-4M44,48h-4v-4h4v4M48,48h8v8h-8v-8M8,12h4v4h-4v-4M32,20h4v4h-4v-4M28,8h4v4h-4v-4M16,16h8v8h-8v-8M28,48h-4v-4h4v4M36,40h-4v-4h4v4M16,28v4h-4v-4h4M4,48h4v4h-4v-4Z" fill="#27ae60" stroke-width="0"/>
      <path d="M8,48h-4v4h4v-4M16,32v-4h-4v4h4M24,16h-8v8h8v-8M32,8h-4v4h4v-4M40,48h4v-4h-4v4M60,12h-4v4h4v-4Z" fill="#29b865" stroke-width="0"/>
    </g>
    <g id="Layer0_35_MEMBER_0_FILL" data-name="Layer0 35 MEMBER 0 FILL">
      <path d="M42.05,47.6c7.32-.73,14.64-2.95,21.95-6.65v-17.9c-5.52,2.81-10.79,3.28-15.8,1.4-1.23-.5-2.86-1.76-4.9-3.8-3.1-3.1-6.87-4.65-11.3-4.65s-8.22,1.55-11.35,4.65c-3.1,3.13-4.65,6.92-4.65,11.35s1.55,8.2,4.65,11.3c3.13,3.13,6.92,4.7,11.35,4.7,3.86,0,7.21-.13,10.05-.4Z" fill="#d9a24d" stroke-width="0"/>
      <path d="M64,23.05v-2c-.31,0-.61.07-.9.2-4.97,2.54-9.7,2.97-14.2,1.3-1.04-.46-2.44-1.58-4.2-3.35-3.48-3.47-7.71-5.2-12.7-5.2s-9.23,1.73-12.75,5.2l-.05.05c-3.47,3.52-5.2,7.77-5.2,12.75s1.73,9.22,5.2,12.7c3.54,3.54,7.81,5.3,12.8,5.3,3.93,0,7.33-.13,10.2-.4h.05c7.25-.73,14.5-2.88,21.75-6.45v-2.2c-7.31,3.7-14.63,5.92-21.95,6.65-2.84.27-6.19.4-10.05.4-4.43,0-8.22-1.57-11.35-4.7-3.1-3.1-4.65-6.87-4.65-11.3s1.55-8.22,4.65-11.35c3.13-3.1,6.92-4.65,11.35-4.65s8.2,1.55,11.3,4.65c2.04,2.04,3.67,3.3,4.9,3.8,5.01,1.88,10.28,1.41,15.8-1.4Z" fill="#219853" stroke-width="0"/>
    </g>
    <g id="Layer0_35_MEMBER_0_MEMBER_0_FILL" data-name="Layer0 35 MEMBER 0 MEMBER 0 FILL">
      <path d="M22,39h4v-4h-4v4Z" fill="#e2a94f" stroke-width="0"/>
    </g>
    <g id="Layer0_35_MEMBER_0_MEMBER_1_FILL" data-name="Layer0 35 MEMBER 0 MEMBER 1 FILL">
      <path d="M36,46v-4h-4v4h4Z" fill="#cd9948" stroke-width="0"/>
    </g>
    <g id="Layer0_35_MEMBER_0_MEMBER_2_FILL" data-name="Layer0 35 MEMBER 0 MEMBER 2 FILL">
      <path d="M42,26v-4h-4v4h4Z" fill="#cd9948" stroke-width="0"/>
    </g>
    <g id="Layer0_35_MEMBER_0_MEMBER_3_FILL" data-name="Layer0 35 MEMBER 0 MEMBER 3 FILL">
      <path d="M56,36h4v-4h-4v4Z" fill="#cd9948" stroke-width="0"/>
    </g>
  </g>
</svg>