<?xml version="1.0" encoding="UTF-8"?>
<svg id="Calque_2" data-name="Calque 2" xmlns="http://www.w3.org/2000/svg" version="1.1" viewBox="0 0 64 64">
  <g id="Calque_1-2" data-name="Calque 1-2">
    <g id="Layer0_32_FILL" data-name="Layer0 32 FILL">
      <path d="M36,60v4h4v-4h-4M60,8h4v-4h-4v4M56,48h-8v8h8v-8M32,36v4h4v-4h-4M28,48v-4h-4v4h4M12,12h-4v4h4v-4M36,20h-4v4h4v-4Z" fill="#24a159" stroke-width="0"/>
      <path d="M64,8h-4v-4h4V0H0v64h36v-4h4v4h24V8M32,20h4v4h-4v-4M32,8v4h-4v-4h4M56,16v-4h4v4h-4M16,16h8v8h-8v-8M8,12h4v4h-4v-4M12,32v-4h4v4h-4M28,44v4h-4v-4h4M4,48h4v4h-4v-4M32,40v-4h4v4h-4M40,44h4v4h-4v-4M48,48h8v8h-8v-8Z" fill="#27ae60" stroke-width="0"/>
      <path d="M44,44h-4v4h4v-4M8,48h-4v4h4v-4M12,28v4h4v-4h-4M24,16h-8v8h8v-8M56,12v4h4v-4h-4M32,12v-4h-4v4h4Z" fill="#29b865" stroke-width="0"/>
    </g>
    <g id="Layer0_32_MEMBER_0_FILL" data-name="Layer0 32 MEMBER 0 FILL">
      <path d="M21.05,0c0,.31.07.61.2.9,3.94,7.73,4.86,15.44,2.75,23.15v.1c-2.3,10.73,1.9,17.71,12.6,20.95h.05c9.11,3.07,18.23,2.42,27.35-1.95v-2.2c-8.93,4.5-17.85,5.25-26.75,2.25-9.57-2.87-13.33-9.07-11.3-18.6C28.18,16.4,27.22,8.2,23.05,0h-2M40.95,0c3.17,6.23,4.48,12.47,3.95,18.7-.87,5.33.75,8.13,4.85,8.4,4.73-.27,9.48-1.62,14.25-4.05v-2c-.31,0-.61.07-.9.2-4.43,2.28-8.85,3.56-13.25,3.85h-.1c-1.19-.1-2.04-.54-2.55-1.3-.55-1.1-.67-2.7-.35-4.8.03-.03.04-.08.05-.15C47.44,12.57,46.19,6.29,43.15,0h-2.2Z" fill="#219853" stroke-width="0"/>
      <path d="M44.9,18.7C45.43,12.47,44.12,6.23,40.95,0h-17.9c4.17,8.2,5.13,16.4,2.9,24.6-2.03,9.53,1.73,15.73,11.3,18.6,8.9,3,17.82,2.25,26.75-2.25v-17.9c-4.77,2.43-9.52,3.78-14.25,4.05-4.1-.27-5.72-3.07-4.85-8.4Z" fill="#d9a24d" stroke-width="0"/>
    </g>
    <g id="Layer0_32_MEMBER_0_MEMBER_0_FILL" data-name="Layer0 32 MEMBER 0 MEMBER 0 FILL">
      <path d="M28,26v4h4v-4h-4Z" fill="#e2a94f" stroke-width="0"/>
    </g>
    <g id="Layer0_32_MEMBER_0_MEMBER_1_FILL" data-name="Layer0 32 MEMBER 0 MEMBER 1 FILL">
      <path d="M39,38v-4h-4v4h4Z" fill="#cd9948" stroke-width="0"/>
    </g>
    <g id="Layer0_32_MEMBER_0_MEMBER_2_FILL" data-name="Layer0 32 MEMBER 0 MEMBER 2 FILL">
      <path d="M42,5h-4v4h4v-4Z" fill="#e2a94f" stroke-width="0"/>
    </g>
    <g id="Layer0_32_MEMBER_0_MEMBER_3_FILL" data-name="Layer0 32 MEMBER 0 MEMBER 3 FILL">
      <path d="M57,34h4v-4h-4v4Z" fill="#cd9948" stroke-width="0"/>
    </g>
  </g>
</svg>