<?xml version="1.0" encoding="UTF-8"?>
<svg id="Calque_2" data-name="Calque 2" xmlns="http://www.w3.org/2000/svg" version="1.1" viewBox="0 0 64 64">
  <g id="Calque_1-2" data-name="Calque 1-2">
    <g id="Layer0_24_FILL" data-name="Layer0 24 FILL">
      <path d="M36,60v4h4v-4h-4M64,4h-4v4h4v-4M48,48v8h8v-8h-8M36,36h-4v4h4v-4M36,20h-4v4h4v-4M28,48v-4h-4v4h4M12,12h-4v4h4v-4Z" fill="#24a159" stroke-width="0"/>
      <path d="M60,4h4V0H0v64h36v-4h4v4h24V8h-4v-4M32,8v4h-4v-4h4M56,16v-4h4v4h-4M16,16h8v8h-8v-8M8,12h4v4h-4v-4M12,28h4v4h-4v-4M4,48h4v4h-4v-4M28,44v4h-4v-4h4M32,20h4v4h-4v-4M32,36h4v4h-4v-4M40,48v-4h4v4h-4M48,56v-8h8v8h-8Z" fill="#27ae60" stroke-width="0"/>
      <path d="M40,44v4h4v-4h-4M8,48h-4v4h4v-4M16,28h-4v4h4v-4M24,16h-8v8h8v-8M56,12v4h4v-4h-4M32,12v-4h-4v4h4Z" fill="#29b865" stroke-width="0"/>
    </g>
    <g id="Layer0_24_MEMBER_0_FILL" data-name="Layer0 24 MEMBER 0 FILL">
      <path d="M23.05,32c-5.4,10.67-5.4,21.33,0,32h17.9c-.34-.66-.65-1.33-.95-2l-.85-2c-3.56-9.33-2.96-18.66,1.8-28C46.35,21.33,46.35,10.67,40.95,0h-17.9c5.43,10.67,5.43,21.33,0,32Z" fill="#d9a24d" stroke-width="0"/>
      <path d="M21.05,0c0,.31.07.61.2.9,5.14,10.07,5.14,20.13,0,30.2-5.54,10.97-5.69,21.93-.45,32.9h2.25c-5.4-10.67-5.4-21.33,0-32C28.48,21.33,28.48,10.67,23.05,0h-2M43.15,0h-2.2c5.4,10.67,5.4,21.33,0,32-4.76,9.34-5.36,18.67-1.8,28l.85,2c.3.67.61,1.34.95,2h2c0-.31-.09-.61-.25-.9-.3-.63-.6-1.26-.9-1.9h.05l-.8-1.95-.05-.05c-3.32-8.76-2.75-17.52,1.7-26.3C48.27,21.93,48.42,10.97,43.15,0Z" fill="#219853" stroke-width="0"/>
    </g>
    <g id="Layer0_24_MEMBER_0_MEMBER_0_FILL" data-name="Layer0 24 MEMBER 0 MEMBER 0 FILL">
      <path d="M38,6v4h4v-4h-4Z" fill="#cd9948" stroke-width="0"/>
    </g>
    <g id="Layer0_24_MEMBER_0_MEMBER_1_FILL" data-name="Layer0 24 MEMBER 0 MEMBER 1 FILL">
      <path d="M34,13v4h4v-4h-4Z" fill="#e2a94f" stroke-width="0"/>
    </g>
    <g id="Layer0_24_MEMBER_0_MEMBER_2_FILL" data-name="Layer0 24 MEMBER 0 MEMBER 2 FILL">
      <path d="M26,35v4h4v-4h-4Z" fill="#e2a94f" stroke-width="0"/>
    </g>
    <g id="Layer0_24_MEMBER_0_MEMBER_3_FILL" data-name="Layer0 24 MEMBER 0 MEMBER 3 FILL">
      <path d="M26,41h-4v4h4v-4Z" fill="#e2a94f" stroke-width="0"/>
    </g>
    <g id="Layer0_24_MEMBER_0_MEMBER_4_FILL" data-name="Layer0 24 MEMBER 0 MEMBER 4 FILL">
      <path d="M28,51h-4v4h4v-4Z" fill="#cd9948" stroke-width="0"/>
    </g>
  </g>
</svg>