<?xml version="1.0" encoding="UTF-8"?>
<svg id="Calque_2" data-name="Calque 2" xmlns="http://www.w3.org/2000/svg" version="1.1" viewBox="0 0 64 64">
  <g id="Calque_1-2" data-name="Calque 1-2">
    <g id="Layer0_33_FILL" data-name="Layer0 33 FILL">
      <path d="M36,64h4v-4h-4v4M24,44v4h4v-4h-4M36,40v-4h-4v4h4M12,16v-4h-4v4h4M36,20h-4v4h4v-4M56,56v-8h-8v8h8M64,8v-4h-4v4h4Z" fill="#24a159" stroke-width="0"/>
      <path d="M64,4V0H0v64h36v-4h4v4h24V8h-4v-4h4M56,16v-4h4v4h-4M56,48v8h-8v-8h8M28,8h4v4h-4v-4M32,20h4v4h-4v-4M16,16h8v8h-8v-8M12,12v4h-4v-4h4M12,32v-4h4v4h-4M8,48v4h-4v-4h4M40,44h4v4h-4v-4M36,36v4h-4v-4h4M24,48v-4h4v4h-4Z" fill="#27ae60" stroke-width="0"/>
      <path d="M44,44h-4v4h4v-4M8,52v-4h-4v4h4M12,28v4h4v-4h-4M24,16h-8v8h8v-8M32,8h-4v4h4v-4M56,12v4h4v-4h-4Z" fill="#29b865" stroke-width="0"/>
    </g>
    <g id="Layer0_33_MEMBER_0_FILL" data-name="Layer0 33 MEMBER 0 FILL">
      <path d="M43.15,0h-2.2c4.5,8.93,5.25,17.85,2.25,26.75-3.5,9.3-9.32,13.18-17.45,11.65-8.6-2.67-17.18-1.82-25.75,2.55v2c.31,0,.61-.09.9-.25,8.07-4.1,16.15-4.9,24.25-2.4.08.03.14.05.2.05,9.22,1.84,15.79-2.46,19.7-12.9l.05-.05C48.18,18.28,47.53,9.15,43.15,0M23.05,0h-2c0,.31.07.61.2.9,1.91,3.76,3.11,7.49,3.6,11.2v.05c.38,2.17.19,3.7-.55,4.6-.96.71-2.58.85-4.85.4h-.15C12.87,16.5,6.43,17.72,0,20.8v2.25c6.37-3.23,12.73-4.53,19.1-3.9,6.17,1.17,8.75-1.27,7.75-7.3C26.32,7.92,25.05,3.97,23.05,0Z" fill="#219853" stroke-width="0"/>
      <path d="M26.85,11.85c1,6.03-1.58,8.47-7.75,7.3-6.37-.63-12.73.67-19.1,3.9v17.9c8.57-4.37,17.15-5.22,25.75-2.55,8.13,1.53,13.95-2.35,17.45-11.65C46.2,17.85,45.45,8.93,40.95,0h-17.9c2,3.97,3.27,7.92,3.8,11.85Z" fill="#d9a24d" stroke-width="0"/>
    </g>
    <g id="Layer0_33_MEMBER_0_MEMBER_0_FILL" data-name="Layer0 33 MEMBER 0 MEMBER 0 FILL">
      <path d="M16,34h4v-4h-4v4Z" fill="#e2a94f" stroke-width="0"/>
    </g>
    <g id="Layer0_33_MEMBER_0_MEMBER_1_FILL" data-name="Layer0 33 MEMBER 0 MEMBER 1 FILL">
      <path d="M28,36v-4h-4v4h4Z" fill="#cd9948" stroke-width="0"/>
    </g>
    <g id="Layer0_33_MEMBER_0_MEMBER_2_FILL" data-name="Layer0 33 MEMBER 0 MEMBER 2 FILL">
      <path d="M30,2v4h4V2h-4Z" fill="#e2a94f" stroke-width="0"/>
    </g>
    <g id="Layer0_33_MEMBER_0_MEMBER_3_FILL" data-name="Layer0 33 MEMBER 0 MEMBER 3 FILL">
      <path d="M38,18h4v-4h-4v4Z" fill="#cd9948" stroke-width="0"/>
    </g>
  </g>
</svg>