<?xml version="1.0" encoding="UTF-8"?>
<svg id="Calque_2" data-name="Calque 2" xmlns="http://www.w3.org/2000/svg" version="1.1" viewBox="0 0 64 64">
  <g id="Calque_1-2" data-name="Calque 1-2">
    <g id="Layer0_28_FILL" data-name="Layer0 28 FILL">
      <path d="M36,60v4h4v-4h-4M60,8h4v-4h-4v4M56,56v-8h-8v8h8M36,40v-4h-4v4h4M36,20h-4v4h4v-4M24,44v4h4v-4h-4M8,16h4v-4h-4v4Z" fill="#24a159" stroke-width="0"/>
      <path d="M0,0v64h36v-4h4v4h24V8h-4v-4h4V0H0M12,16h-4v-4h4v4M16,16h8v8h-8v-8M16,32h-4v-4h4v4M4,52v-4h4v4h-4M24,48v-4h4v4h-4M28,12v-4h4v4h-4M32,20h4v4h-4v-4M60,12v4h-4v-4h4M36,36v4h-4v-4h4M40,44h4v4h-4v-4M56,48v8h-8v-8h8Z" fill="#27ae60" stroke-width="0"/>
      <path d="M44,44h-4v4h4v-4M60,16v-4h-4v4h4M28,8v4h4v-4h-4M4,48v4h4v-4h-4M12,32h4v-4h-4v4M24,16h-8v8h8v-8Z" fill="#29b865" stroke-width="0"/>
    </g>
    <g id="Layer0_28_MEMBER_0_FILL" data-name="Layer0 28 MEMBER 0 FILL">
      <path d="M43.15,0h-2.2c5.4,10.67,5.4,21.33,0,32-3.27,6.42-4.57,12.83-3.9,19.25.44,4.25,1.74,8.5,3.9,12.75h2c0-.31-.09-.61-.25-.9-1.99-3.95-3.21-7.9-3.65-11.85-.66-6.12.55-12.23,3.65-18.35C48.27,21.93,48.42,10.97,43.15,0M19.25,44.2c1-4.3-.17-6.73-3.5-7.3C10.48,36.93,5.23,38.28,0,40.95v2c.31,0,.61-.09.9-.25,4.88-2.46,9.76-3.73,14.65-3.8.85.17,1.43.54,1.75,1.1.37.91.37,2.16,0,3.75-.01.07-.03.14-.05.2-.28,2.43-.32,4.87-.1,7.3.42,4.25,1.64,8.5,3.65,12.75h2.25c-2.15-4.25-3.45-8.5-3.9-12.75-.22-2.35-.18-4.7.1-7.05M23.05,0h-2c0,.31.07.61.2.9,2.59,5.07,3.89,10.12,3.9,15.15,0,.76-.13,1.31-.4,1.65-.34.18-.85.19-1.55.05l.05.05c-7.76-1.71-15.51-.71-23.25,3v2.25c7.6-3.87,15.22-4.97,22.85-3.3,2.87.53,4.3-.7,4.3-3.7C27.15,10.72,25.78,5.37,23.05,0Z" fill="#219853" stroke-width="0"/>
      <path d="M15.75,36.9c3.33.57,4.5,3,3.5,7.3-.28,2.35-.32,4.7-.1,7.05.45,4.25,1.75,8.5,3.9,12.75h17.9c-2.16-4.25-3.46-8.5-3.9-12.75-.67-6.42.63-12.83,3.9-19.25C46.35,21.33,46.35,10.67,40.95,0h-17.9c2.73,5.37,4.1,10.72,4.1,16.05,0,3-1.43,4.23-4.3,3.7C15.22,18.08,7.6,19.18,0,23.05v17.9c5.23-2.67,10.48-4.02,15.75-4.05Z" fill="#d9a24d" stroke-width="0"/>
    </g>
    <g id="Layer0_28_MEMBER_0_MEMBER_0_FILL" data-name="Layer0 28 MEMBER 0 MEMBER 0 FILL">
      <path d="M21,22v4h4v-4h-4Z" fill="#e2a94f" stroke-width="0"/>
    </g>
    <g id="Layer0_28_MEMBER_0_MEMBER_1_FILL" data-name="Layer0 28 MEMBER 0 MEMBER 1 FILL">
      <path d="M24,28v4h4v-4h-4Z" fill="#cd9948" stroke-width="0"/>
    </g>
    <g id="Layer0_28_MEMBER_0_MEMBER_2_FILL" data-name="Layer0 28 MEMBER 0 MEMBER 2 FILL">
      <path d="M34,9v4h4v-4h-4Z" fill="#e2a94f" stroke-width="0"/>
    </g>
    <g id="Layer0_28_MEMBER_0_MEMBER_3_FILL" data-name="Layer0 28 MEMBER 0 MEMBER 3 FILL">
      <path d="M24,50v4h4v-4h-4Z" fill="#cd9948" stroke-width="0"/>
    </g>
    <g id="Layer0_28_MEMBER_0_MEMBER_4_FILL" data-name="Layer0 28 MEMBER 0 MEMBER 4 FILL">
      <path d="M6,31H2v4h4v-4Z" fill="#cd9948" stroke-width="0"/>
    </g>
  </g>
</svg>