<?xml version="1.0" encoding="UTF-8"?>
<svg id="Calque_2" data-name="Calque 2" xmlns="http://www.w3.org/2000/svg" version="1.1" viewBox="0 0 64 64">
  <g id="Calque_1-2" data-name="Calque 1-2">
    <g id="Layer0_9_FILL" data-name="Layer0 9 FILL">
      <path d="M36,60v4h4v-4h-4M64,4h-4v4h4v-4M24,48h4v-4h-4v4M36,40v-4h-4v4h4M32,20v4h4v-4h-4M12,16v-4h-4v4h4M56,56v-8h-8v8h8Z" fill="#24a159" stroke-width="0"/>
      <path d="M60,4h4V0H0v64h36v-4h4v4h24V8h-4v-4M56,16v-4h4v4h-4M56,48v8h-8v-8h8M16,16h8v8h-8v-8M12,12v4h-4v-4h4M32,12h-4v-4h4v4M4,52v-4h4v4h-4M32,24v-4h4v4h-4M36,36v4h-4v-4h4M12,32v-4h4v4h-4M28,48h-4v-4h4v4M40,48v-4h4v4h-4Z" fill="#27ae60" stroke-width="0"/>
      <path d="M40,44v4h4v-4h-4M12,28v4h4v-4h-4M4,48v4h4v-4h-4M28,12h4v-4h-4v4M24,16h-8v8h8v-8M56,12v4h4v-4h-4Z" fill="#29b865" stroke-width="0"/>
    </g>
  </g>
</svg>