<?xml version="1.0" encoding="UTF-8"?>
<svg id="Calque_2" data-name="Calque 2" xmlns="http://www.w3.org/2000/svg" version="1.1" viewBox="0 0 29.95 30.98">
  <g id="Calque_1-2" data-name="Calque 1-2">
    <g>
      <path d="M8.2,1.5C8.5.47,9.25-.03,10.45,0h13.55C26,0,27,.97,27,2.9v15.45l-.3,1.65-6.8-6.8.75-.2h1.35v-5h-7.3L8.2,1.5" fill="#fff" stroke-width="0"/>
      <path d="M3.5,2.55c.4-.4.88-.6,1.45-.6s1.03.2,1.4.6l23,23c.4.37.6.83.6,1.4s-.2,1.05-.6,1.45c-.37.37-.83.55-1.4.55s-1.05-.18-1.45-.55L3.5,5.4c-.37-.4-.55-.88-.55-1.45s.18-1.03.55-1.4" fill="#fff" stroke-width="0"/>
      <path d="M2,20.95l.1-.05c1.1-1.07,2.3-1.73,3.6-2h.05l2.25.1v-6.3l4,4v8.3c.07,1.27-.62,2.53-2.05,3.8l-.05.15c-1.2,1.17-2.58,1.83-4.15,2h-.05c-1.73.17-3.15-.32-4.25-1.45C.31,28.4-.15,27,.04,25.3c.13-1.67.78-3.12,1.95-4.35" fill="#fff" stroke-width="0"/>
      <path d="M14.95,19.65l5.45,5.45c-1.63.07-2.98-.47-4.05-1.6-1-.97-1.47-2.25-1.4-3.85" fill="#fff" stroke-width="0"/>
    </g>
  </g>
</svg>