<?xml version="1.0" encoding="UTF-8"?>
<svg id="Calque_2" data-name="Calque 2" xmlns="http://www.w3.org/2000/svg" version="1.1" viewBox="0 0 27 30.99">
  <g id="Calque_1-2" data-name="Calque 1-2">
    <path d="M27,2.9v15.45c-.2,1.83-.87,3.33-2,4.5h-.1c-1.2,1.33-2.62,2.07-4.25,2.2h-.05c-1.7.17-3.12-.35-4.25-1.55-1.1-1.07-1.57-2.5-1.4-4.3.17-1.6.83-3,2-4.2,1.13-1.13,2.37-1.8,3.7-2h1.35v-5h-10v17c.07,1.27-.62,2.53-2.05,3.8l-.05.15c-1.2,1.17-2.58,1.83-4.15,2h-.05c-1.73.17-3.15-.32-4.25-1.45C.31,28.4-.16,27,.05,25.3c.13-1.67.78-3.12,1.95-4.35l.1-.05c1.1-1.07,2.3-1.73,3.6-2h.05l2.25.1V3C7.93.94,8.75-.06,10.44,0h13.55C25.99,0,26.99.97,26.99,2.9" fill="#fff" stroke-width="0"/>
  </g>
</svg>