<?xml version="1.0" encoding="UTF-8"?>
<svg id="Calque_2" data-name="Calque 2" xmlns="http://www.w3.org/2000/svg" version="1.1" viewBox="0 0 28 32">
  <g id="Calque_1-2" data-name="Calque 1-2">
    <g>
      <path d="M28,2v28c0,.57-.2,1.05-.6,1.45-.4.37-.87.55-1.4.55h-8c-.57,0-1.05-.18-1.45-.55-.37-.4-.55-.88-.55-1.45V2.05c0-.57.18-1.05.55-1.45C16.95.2,17.43,0,18,0h8C26.53,0,27,.2,27.4.6c.4.4.6.87.6,1.4" fill="#fff" stroke-width="0"/>
      <path d="M11.4.6c.4.4.6.87.6,1.4v28c0,.57-.2,1.05-.6,1.45-.4.37-.87.55-1.4.55H2c-.57,0-1.05-.18-1.45-.55C.18,31.05,0,30.57,0,30V2.05c0-.57.18-1.05.55-1.45C.95.2,1.43,0,2,0h8C10.53,0,11,.2,11.4.6" fill="#fff" stroke-width="0"/>
    </g>
  </g>
</svg>