<?xml version="1.0" encoding="UTF-8"?>
<svg id="Calque_1" data-name="Calque 1" xmlns="http://www.w3.org/2000/svg" version="1.1" viewBox="0 0 32 32">
  <path d="M21.65,10.35v-.05c-1.33-1.3-2.88-2.05-4.65-2.25v.95l-.3.7-.7.3-.7-.3c-.2-.2-.3-.43-.3-.7v-.95c-1.77.2-3.32.95-4.65,2.25l-.05.05c-1.3,1.33-2.05,2.88-2.25,4.65h.95c.27,0,.5.1.7.3l.3.7-.3.7c-.2.2-.43.3-.7.3h-.95c.2,1.77.95,3.32,2.25,4.65h.05c1.33,1.33,2.88,2.1,4.65,2.3v-.95c0-.27.1-.5.3-.7.2-.2.43-.3.7-.3s.5.1.7.3l.3.7v.95c1.77-.2,3.32-.97,4.65-2.3,1.33-1.33,2.1-2.88,2.3-4.65h-.95c-.27,0-.5-.1-.7-.3-.2-.2-.3-.43-.3-.7s.1-.5.3-.7c.2-.2.43-.3.7-.3h.95c-.2-1.77-.97-3.32-2.3-4.65M23.05,8.9h.05c1.7,1.73,2.65,3.77,2.85,6.1h1.05c.27,0,.5.1.7.3l.3.7-.3.7c-.2.2-.43.3-.7.3h-1.05c-.2,2.3-1.17,4.32-2.9,6.05-1.73,1.73-3.75,2.7-6.05,2.9v1.05l-.3.7-.7.3-.7-.3c-.2-.2-.3-.43-.3-.7v-1.05c-2.33-.2-4.37-1.15-6.1-2.85v-.05c-1.7-1.73-2.65-3.75-2.85-6.05h-1.05c-.27,0-.5-.1-.7-.3-.2-.2-.3-.43-.3-.7s.1-.5.3-.7c.2-.2.43-.3.7-.3h1.05c.2-2.33,1.15-4.37,2.85-6.1,1.73-1.7,3.77-2.65,6.1-2.85v-1.05c0-.27.1-.5.3-.7.2-.2.43-.3.7-.3s.5.1.7.3l.3.7v1.05c2.3.2,4.32,1.15,6.05,2.85" fill="#fff" stroke-width="0"/>
  <path d="M23.05,8.9c-1.73-1.7-3.75-2.65-6.05-2.85v-1.05l-.3-.7c-.2-.2-.43-.3-.7-.3s-.5.1-.7.3c-.2.2-.3.43-.3.7v1.05c-2.33.2-4.37,1.15-6.1,2.85-1.7,1.73-2.65,3.77-2.85,6.1h-1.05c-.27,0-.5.1-.7.3-.2.2-.3.43-.3.7s.1.5.3.7c.2.2.43.3.7.3h1.05c.2,2.3,1.15,4.32,2.85,6.05v.05c1.73,1.7,3.77,2.65,6.1,2.85v1.05c0,.27.1.5.3.7l.7.3.7-.3.3-.7v-1.05c2.3-.2,4.32-1.17,6.05-2.9,1.73-1.73,2.7-3.75,2.9-6.05h1.05c.27,0,.5-.1.7-.3l.3-.7-.3-.7c-.2-.2-.43-.3-.7-.3h-1.05c-.2-2.33-1.15-4.37-2.85-6.1h-.05M21.65,10.35c1.33,1.33,2.1,2.88,2.3,4.65h-.95c-.27,0-.5.1-.7.3-.2.2-.3.43-.3.7s.1.5.3.7c.2.2.43.3.7.3h.95c-.2,1.77-.97,3.32-2.3,4.65-1.33,1.33-2.88,2.1-4.65,2.3v-.95l-.3-.7c-.2-.2-.43-.3-.7-.3s-.5.1-.7.3c-.2.2-.3.43-.3.7v.95c-1.77-.2-3.32-.97-4.65-2.3h-.05c-1.3-1.33-2.05-2.88-2.25-4.65h.95c.27,0,.5-.1.7-.3l.3-.7-.3-.7c-.2-.2-.43-.3-.7-.3h-.95c.2-1.77.95-3.32,2.25-4.65l.05-.05c1.33-1.3,2.88-2.05,4.65-2.25v.95c0,.27.1.5.3.7l.7.3.7-.3.3-.7v-.95c1.77.2,3.32.95,4.65,2.25v.05M24.5,7.45v.05c1.6,1.63,2.67,3.5,3.2,5.6.53.1,1,.37,1.4.8h.05c.57.57.85,1.27.85,2.1v.05c0,.8-.28,1.48-.85,2.05l-.05.05c-.4.4-.87.67-1.4.8-.53,2.07-1.6,3.92-3.2,5.55-1.63,1.6-3.48,2.67-5.55,3.2-.13.53-.4,1-.8,1.4l-.05.05c-.57.57-1.25.85-2.05.85h-.05c-.83,0-1.53-.28-2.1-.85v-.05c-.43-.4-.7-.87-.8-1.4-2.1-.53-3.97-1.6-5.6-3.2h-.05v-.05c-1.6-1.63-2.63-3.47-3.1-5.5l-1.45-.8v-.05c-.6-.57-.9-1.25-.9-2.05v-.05c0-.83.3-1.53.9-2.1.4-.43.88-.7,1.45-.8.47-2.07,1.5-3.92,3.1-5.55v-.05l.05-.05h.05c1.63-1.6,3.48-2.63,5.55-3.1.1-.57.37-1.05.8-1.45.57-.6,1.27-.9,2.1-.9h.05c.8,0,1.48.3,2.05.9h.05c.4.4.67.88.8,1.45,2.03.47,3.87,1.5,5.5,3.1h.05M20.25,11.75l-1.65-1.2-.45.55-.05.05c-.57.57-1.25.85-2.05.85h-.05c-.83,0-1.53-.28-2.1-.85v-.05l-.45-.55c-.6.27-1.17.65-1.7,1.15v.05h-.05c-.5.53-.88,1.1-1.15,1.7l.55.45h.05c.57.57.85,1.27.85,2.1v.05c0,.8-.28,1.48-.85,2.05l-.05.05-.55.45,1.2,1.65,1.7,1.2.45-.55c.57-.6,1.27-.9,2.1-.9h.05c.8,0,1.48.3,2.05.9h.05l.45.55,1.65-1.2,1.2-1.65-.55-.45v-.05c-.6-.57-.9-1.25-.9-2.05v-.05c0-.83.3-1.53.9-2.1l.55-.45-1.2-1.7" fill="#000" stroke-width="0"/>
</svg>