<?xml version="1.0" encoding="UTF-8"?>
<svg id="Calque_2" data-name="Calque 2" xmlns="http://www.w3.org/2000/svg" viewBox="0 0 64 64">
  <defs>
    <style>
      .cls-1 {
        fill: #bb8044;
      }

      .cls-2 {
        fill: #115f32;
      }

      .cls-3 {
        fill: #198a49;
      }

      .cls-4 {
        fill: #1b914d;
      }

      .cls-5 {
        fill: #27ae60;
      }

      .cls-6 {
        fill: #29b865;
      }

      .cls-7 {
        fill: #24a159;
      }
    </style>
  </defs>
  <g id="Calque_1-2" data-name="Calque 1">
    <g id="Layer0_41_FILL" data-name="Layer0 41 FILL">
      <path class="cls-7" d="m40,64v-4h-4v4h4M64,4h-4v4h4v-4M28,44h-4v4h4v-4m8-4v-4h-4v4h4m-4-20v4h4v-4h-4m-20-4v-4h-4v4h4m44,40v-8h-8v8h8Z"/>
      <path class="cls-5" d="m64,4V0H0v64h36v-4h4v4h24V8h-4v-4h4m-8,12v-4h4v4h-4m0,32v8h-8v-8h8M24,16v8h-8v-8h8m-12-4v4h-4v-4h4m0,16h4v4h-4v-4M28,12v-4h4v4h-4m4,12v-4h4v4h-4M4,52v-4h4v4h-4m32-16v4h-4v-4h4m4,12v-4h4v4h-4m-16-4h4v4h-4v-4Z"/>
      <path class="cls-6" d="m40,44v4h4v-4h-4m-36,4v4h4v-4h-4M28,8v4h4v-4h-4m-12,20h-4v4h4v-4m8-4v-8h-8v8h8m32-12v4h4v-4h-4Z"/>
    </g>
    <g id="Layer0_41_MEMBER_0_FILL" data-name="Layer0 41 MEMBER 0 FILL">
      <path d="m26.05,35h-.05c-.4.4-.8.75-1.2,1.05,0,1.07-.35,1.98-1.05,2.75-.03.1-.08.18-.15.25-.67.7-1.5,1.08-2.5,1.15h-.05c-1.03,0-1.9-.4-2.6-1.2-.67-.83-1.02-1.82-1.05-2.95-.43-.3-.83-.65-1.2-1.05h.05c-.2-.23-.4-.47-.6-.7-1.03.93-1.55,2-1.55,3.2,0,1.47.68,2.72,2.05,3.75s3.02,1.55,4.95,1.55c1.93,0,3.58-.52,4.95-1.55,1.37-1.03,2.05-2.28,2.05-3.75,0-1.2-.52-2.25-1.55-3.15-.13.2-.3.42-.5.65Z"/>
    </g>
    <g id="Layer0_41_MEMBER_0_MEMBER_0_FILL" data-name="Layer0 41 MEMBER 0 MEMBER 0 FILL">
      <path class="cls-2" d="m20.4,10.15c-.47.17-.82.47-1.05.9l-4.65,8.25c-.2.37-.27.78-.2,1.25.03.43.22.82.55,1.15l.75.75-3.3,7.4s-.05.02-.05.05c-1,2.3-.32,4.1,2.05,5.4.03.03.08.07.15.1.7.3,1.4.55,2.1.75.03,1.2.47,2.22,1.3,3.05.83.83,1.87,1.25,3.1,1.25,1.2,0,2.22-.42,3.05-1.25.03-.03.07-.07.1-.1.83-.83,1.25-1.83,1.25-3,.67-.2,1.33-.43,2-.7.03,0,.07-.02.1-.05,2.43-1.23,3.17-2.93,2.2-5.1,0-.03,0-.07,0-.1l-3.4-7.7.75-.8c.3-.33.48-.72.55-1.15.03-.43-.05-.83-.25-1.2l-4.65-8.25c-.23-.43-.58-.73-1.05-.9-.47-.2-.93-.2-1.4,0m-3.95,10.1l1.2-2.05,3.45-6.2,3.5,6.2,1.15,2.05-1.7,1.75,3.95,8.95c.43,1.1.02,1.97-1.25,2.6-1.07.47-2.13.8-3.2,1v1.5c0,.67-.25,1.23-.75,1.7-.43.47-.98.7-1.65.7-.67,0-1.23-.23-1.7-.7s-.7-1.03-.7-1.7v-1.45c-1.1-.2-2.2-.55-3.3-1.05-1.27-.7-1.65-1.67-1.15-2.9l3.9-8.65-1.75-1.75Z"/>
      <path class="cls-1" d="m23.55,34.55c-1.63.3-3.23.32-4.8.05v1.45c0,.67.23,1.23.7,1.7s1.03.7,1.7.7c.67,0,1.22-.23,1.65-.7.5-.47.75-1.03.75-1.7v-1.5Z"/>
      <path class="cls-4" d="m24.05,22c-1.8.9-3.75.9-5.85,0l-3.9,8.65c-.5,1.23-.12,2.2,1.15,2.9,1.1.5,2.2.85,3.3,1.05,1.57.27,3.17.25,4.8-.05,1.07-.2,2.13-.53,3.2-1,1.27-.63,1.68-1.5,1.25-2.6l-3.95-8.95m-2.95-10l-3.45,6.2c2.4.57,4.72.57,6.95,0l-3.5-6.2Z"/>
      <path class="cls-3" d="m17.65,18.2l-1.2,2.05,1.75,1.75c2.1.9,4.05.9,5.85,0l1.7-1.75-1.15-2.05c-2.23.57-4.55.57-6.95,0Z"/>
    </g>
  </g>
</svg>