<?xml version="1.0" encoding="UTF-8"?>
<svg id="Calque_2" data-name="Calque 2" xmlns="http://www.w3.org/2000/svg" viewBox="0 0 64 64">
  <defs>
    <style>
      .cls-1 {
        fill: #bb8044;
      }

      .cls-2 {
        fill: #115f32;
      }

      .cls-3 {
        fill: #1b914d;
      }

      .cls-4 {
        fill: #27ae60;
      }

      .cls-5 {
        fill: #29b865;
      }

      .cls-6 {
        fill: #24a159;
      }
    </style>
  </defs>
  <g id="Calque_1-2" data-name="Calque 1">
    <g id="Layer0_39_FILL" data-name="Layer0 39 FILL">
      <path class="cls-6" d="m60,8h4v-4h-4v4m-12,40v8h8v-8h-8m-24,0h4v-4h-4v4m12-8v-4h-4v4h4m-4-16h4v-4h-4v4m-20-8v-4h-4v4h4m24,48h4v-4h-4v4Z"/>
      <path class="cls-4" d="m40,60v4h24V8h-4v-4h4V0H0v64h36v-4h4M16,24v-8h8v8h-8m-4-12v4h-4v-4h4m16,0v-4h4v4h-4m8,12h-4v-4h4v4M4,48h4v4h-4v-4m32-12v4h-4v-4h4m8,8v4h-4v-4h4m-16,4h-4v-4h4v4m-16-16v-4h4v4h-4m36,24v-8h8v8h-8m12-40h-4v-4h4v4Z"/>
      <path class="cls-5" d="m56,16h4v-4h-4v4M12,28v4h4v-4h-4m32,20v-4h-4v4h4m-36,0h-4v4h4v-4M28,8v4h4v-4h-4m-12,8v8h8v-8h-8Z"/>
    </g>
    <g id="Layer0_39_MEMBER_0_FILL" data-name="Layer0 39 MEMBER 0 FILL">
      <path d="m15,45.55c0,1.23.68,2.28,2.05,3.15,1.37.87,3.02,1.3,4.95,1.3s3.58-.43,4.95-1.3c1.37-.87,2.05-1.92,2.05-3.15,0-1.03-.52-1.93-1.55-2.7-.13.17-.3.35-.5.55h-.05c-.4.33-.8.63-1.2.9,0,.9-.35,1.68-1.05,2.35-.03.07-.08.13-.15.2-.67.6-1.5.92-2.5.95h-.05c-1.03,0-1.9-.33-2.6-1-.67-.7-1.02-1.53-1.05-2.5-.43-.27-.83-.57-1.2-.9h.05c-.2-.2-.4-.4-.6-.6-1.03.8-1.55,1.72-1.55,2.75Z"/>
      <path class="cls-2" d="m21.95,18.05c-2.3-.3-4.1,1.95-5.4,6.75-1.03,3.6-1.55,7.98-1.55,13.15v.9c.03,1.47.55,2.78,1.55,3.95.2.2.4.4.6.6h-.05c.37.33.77.63,1.2.9.03.97.38,1.8,1.05,2.5.7.67,1.57,1,2.6,1h.05c1-.03,1.83-.35,2.5-.95.07-.07.12-.13.15-.2.7-.67,1.05-1.45,1.05-2.35.4-.27.8-.57,1.2-.9h.05c.2-.2.37-.38.5-.55.93-1.2,1.42-2.53,1.45-4v-.05c0-.27,0-.55,0-.85,0-5.17-.48-9.55-1.45-13.15-1.33-4.83-3.17-7.08-5.5-6.75m-3.4,7.25c.93-3.47,2.07-5.2,3.4-5.2s2.53,1.73,3.5,5.2c.93,3.47,1.4,7.68,1.4,12.65,0,.3,0,.58,0,.85-.03,1.13-.43,2.12-1.2,2.95-.07.03-.13.08-.2.15-.57.53-1.18.92-1.85,1.15v1.15c0,.43-.17.8-.5,1.1-.27.3-.63.45-1.1.45h-.05c-.43,0-.82-.15-1.15-.45-.3-.3-.45-.67-.45-1.1v-1.15c-.67-.2-1.27-.58-1.8-1.15-.07-.07-.12-.12-.15-.15-.83-.83-1.27-1.82-1.3-2.95,0-.27,0-.55,0-.85,0-4.97.48-9.18,1.45-12.65Z"/>
      <path class="cls-1" d="m23.6,43.05c-.5.17-1.05.25-1.65.25-.57,0-1.1-.08-1.6-.25v1.15c0,.43.15.8.45,1.1.33.3.72.45,1.15.45h.05c.47,0,.83-.15,1.1-.45.33-.3.5-.67.5-1.1v-1.15Z"/>
      <path class="cls-3" d="m21.95,20.1c-1.33,0-2.47,1.73-3.4,5.2-.97,3.47-1.45,7.68-1.45,12.65,0,.3,0,.58,0,.85.03,1.13.47,2.12,1.3,2.95.03.03.08.08.15.15.53.57,1.13.95,1.8,1.15.5.17,1.03.25,1.6.25.6,0,1.15-.08,1.65-.25.67-.23,1.28-.62,1.85-1.15.07-.07.13-.12.2-.15.77-.83,1.17-1.82,1.2-2.95,0-.27,0-.55,0-.85,0-4.97-.47-9.18-1.4-12.65-.97-3.47-2.13-5.2-3.5-5.2Z"/>
    </g>
  </g>
</svg>