<?xml version="1.0" encoding="UTF-8"?>
<svg id="Calque_2" data-name="Calque 2" xmlns="http://www.w3.org/2000/svg" viewBox="0 0 64 64">
  <defs>
    <style>
      .cls-1 {
        fill: #bb8044;
      }

      .cls-2 {
        fill: #115f32;
      }

      .cls-3 {
        fill: #198a49;
      }

      .cls-4 {
        fill: #1b914d;
      }

      .cls-5 {
        fill: #27ae60;
      }

      .cls-6 {
        fill: #29b865;
      }

      .cls-7 {
        fill: #24a159;
      }
    </style>
  </defs>
  <g id="Calque_1-2" data-name="Calque 1">
    <g id="Layer0_40_FILL" data-name="Layer0 40 FILL">
      <path class="cls-7" d="m36,64h4v-4h-4v4M60,8h4v-4h-4v4m-4,48v-8h-8v8h8m-24-20v4h4v-4h-4m-4,12v-4h-4v4h4m4-24h4v-4h-4v4m-20-8v-4h-4v4h4Z"/>
      <path class="cls-5" d="m64,8h-4v-4h4V0H0v64h36v-4h4v4h24V8m-8,8v-4h4v4h-4M12,12v4h-4v-4h4m4,4h8v8h-8v-8m12-4v-4h4v4h-4m8,12h-4v-4h4v4m-8,20v4h-4v-4h4m16,0v4h-4v-4h4m-12-4v-4h4v4h-4m-20-12h4v4h-4v-4m-8,20h4v4h-4v-4m52,0v8h-8v-8h8Z"/>
      <path class="cls-6" d="m8,48h-4v4h4v-4m8-20h-4v4h4v-4m28,20v-4h-4v4h4M28,8v4h4v-4h-4m-4,8h-8v8h8v-8m32-4v4h4v-4h-4Z"/>
    </g>
    <g id="Layer0_40_MEMBER_0_FILL" data-name="Layer0 40 MEMBER 0 FILL">
      <path d="m44.3,38.05c-.2.07-.38.15-.55.25-1.83,1-2.75,2.2-2.75,3.6s.92,2.63,2.75,3.6c1.87,1,4.12,1.5,6.75,1.5s4.87-.5,6.7-1.5c1.87-.97,2.8-2.17,2.8-3.6s-.93-2.6-2.8-3.6c-.23-.13-.47-.23-.7-.3-.53.5-1.13.93-1.8,1.3v.45c0,1.2-.4,2.22-1.2,3.05-.07.03-.12.08-.15.15-.8.8-1.78,1.2-2.95,1.2h-.05c-1.23,0-2.27-.42-3.1-1.25-.8-.87-1.2-1.92-1.2-3.15v-.45c-.63-.37-1.22-.78-1.75-1.25Z"/>
      <path class="cls-2" d="m57.3,10.45c-.73-2.67-1.53-4.78-2.4-6.35-1.33-2.23-2.85-3.27-4.55-3.1-1.73-.17-3.23.85-4.5,3.05-.93,1.57-1.75,3.7-2.45,6.4-.07.2-.12.4-.15.6-1.33,5.27-2,11.63-2,19.1v1.4c.07,2.37.95,4.42,2.65,6.15.13.13.27.25.4.35.53.47,1.12.88,1.75,1.25v.45c0,1.23.4,2.28,1.2,3.15.83.83,1.87,1.25,3.1,1.25h.05c1.17,0,2.15-.4,2.95-1.2.03-.07.08-.12.15-.15.8-.83,1.2-1.85,1.2-3.05v-.45c.67-.37,1.27-.8,1.8-1.3l.3-.3c1.7-1.73,2.58-3.78,2.65-6.15,0-.03,0-.07,0-.1,0-.37,0-.8,0-1.3,0-7.5-.67-13.9-2-19.2-.07-.17-.12-.33-.15-.5m-1.9.5l.3,1.2c.4,1.9.75,3.92,1.05,6.05.1.73.18,1.48.25,2.25.1,1,.18,2.03.25,3.1.1,1.57.17,3.2.2,4.9,0,.23,0,.47,0,.7,0,.33,0,.67,0,1,0,.5,0,.93,0,1.3-.07,1.87-.75,3.47-2.05,4.8-.37.37-.75.7-1.15,1-.5.3-1.02.55-1.55.75v1.75c0,.67-.23,1.22-.7,1.65-.43.47-.97.7-1.6.7h-.05c-.67,0-1.23-.23-1.7-.7-.43-.43-.65-.98-.65-1.65v-1.75c-.53-.2-1-.43-1.4-.7-.47-.3-.9-.65-1.3-1.05-1.33-1.33-2.03-2.93-2.1-4.8,0-.37,0-.8,0-1.3,0-.33,0-.67,0-1,0-.23,0-.47,0-.7.03-1.67.1-3.3.2-4.9.07-1.07.15-2.1.25-3.1.07-.77.15-1.52.25-2.25.3-2.13.67-4.15,1.1-6.05.1-.4.2-.8.3-1.2.17-.63.35-1.22.55-1.75,1.07-3.63,2.35-5.67,3.85-6.1.2-.07.42-.1.65-.1s.45.03.65.1c1.47.43,2.77,2.47,3.9,6.1.17.53.33,1.12.5,1.75Z"/>
      <path class="cls-1" d="m52.7,38c-.73.23-1.52.35-2.35.35s-1.62-.12-2.35-.35v1.75c0,.67.22,1.22.65,1.65.47.47,1.03.7,1.7.7h.05c.63,0,1.17-.23,1.6-.7.47-.43.7-.98.7-1.65v-1.75Z"/>
      <path class="cls-4" d="m43.2,30.15c0,.5,0,.93,0,1.3.07,1.87.77,3.47,2.1,4.8.4.4.83.75,1.3,1.05.4.27.87.5,1.4.7.73.23,1.52.35,2.35.35s1.62-.12,2.35-.35c.53-.2,1.05-.45,1.55-.75.4-.3.78-.63,1.15-1,1.3-1.33,1.98-2.93,2.05-4.8,0-.37,0-.8,0-1.3,0-.33,0-.67,0-1-.07,1.47-.75,2.72-2.05,3.75-.37.33-.75.62-1.15.85-.5.23-1.02.43-1.55.6-.73.2-1.52.3-2.35.3s-1.62-.1-2.35-.3c-.53-.17-1-.35-1.4-.55-.47-.23-.9-.53-1.3-.9-1.33-1.03-2.03-2.28-2.1-3.75,0,.33,0,.67,0,1m2.1-4.6c.4.27.83.48,1.3.65.4.17.87.3,1.4.4.73.17,1.52.25,2.35.25s1.62-.08,2.35-.25c.53-.1,1.05-.25,1.55-.45.4-.17.78-.37,1.15-.6.93-.57,1.55-1.23,1.85-2-.07-1.07-.15-2.1-.25-3.1-.07-.77-.15-1.52-.25-2.25-.03,0-.05.02-.05.05-.37.3-.8.58-1.3.85-.37.2-.75.37-1.15.5-.5.13-1.02.25-1.55.35-.73.13-1.52.2-2.35.2s-1.62-.07-2.35-.2c-.53-.1-1-.22-1.4-.35-.47-.13-.9-.3-1.3-.5-.53-.27-.97-.55-1.3-.85-.03-.03-.07-.05-.1-.05-.1.73-.18,1.48-.25,2.25-.1,1-.18,2.03-.25,3.1.3.77.93,1.43,1.9,2m10.4-13.4l-.3-1.2c-.17-.63-.33-1.22-.5-1.75-1.13-3.63-2.43-5.67-3.9-6.1-.2-.07-.42-.1-.65-.1s-.45.03-.65.1c-1.5.43-2.78,2.47-3.85,6.1-.2.53-.38,1.12-.55,1.75-.1.4-.2.8-.3,1.2.1.03.2.07.3.1.07.03.15.07.25.1.33.1.68.18,1.05.25.4.07.87.13,1.4.2.73.07,1.52.1,2.35.1s1.62-.03,2.35-.1c.53-.07,1.05-.15,1.55-.25.33-.07.65-.13.95-.2.07-.03.13-.07.2-.1.1-.03.2-.07.3-.1Z"/>
      <path class="cls-3" d="m46.6,26.2c-.47-.17-.9-.38-1.3-.65-.97-.57-1.6-1.23-1.9-2-.1,1.6-.17,3.23-.2,4.9,0,.23,0,.47,0,.7.07,1.47.77,2.72,2.1,3.75.4.37.83.67,1.3.9.4.2.87.38,1.4.55.73.2,1.52.3,2.35.3s1.62-.1,2.35-.3c.53-.17,1.05-.37,1.55-.6.4-.23.78-.52,1.15-.85,1.3-1.03,1.98-2.28,2.05-3.75,0-.23,0-.47,0-.7-.03-1.7-.1-3.33-.2-4.9-.3.77-.92,1.43-1.85,2-.37.23-.75.43-1.15.6-.5.2-1.02.35-1.55.45-.73.17-1.52.25-2.35.25s-1.62-.08-2.35-.25c-.53-.1-1-.23-1.4-.4m9.1-14.05c-.1.03-.2.07-.3.1-.07.03-.13.07-.2.1-.3.07-.62.13-.95.2-.5.1-1.02.18-1.55.25-.73.07-1.52.1-2.35.1s-1.62-.03-2.35-.1c-.53-.07-1-.13-1.4-.2-.37-.07-.72-.15-1.05-.25-.1-.03-.18-.07-.25-.1-.1-.03-.2-.07-.3-.1-.43,1.9-.8,3.92-1.1,6.05.03,0,.07.02.1.05.33.3.77.58,1.3.85.4.2.83.37,1.3.5.4.13.87.25,1.4.35.73.13,1.52.2,2.35.2s1.62-.07,2.35-.2c.53-.1,1.05-.22,1.55-.35.4-.13.78-.3,1.15-.5.5-.27.93-.55,1.3-.85,0-.03.02-.05.05-.05-.3-2.13-.65-4.15-1.05-6.05Z"/>
    </g>
    <g id="Layer0_40_MEMBER_1_FILL" data-name="Layer0 40 MEMBER 1 FILL">
      <path d="m26.1,26.4h.05l-.6-.6c-1.03.8-1.55,1.72-1.55,2.75,0,1.23.68,2.28,2.05,3.15,1.37.87,3.02,1.3,4.95,1.3s3.58-.43,4.95-1.3c1.37-.87,2.05-1.92,2.05-3.15,0-1.03-.52-1.93-1.55-2.7-.13.17-.3.35-.5.55h-.05c-.4.33-.8.63-1.2.9,0,.9-.35,1.68-1.05,2.35-.03.07-.08.13-.15.2-.67.6-1.5.92-2.5.95h-.05c-1.03,0-1.9-.33-2.6-1-.67-.7-1.02-1.53-1.05-2.5-.43-.27-.83-.57-1.2-.9Z"/>
      <path class="cls-2" d="m24,21.8v.05c.03,1.47.55,2.78,1.55,3.95l.6.6h-.05c.37.33.77.63,1.2.9.03.97.38,1.8,1.05,2.5.7.67,1.57,1,2.6,1h.05c1-.03,1.83-.35,2.5-.95.07-.07.12-.13.15-.2.7-.67,1.05-1.45,1.05-2.35.4-.27.8-.57,1.2-.9h.05c.2-.2.37-.38.5-.55.93-1.2,1.42-2.53,1.45-4v-.9c0-5.17-.48-9.55-1.45-13.15-1.33-4.83-3.17-7.08-5.5-6.75-2.3-.3-4.1,1.95-5.4,6.75-1.03,3.6-1.55,7.98-1.55,13.15v.85m3.55-13.5c.93-3.47,2.07-5.2,3.4-5.2s2.53,1.73,3.5,5.2c.93,3.47,1.4,7.68,1.4,12.65v.85c-.03,1.13-.43,2.12-1.2,2.95-.07.03-.13.08-.2.15-.57.53-1.18.92-1.85,1.15v1.15c0,.43-.17.8-.5,1.1-.27.3-.63.45-1.1.45h-.05c-.43,0-.82-.15-1.15-.45-.3-.3-.45-.67-.45-1.1v-1.15c-.67-.2-1.27-.58-1.8-1.15-.07-.07-.12-.12-.15-.15-.83-.83-1.27-1.82-1.3-2.95v-.85c0-4.97.48-9.18,1.45-12.65Z"/>
      <path class="cls-1" d="m30.95,26.3c-.57,0-1.1-.08-1.6-.25v1.15c0,.43.15.8.45,1.1.33.3.72.45,1.15.45h.05c.47,0,.83-.15,1.1-.45.33-.3.5-.67.5-1.1v-1.15c-.5.17-1.05.25-1.65.25Z"/>
      <path class="cls-4" d="m30.95,3.1c-1.33,0-2.47,1.73-3.4,5.2-.97,3.47-1.45,7.68-1.45,12.65v.85c.03,1.13.47,2.12,1.3,2.95.03.03.08.08.15.15.53.57,1.13.95,1.8,1.15.5.17,1.03.25,1.6.25.6,0,1.15-.08,1.65-.25.67-.23,1.28-.62,1.85-1.15.07-.07.13-.12.2-.15.77-.83,1.17-1.82,1.2-2.95v-.85c0-4.97-.47-9.18-1.4-12.65-.97-3.47-2.13-5.2-3.5-5.2Z"/>
    </g>
    <g id="Layer0_40_MEMBER_2_FILL" data-name="Layer0 40 MEMBER 2 FILL">
      <path d="m40.5,56.8c-.07.03-.12.08-.15.15-.8.8-1.78,1.2-2.95,1.2h-.05c-1.23,0-2.27-.42-3.1-1.25-.8-.87-1.2-1.92-1.2-3.15v-.45c-.63-.37-1.22-.78-1.75-1.25-.2.07-.38.15-.55.25-1.83,1-2.75,2.2-2.75,3.6s.92,2.63,2.75,3.6c1.87,1,4.12,1.5,6.75,1.5s4.87-.5,6.7-1.5c1.87-.97,2.8-2.17,2.8-3.6s-.93-2.6-2.8-3.6c-.23-.13-.47-.23-.7-.3-.53.5-1.13.93-1.8,1.3v.45c0,1.2-.4,2.22-1.2,3.05Z"/>
      <path class="cls-2" d="m32.85,18.05c-.93,1.57-1.75,3.7-2.45,6.4-.07.2-.12.4-.15.6-1.33,5.27-2,11.63-2,19.1v1.4c.07,2.37.95,4.42,2.65,6.15.13.13.27.25.4.35.53.47,1.12.88,1.75,1.25v.45c0,1.23.4,2.28,1.2,3.15.83.83,1.87,1.25,3.1,1.25h.05c1.17,0,2.15-.4,2.95-1.2.03-.07.08-.12.15-.15.8-.83,1.2-1.85,1.2-3.05v-.45c.67-.37,1.27-.8,1.8-1.3l.3-.3c1.7-1.73,2.58-3.78,2.65-6.15,0-.03,0-.07,0-.1,0-.37,0-.8,0-1.3,0-7.5-.67-13.9-2-19.2-.07-.17-.12-.33-.15-.5-.73-2.67-1.53-4.78-2.4-6.35-1.33-2.23-2.85-3.27-4.55-3.1-1.73-.17-3.23.85-4.5,3.05m-.55,6.9c.17-.63.35-1.22.55-1.75,1.07-3.63,2.35-5.67,3.85-6.1.2-.07.42-.1.65-.1s.45.03.65.1c1.47.43,2.77,2.47,3.9,6.1.17.53.33,1.12.5,1.75l.3,1.2c.4,1.9.75,3.92,1.05,6.05.1.73.18,1.48.25,2.25.1,1,.18,2.03.25,3.1.1,1.57.17,3.2.2,4.9,0,.23,0,.47,0,.7,0,.33,0,.67,0,1,0,.5,0,.93,0,1.3-.07,1.87-.75,3.47-2.05,4.8-.37.37-.75.7-1.15,1-.5.3-1.02.55-1.55.75v1.75c0,.67-.23,1.22-.7,1.65-.43.47-.97.7-1.6.7h-.05c-.67,0-1.23-.23-1.7-.7-.43-.43-.65-.98-.65-1.65v-1.75c-.53-.2-1-.43-1.4-.7-.47-.3-.9-.65-1.3-1.05-1.33-1.33-2.03-2.93-2.1-4.8,0-.37,0-.8,0-1.3,0-.33,0-.67,0-1,0-.23,0-.47,0-.7.03-1.67.1-3.3.2-4.9.07-1.07.15-2.1.25-3.1.07-.77.15-1.52.25-2.25.3-2.13.67-4.15,1.1-6.05.1-.4.2-.8.3-1.2Z"/>
      <path class="cls-1" d="m39.7,53.75v-1.75c-.73.23-1.52.35-2.35.35s-1.62-.12-2.35-.35v1.75c0,.67.22,1.22.65,1.65.47.47,1.03.7,1.7.7h.05c.63,0,1.17-.23,1.6-.7.47-.43.7-.98.7-1.65Z"/>
      <path class="cls-4" d="m30.2,43.15c0,.33,0,.67,0,1,0,.5,0,.93,0,1.3.07,1.87.77,3.47,2.1,4.8.4.4.83.75,1.3,1.05.4.27.87.5,1.4.7.73.23,1.52.35,2.35.35s1.62-.12,2.35-.35c.53-.2,1.05-.45,1.55-.75.4-.3.78-.63,1.15-1,1.3-1.33,1.98-2.93,2.05-4.8,0-.37,0-.8,0-1.3,0-.33,0-.67,0-1-.07,1.47-.75,2.72-2.05,3.75-.37.33-.75.62-1.15.85-.5.23-1.02.43-1.55.6-.73.2-1.52.3-2.35.3s-1.62-.1-2.35-.3c-.53-.17-1-.35-1.4-.55-.47-.23-.9-.53-1.3-.9-1.33-1.03-2.03-2.28-2.1-3.75m13.55-10.95s-.05.02-.05.05c-.37.3-.8.58-1.3.85-.37.2-.75.37-1.15.5-.5.13-1.02.25-1.55.35-.73.13-1.52.2-2.35.2s-1.62-.07-2.35-.2c-.53-.1-1-.22-1.4-.35-.47-.13-.9-.3-1.3-.5-.53-.27-.97-.55-1.3-.85-.03-.03-.07-.05-.1-.05-.1.73-.18,1.48-.25,2.25-.1,1-.18,2.03-.25,3.1.3.77.93,1.43,1.9,2,.4.27.83.48,1.3.65.4.17.87.3,1.4.4.73.17,1.52.25,2.35.25s1.62-.08,2.35-.25c.53-.1,1.05-.25,1.55-.45.4-.17.78-.37,1.15-.6.93-.57,1.55-1.23,1.85-2-.07-1.07-.15-2.1-.25-3.1-.07-.77-.15-1.52-.25-2.25m-10.9-9c-.2.53-.38,1.12-.55,1.75-.1.4-.2.8-.3,1.2.1.03.2.07.3.1.07.03.15.07.25.1.33.1.68.18,1.05.25.4.07.87.13,1.4.2.73.07,1.52.1,2.35.1s1.62-.03,2.35-.1c.53-.07,1.05-.15,1.55-.25.33-.07.65-.13.95-.2.07-.03.13-.07.2-.1.1-.03.2-.07.3-.1l-.3-1.2c-.17-.63-.33-1.22-.5-1.75-1.13-3.63-2.43-5.67-3.9-6.1-.2-.07-.42-.1-.65-.1s-.45.03-.65.1c-1.5.43-2.78,2.47-3.85,6.1Z"/>
      <path class="cls-3" d="m30.2,42.45c0,.23,0,.47,0,.7.07,1.47.77,2.72,2.1,3.75.4.37.83.67,1.3.9.4.2.87.38,1.4.55.73.2,1.52.3,2.35.3s1.62-.1,2.35-.3c.53-.17,1.05-.37,1.55-.6.4-.23.78-.52,1.15-.85,1.3-1.03,1.98-2.28,2.05-3.75,0-.23,0-.47,0-.7-.03-1.7-.1-3.33-.2-4.9-.3.77-.92,1.43-1.85,2-.37.23-.75.43-1.15.6-.5.2-1.02.35-1.55.45-.73.17-1.52.25-2.35.25s-1.62-.08-2.35-.25c-.53-.1-1-.23-1.4-.4-.47-.17-.9-.38-1.3-.65-.97-.57-1.6-1.23-1.9-2-.1,1.6-.17,3.23-.2,4.9m2.1-16.2c-.1-.03-.2-.07-.3-.1-.43,1.9-.8,3.92-1.1,6.05.03,0,.07.02.1.05.33.3.77.58,1.3.85.4.2.83.37,1.3.5.4.13.87.25,1.4.35.73.13,1.52.2,2.35.2s1.62-.07,2.35-.2c.53-.1,1.05-.22,1.55-.35.4-.13.78-.3,1.15-.5.5-.27.93-.55,1.3-.85,0-.03.02-.05.05-.05-.3-2.13-.65-4.15-1.05-6.05-.1.03-.2.07-.3.1-.07.03-.13.07-.2.1-.3.07-.62.13-.95.2-.5.1-1.02.18-1.55.25-.73.07-1.52.1-2.35.1s-1.62-.03-2.35-.1c-.53-.07-1-.13-1.4-.2-.37-.07-.72-.15-1.05-.25-.1-.03-.18-.07-.25-.1Z"/>
    </g>
    <g id="Layer0_40_MEMBER_3_FILL" data-name="Layer0 40 MEMBER 3 FILL">
      <path d="m6.3,39.05c-.2.07-.38.15-.55.25-1.83,1-2.75,2.2-2.75,3.6s.92,2.63,2.75,3.6c1.87,1,4.12,1.5,6.75,1.5s4.87-.5,6.7-1.5c1.87-.97,2.8-2.17,2.8-3.6s-.93-2.6-2.8-3.6c-.23-.13-.47-.23-.7-.3-.53.5-1.13.93-1.8,1.3v.45c0,1.2-.4,2.22-1.2,3.05-.07.03-.12.08-.15.15-.8.8-1.78,1.2-2.95,1.2h-.05c-1.23,0-2.27-.42-3.1-1.25-.8-.87-1.2-1.92-1.2-3.15v-.45c-.63-.37-1.22-.78-1.75-1.25Z"/>
      <path class="cls-2" d="m19.3,11.45c-.73-2.67-1.53-4.78-2.4-6.35-1.33-2.23-2.85-3.27-4.55-3.1-1.73-.17-3.23.85-4.5,3.05-.93,1.57-1.75,3.7-2.45,6.4-.07.2-.12.4-.15.6-1.33,5.27-2,11.63-2,19.1v1.4c.07,2.37.95,4.42,2.65,6.15.13.13.27.25.4.35.53.47,1.12.88,1.75,1.25v.45c0,1.23.4,2.28,1.2,3.15.83.83,1.87,1.25,3.1,1.25h.05c1.17,0,2.15-.4,2.95-1.2.03-.07.08-.12.15-.15.8-.83,1.2-1.85,1.2-3.05v-.45c.67-.37,1.27-.8,1.8-1.3l.3-.3c1.7-1.73,2.58-3.78,2.65-6.15,0-.03,0-.07,0-.1,0-.37,0-.8,0-1.3,0-7.5-.67-13.9-2-19.2-.07-.17-.12-.33-.15-.5m-2.4-1.25c.17.53.33,1.12.5,1.75l.3,1.2c.4,1.9.75,3.92,1.05,6.05.1.73.18,1.48.25,2.25.1,1,.18,2.03.25,3.1.1,1.57.17,3.2.2,4.9v3c-.07,1.87-.75,3.47-2.05,4.8-.37.37-.75.7-1.15,1-.5.3-1.02.55-1.55.75v1.75c0,.67-.23,1.22-.7,1.65-.43.47-.97.7-1.6.7h-.05c-.67,0-1.23-.23-1.7-.7-.43-.43-.65-.98-.65-1.65v-1.75c-.53-.2-1-.43-1.4-.7-.47-.3-.9-.65-1.3-1.05-1.33-1.33-2.03-2.93-2.1-4.8v-3c.03-1.67.1-3.3.2-4.9.07-1.07.15-2.1.25-3.1.07-.77.15-1.52.25-2.25.3-2.13.67-4.15,1.1-6.05.1-.4.2-.8.3-1.2.17-.63.35-1.22.55-1.75,1.07-3.63,2.35-5.67,3.85-6.1.2-.07.42-.1.65-.1s.45.03.65.1c1.47.43,2.77,2.47,3.9,6.1Z"/>
      <path class="cls-1" d="m12.35,39.35c-.83,0-1.62-.12-2.35-.35v1.75c0,.67.22,1.22.65,1.65.47.47,1.03.7,1.7.7h.05c.63,0,1.17-.23,1.6-.7.47-.43.7-.98.7-1.65v-1.75c-.73.23-1.52.35-2.35.35Z"/>
      <path class="cls-4" d="m19.45,31.15v-1c-.07,1.47-.75,2.72-2.05,3.75-.37.33-.75.62-1.15.85-.5.23-1.02.43-1.55.6-.73.2-1.52.3-2.35.3s-1.62-.1-2.35-.3c-.53-.17-1-.35-1.4-.55-.47-.23-.9-.53-1.3-.9-1.33-1.03-2.03-2.28-2.1-3.75v2.3c.07,1.87.77,3.47,2.1,4.8.4.4.83.75,1.3,1.05.4.27.87.5,1.4.7.73.23,1.52.35,2.35.35s1.62-.12,2.35-.35c.53-.2,1.05-.45,1.55-.75.4-.3.78-.63,1.15-1,1.3-1.33,1.98-2.93,2.05-4.8v-1.3m-13.8-9.7c-.1,1-.18,2.03-.25,3.1.3.77.93,1.43,1.9,2,.4.27.83.48,1.3.65.4.17.87.3,1.4.4.73.17,1.52.25,2.35.25s1.62-.08,2.35-.25c.53-.1,1.05-.25,1.55-.45.4-.17.78-.37,1.15-.6.93-.57,1.55-1.23,1.85-2-.07-1.07-.15-2.1-.25-3.1-.07-.77-.15-1.52-.25-2.25-.03,0-.05.02-.05.05-.37.3-.8.58-1.3.85-.37.2-.75.37-1.15.5-.5.13-1.02.25-1.55.35-.73.13-1.52.2-2.35.2s-1.62-.07-2.35-.2c-.53-.1-1-.22-1.4-.35-.47-.13-.9-.3-1.3-.5-.53-.27-.97-.55-1.3-.85-.03-.03-.07-.05-.1-.05-.1.73-.18,1.48-.25,2.25m11.75-9.5c-.17-.63-.33-1.22-.5-1.75-1.13-3.63-2.43-5.67-3.9-6.1-.2-.07-.42-.1-.65-.1s-.45.03-.65.1c-1.5.43-2.78,2.47-3.85,6.1-.2.53-.38,1.12-.55,1.75-.1.4-.2.8-.3,1.2.1.03.2.07.3.1.07.03.15.07.25.1.33.1.68.18,1.05.25.4.07.87.13,1.4.2.73.07,1.52.1,2.35.1s1.62-.03,2.35-.1c.53-.07,1.05-.15,1.55-.25.33-.07.65-.13.95-.2.07-.03.13-.07.2-.1.1-.03.2-.07.3-.1l-.3-1.2Z"/>
      <path class="cls-3" d="m19.45,30.15v-.7c-.03-1.7-.1-3.33-.2-4.9-.3.77-.92,1.43-1.85,2-.37.23-.75.43-1.15.6-.5.2-1.02.35-1.55.45-.73.17-1.52.25-2.35.25s-1.62-.08-2.35-.25c-.53-.1-1-.23-1.4-.4-.47-.17-.9-.38-1.3-.65-.97-.57-1.6-1.23-1.9-2-.1,1.6-.17,3.23-.2,4.9v.7c.07,1.47.77,2.72,2.1,3.75.4.37.83.67,1.3.9.4.2.87.38,1.4.55.73.2,1.52.3,2.35.3s1.62-.1,2.35-.3c.53-.17,1.05-.37,1.55-.6.4-.23.78-.52,1.15-.85,1.3-1.03,1.98-2.28,2.05-3.75m-3.2-16.6c-.5.1-1.02.18-1.55.25-.73.07-1.52.1-2.35.1s-1.62-.03-2.35-.1c-.53-.07-1-.13-1.4-.2-.37-.07-.72-.15-1.05-.25-.1-.03-.18-.07-.25-.1-.1-.03-.2-.07-.3-.1-.43,1.9-.8,3.92-1.1,6.05.03,0,.07.02.1.05.33.3.77.58,1.3.85.4.2.83.37,1.3.5.4.13.87.25,1.4.35.73.13,1.52.2,2.35.2s1.62-.07,2.35-.2c.53-.1,1.05-.22,1.55-.35.4-.13.78-.3,1.15-.5.5-.27.93-.55,1.3-.85,0-.03.02-.05.05-.05-.3-2.13-.65-4.15-1.05-6.05-.1.03-.2.07-.3.1-.07.03-.13.07-.2.1-.3.07-.62.13-.95.2Z"/>
    </g>
    <g id="Layer0_40_MEMBER_4_FILL" data-name="Layer0 40 MEMBER 4 FILL">
      <path d="m24.95,49.4h-.05c-.4.33-.8.63-1.2.9,0,.9-.35,1.68-1.05,2.35-.03.07-.08.13-.15.2-.67.6-1.5.92-2.5.95h-.05c-1.03,0-1.9-.33-2.6-1-.67-.7-1.02-1.53-1.05-2.5-.43-.27-.83-.57-1.2-.9h.05l-.6-.6c-1.03.8-1.55,1.72-1.55,2.75,0,1.23.68,2.28,2.05,3.15,1.37.87,3.02,1.3,4.95,1.3s3.58-.43,4.95-1.3c1.37-.87,2.05-1.92,2.05-3.15,0-1.03-.52-1.93-1.55-2.7-.13.17-.3.35-.5.55Z"/>
      <path class="cls-2" d="m26.9,43.95c0-5.17-.48-9.55-1.45-13.15-1.33-4.83-3.17-7.08-5.5-6.75-2.3-.3-4.1,1.95-5.4,6.75-1.03,3.6-1.55,7.98-1.55,13.15v.9c.03,1.47.55,2.78,1.55,3.95l.6.6h-.05c.37.33.77.63,1.2.9.03.97.38,1.8,1.05,2.5.7.67,1.57,1,2.6,1h.05c1-.03,1.83-.35,2.5-.95.07-.07.12-.13.15-.2.7-.67,1.05-1.45,1.05-2.35.4-.27.8-.57,1.2-.9h.05c.2-.2.37-.38.5-.55.93-1.2,1.42-2.53,1.45-4v-.9m-2.05,0v.85c-.03,1.13-.43,2.12-1.2,2.95-.07.03-.13.08-.2.15-.57.53-1.18.92-1.85,1.15v1.15c0,.43-.17.8-.5,1.1-.27.3-.63.45-1.1.45h-.05c-.43,0-.82-.15-1.15-.45-.3-.3-.45-.67-.45-1.1v-1.15c-.67-.2-1.27-.58-1.8-1.15-.07-.07-.12-.12-.15-.15-.83-.83-1.27-1.82-1.3-2.95v-.85c0-4.97.48-9.18,1.45-12.65.93-3.47,2.07-5.2,3.4-5.2s2.53,1.73,3.5,5.2c.93,3.47,1.4,7.68,1.4,12.65Z"/>
      <path class="cls-1" d="m18.35,49.05v1.15c0,.43.15.8.45,1.1.33.3.72.45,1.15.45h.05c.47,0,.83-.15,1.1-.45.33-.3.5-.67.5-1.1v-1.15c-.5.17-1.05.25-1.65.25-.57,0-1.1-.08-1.6-.25Z"/>
      <path class="cls-4" d="m24.85,44.8v-.85c0-4.97-.47-9.18-1.4-12.65-.97-3.47-2.13-5.2-3.5-5.2s-2.47,1.73-3.4,5.2c-.97,3.47-1.45,7.68-1.45,12.65v.85c.03,1.13.47,2.12,1.3,2.95.03.03.08.08.15.15.53.57,1.13.95,1.8,1.15.5.17,1.03.25,1.6.25.6,0,1.15-.08,1.65-.25.67-.23,1.28-.62,1.85-1.15.07-.07.13-.12.2-.15.77-.83,1.17-1.82,1.2-2.95Z"/>
    </g>
    <g id="Layer0_40_MEMBER_5_FILL" data-name="Layer0 40 MEMBER 5 FILL">
      <path d="m63,54.55c0-1.03-.52-1.93-1.55-2.7-.13.17-.3.35-.5.55h-.05c-.4.33-.8.63-1.2.9,0,.9-.35,1.68-1.05,2.35-.03.07-.08.13-.15.2-.67.6-1.5.92-2.5.95h-.05c-1.03,0-1.9-.33-2.6-1-.67-.7-1.02-1.53-1.05-2.5-.43-.27-.83-.57-1.2-.9h.05l-.6-.6c-1.03.8-1.55,1.72-1.55,2.75,0,1.23.68,2.28,2.05,3.15,1.37.87,3.02,1.3,4.95,1.3s3.58-.43,4.95-1.3c1.37-.87,2.05-1.92,2.05-3.15Z"/>
      <path class="cls-2" d="m61.45,33.8c-1.33-4.83-3.17-7.08-5.5-6.75-2.3-.3-4.1,1.95-5.4,6.75-1.03,3.6-1.55,7.98-1.55,13.15v.9c.03,1.47.55,2.78,1.55,3.95l.6.6h-.05c.37.33.77.63,1.2.9.03.97.38,1.8,1.05,2.5.7.67,1.57,1,2.6,1h.05c1-.03,1.83-.35,2.5-.95.07-.07.12-.13.15-.2.7-.67,1.05-1.45,1.05-2.35.4-.27.8-.57,1.2-.9h.05c.2-.2.37-.38.5-.55.93-1.2,1.42-2.53,1.45-4v-.9c0-5.17-.48-9.55-1.45-13.15m-5.5-4.7c1.37,0,2.53,1.73,3.5,5.2.93,3.47,1.4,7.68,1.4,12.65v.85c-.03,1.13-.43,2.12-1.2,2.95-.07.03-.13.08-.2.15-.57.53-1.18.92-1.85,1.15v1.15c0,.43-.17.8-.5,1.1-.27.3-.63.45-1.1.45h-.05c-.43,0-.82-.15-1.15-.45-.3-.3-.45-.67-.45-1.1v-1.15c-.67-.2-1.27-.58-1.8-1.15-.07-.07-.12-.12-.15-.15-.83-.83-1.27-1.82-1.3-2.95v-.85c0-4.97.48-9.18,1.45-12.65.93-3.47,2.07-5.2,3.4-5.2Z"/>
      <path class="cls-1" d="m57.6,53.2v-1.15c-.5.17-1.05.25-1.65.25-.57,0-1.1-.08-1.6-.25v1.15c0,.43.15.8.45,1.1.33.3.72.45,1.15.45h.05c.47,0,.83-.15,1.1-.45.33-.3.5-.67.5-1.1Z"/>
      <path class="cls-4" d="m59.45,34.3c-.97-3.47-2.13-5.2-3.5-5.2s-2.47,1.73-3.4,5.2c-.97,3.47-1.45,7.68-1.45,12.65v.85c.03,1.13.47,2.12,1.3,2.95.03.03.08.08.15.15.53.57,1.13.95,1.8,1.15.5.17,1.03.25,1.6.25.6,0,1.15-.08,1.65-.25.67-.23,1.28-.62,1.85-1.15.07-.07.13-.12.2-.15.77-.83,1.17-1.82,1.2-2.95v-.85c0-4.97-.47-9.18-1.4-12.65Z"/>
    </g>
    <g id="Layer0_40_MEMBER_6_FILL" data-name="Layer0 40 MEMBER 6 FILL">
      <path d="m16.45,55.85c-.13.17-.3.35-.5.55h-.05c-.4.33-.8.63-1.2.9,0,.9-.35,1.68-1.05,2.35-.03.07-.08.13-.15.2-.67.6-1.5.92-2.5.95h-.05c-1.03,0-1.9-.33-2.6-1-.67-.7-1.02-1.53-1.05-2.5-.43-.27-.83-.57-1.2-.9h.05l-.6-.6c-1.03.8-1.55,1.72-1.55,2.75,0,1.23.68,2.28,2.05,3.15,1.37.87,3.02,1.3,4.95,1.3s3.58-.43,4.95-1.3c1.37-.87,2.05-1.92,2.05-3.15,0-1.03-.52-1.93-1.55-2.7Z"/>
      <path class="cls-2" d="m10.95,31.05c-2.3-.3-4.1,1.95-5.4,6.75-1.03,3.6-1.55,7.98-1.55,13.15v.9c.03,1.47.55,2.78,1.55,3.95l.6.6h-.05c.37.33.77.63,1.2.9.03.97.38,1.8,1.05,2.5.7.67,1.57,1,2.6,1h.05c1-.03,1.83-.35,2.5-.95.07-.07.12-.13.15-.2.7-.67,1.05-1.45,1.05-2.35.4-.27.8-.57,1.2-.9h.05c.2-.2.37-.38.5-.55.93-1.2,1.42-2.53,1.45-4v-.9c0-5.17-.48-9.55-1.45-13.15-1.33-4.83-3.17-7.08-5.5-6.75m0,2.05c1.37,0,2.53,1.73,3.5,5.2.93,3.47,1.4,7.68,1.4,12.65v.85c-.03,1.13-.43,2.12-1.2,2.95-.07.03-.13.08-.2.15-.57.53-1.18.92-1.85,1.15v1.15c0,.43-.17.8-.5,1.1-.27.3-.63.45-1.1.45h-.05c-.43,0-.82-.15-1.15-.45-.3-.3-.45-.67-.45-1.1v-1.15c-.67-.2-1.27-.58-1.8-1.15-.07-.07-.12-.12-.15-.15-.83-.83-1.27-1.82-1.3-2.95v-.85c0-4.97.48-9.18,1.45-12.65.93-3.47,2.07-5.2,3.4-5.2Z"/>
      <path class="cls-1" d="m12.6,57.2v-1.15c-.5.17-1.05.25-1.65.25-.57,0-1.1-.08-1.6-.25v1.15c0,.43.15.8.45,1.1.33.3.72.45,1.15.45h.05c.47,0,.83-.15,1.1-.45.33-.3.5-.67.5-1.1Z"/>
      <path class="cls-4" d="m14.45,38.3c-.97-3.47-2.13-5.2-3.5-5.2s-2.47,1.73-3.4,5.2c-.97,3.47-1.45,7.68-1.45,12.65v.85c.03,1.13.47,2.12,1.3,2.95.03.03.08.08.15.15.53.57,1.13.95,1.8,1.15.5.17,1.03.25,1.6.25.6,0,1.15-.08,1.65-.25.67-.23,1.28-.62,1.85-1.15.07-.07.13-.12.2-.15.77-.83,1.17-1.82,1.2-2.95v-.85c0-4.97-.47-9.18-1.4-12.65Z"/>
    </g>
  </g>
</svg>