<?xml version="1.0" encoding="UTF-8"?>
<svg id="Calque_2" data-name="Calque 2" xmlns="http://www.w3.org/2000/svg" viewBox="0 0 64 64">
  <defs>
    <style>
      .cls-1 {
        fill: #bb8044;
      }

      .cls-2 {
        fill: #115f32;
      }

      .cls-3 {
        fill: #198a49;
      }

      .cls-4 {
        fill: #1b914d;
      }

      .cls-5 {
        fill: #27ae60;
      }

      .cls-6 {
        fill: #29b865;
      }

      .cls-7 {
        fill: #24a159;
      }
    </style>
  </defs>
  <g id="Calque_1-2" data-name="Calque 1">
    <g id="Layer0_15_FILL" data-name="Layer0 15 FILL">
      <path class="cls-7" d="m36,60v4h4v-4h-4M60,8h4v-4h-4v4M24,44v4h4v-4h-4m8-8v4h4v-4h-4m24,12h-8v8h8v-8m-20-24v-4h-4v4h4m-28-8h4v-4h-4v4Z"/>
      <path class="cls-5" d="m0,0v64h36v-4h4v4h24V8h-4v-4h4V0H0m16,24v-8h8v8h-8m-4-8h-4v-4h4v4m0,12h4v4h-4v-4m-8,20h4v4h-4v-4M60,12v4h-4v-4h4m-28-4v4h-4v-4h4m4,12v4h-4v-4h4m8,28h-4v-4h4v4m4,0h8v8h-8v-8m-16-8v-4h4v4h-4m-8,8v-4h4v4h-4Z"/>
      <path class="cls-6" d="m40,48h4v-4h-4v4m-8-36v-4h-4v4h4m28,4v-4h-4v4h4M8,48h-4v4h4v-4m8-20h-4v4h4v-4m0-12v8h8v-8h-8Z"/>
    </g>
    <g id="Layer0_15_MEMBER_0_FILL" data-name="Layer0 15 MEMBER 0 FILL">
      <path d="m53.65,38.7s-.08.08-.15.15c-.63.6-1.47.92-2.5.95h-.05c-1.03,0-1.88-.33-2.55-1-.7-.67-1.07-1.5-1.1-2.5-.43-.27-.83-.57-1.2-.9h.05c-.2-.2-.38-.4-.55-.6-1.07.8-1.6,1.73-1.6,2.8,0,1.2.68,2.23,2.05,3.1,1.37.87,3.02,1.3,4.95,1.3s3.62-.43,4.95-1.3c1.37-.87,2.05-1.9,2.05-3.1,0-1.07-.52-1.98-1.55-2.75-.13.17-.3.35-.5.55h-.05c-.37.33-.77.63-1.2.9,0,.93-.35,1.73-1.05,2.4Z"/>
      <path class="cls-2" d="m50.95,10.05c-2.3-.3-4.08,1.95-5.35,6.75-1.07,3.6-1.6,7.98-1.6,13.15v.9c.07,1.5.6,2.82,1.6,3.95.17.2.35.4.55.6h-.05c.37.33.77.63,1.2.9.03,1,.4,1.83,1.1,2.5.67.67,1.52,1,2.55,1h.05c1.03-.03,1.87-.35,2.5-.95.07-.07.12-.12.15-.15.7-.67,1.05-1.47,1.05-2.4.43-.27.83-.57,1.2-.9h.05c.2-.2.37-.38.5-.55.93-1.17,1.42-2.5,1.45-4v-.9c0-5.17-.48-9.55-1.45-13.15-1.33-4.83-3.17-7.08-5.5-6.75m-3.4,7.25c.93-3.47,2.07-5.2,3.4-5.2s2.53,1.73,3.5,5.2c.93,3.47,1.4,7.68,1.4,12.65v.85c-.03,1.13-.43,2.13-1.2,3-.07.03-.13.08-.2.15-.57.5-1.17.87-1.8,1.1v1.15c0,.43-.18.8-.55,1.1-.27.33-.63.5-1.1.5h-.05c-.43,0-.8-.17-1.1-.5-.33-.3-.5-.67-.5-1.1v-1.15c-.63-.2-1.23-.57-1.8-1.1-.07-.07-.12-.12-.15-.15-.83-.87-1.27-1.87-1.3-3v-.85c0-4.97.48-9.18,1.45-12.65Z"/>
      <path class="cls-1" d="m49.85,37.3c.3.33.67.5,1.1.5h.05c.47,0,.83-.17,1.1-.5.37-.3.55-.67.55-1.1v-1.15c-.53.17-1.1.25-1.7.25-.57,0-1.1-.08-1.6-.25v1.15c0,.43.17.8.5,1.1Z"/>
      <path class="cls-4" d="m50.95,12.1c-1.33,0-2.47,1.73-3.4,5.2-.97,3.47-1.45,7.68-1.45,12.65v.85c.03,1.13.47,2.13,1.3,3,.03.03.08.08.15.15.57.53,1.17.9,1.8,1.1.5.17,1.03.25,1.6.25.6,0,1.17-.08,1.7-.25.63-.23,1.23-.6,1.8-1.1.07-.07.13-.12.2-.15.77-.87,1.17-1.87,1.2-3v-.85c0-4.97-.47-9.18-1.4-12.65-.97-3.47-2.13-5.2-3.5-5.2Z"/>
    </g>
    <g id="Layer0_15_MEMBER_1_FILL" data-name="Layer0 15 MEMBER 1 FILL">
      <path d="m46.2,43.3c-.23-.13-.47-.23-.7-.3-.53.5-1.13.93-1.8,1.3v.45c0,1.2-.4,2.22-1.2,3.05-.07.03-.12.08-.15.15-.8.8-1.78,1.2-2.95,1.2h-.05c-1.23,0-2.27-.42-3.1-1.25-.8-.87-1.2-1.92-1.2-3.15v-.45c-.63-.37-1.22-.78-1.75-1.25-.2.07-.38.15-.55.25-1.83,1-2.75,2.2-2.75,3.6s.92,2.63,2.75,3.6c1.87,1,4.12,1.5,6.75,1.5s4.87-.5,6.7-1.5c1.87-.97,2.8-2.17,2.8-3.6s-.93-2.6-2.8-3.6Z"/>
      <path class="cls-2" d="m32.4,15.45c-.07.2-.12.4-.15.6-1.33,5.27-2,11.63-2,19.1v1.4c.07,2.37.95,4.42,2.65,6.15.13.13.27.25.4.35.53.47,1.12.88,1.75,1.25v.45c0,1.23.4,2.28,1.2,3.15.83.83,1.87,1.25,3.1,1.25h.05c1.17,0,2.15-.4,2.95-1.2.03-.07.08-.12.15-.15.8-.83,1.2-1.85,1.2-3.05v-.45c.67-.37,1.27-.8,1.8-1.3l.3-.3c1.7-1.73,2.58-3.78,2.65-6.15v-1.4c0-7.5-.67-13.9-2-19.2-.07-.17-.12-.33-.15-.5-.73-2.67-1.53-4.78-2.4-6.35-1.33-2.23-2.85-3.27-4.55-3.1-1.73-.17-3.23.85-4.5,3.05-.93,1.57-1.75,3.7-2.45,6.4m1.9.5c.17-.63.35-1.22.55-1.75,1.07-3.63,2.35-5.67,3.85-6.1.2-.07.42-.1.65-.1s.45.03.65.1c1.47.43,2.77,2.47,3.9,6.1.17.53.33,1.12.5,1.75l.3,1.2c.4,1.9.75,3.92,1.05,6.05.1.73.18,1.48.25,2.25.1,1,.18,2.03.25,3.1.1,1.57.17,3.2.2,4.9v3c-.07,1.87-.75,3.47-2.05,4.8-.37.37-.75.7-1.15,1-.5.3-1.02.55-1.55.75v1.75c0,.67-.23,1.22-.7,1.65-.43.47-.97.7-1.6.7h-.05c-.67,0-1.23-.23-1.7-.7-.43-.43-.65-.98-.65-1.65v-1.75c-.53-.2-1-.43-1.4-.7-.47-.3-.9-.65-1.3-1.05-1.33-1.33-2.03-2.93-2.1-4.8v-3c.03-1.67.1-3.3.2-4.9.07-1.07.15-2.1.25-3.1.07-.77.15-1.52.25-2.25.3-2.13.67-4.15,1.1-6.05.1-.4.2-.8.3-1.2Z"/>
      <path class="cls-1" d="m41.7,44.75v-1.75c-.73.23-1.52.35-2.35.35s-1.62-.12-2.35-.35v1.75c0,.67.22,1.22.65,1.65.47.47,1.03.7,1.7.7h.05c.63,0,1.17-.23,1.6-.7.47-.43.7-.98.7-1.65Z"/>
      <path class="cls-4" d="m46.45,34.15c-.07,1.47-.75,2.72-2.05,3.75-.37.33-.75.62-1.15.85-.5.23-1.02.43-1.55.6-.73.2-1.52.3-2.35.3s-1.62-.1-2.35-.3c-.53-.17-1-.35-1.4-.55-.47-.23-.9-.53-1.3-.9-1.33-1.03-2.03-2.28-2.1-3.75v2.3c.07,1.87.77,3.47,2.1,4.8.4.4.83.75,1.3,1.05.4.27.87.5,1.4.7.73.23,1.52.35,2.35.35s1.62-.12,2.35-.35c.53-.2,1.05-.45,1.55-.75.4-.3.78-.63,1.15-1,1.3-1.33,1.98-2.93,2.05-4.8v-2.3m-13.45-10.9s-.07-.05-.1-.05c-.1.73-.18,1.48-.25,2.25-.1,1-.18,2.03-.25,3.1.3.77.93,1.43,1.9,2,.4.27.83.48,1.3.65.4.17.87.3,1.4.4.73.17,1.52.25,2.35.25s1.62-.08,2.35-.25c.53-.1,1.05-.25,1.55-.45.4-.17.78-.37,1.15-.6.93-.57,1.55-1.23,1.85-2-.07-1.07-.15-2.1-.25-3.1-.07-.77-.15-1.52-.25-2.25-.03,0-.05.02-.05.05-.37.3-.8.58-1.3.85-.37.2-.75.37-1.15.5-.5.13-1.02.25-1.55.35-.73.13-1.52.2-2.35.2s-1.62-.07-2.35-.2c-.53-.1-1-.22-1.4-.35-.47-.13-.9-.3-1.3-.5-.53-.27-.97-.55-1.3-.85m1.85-9.05c-.2.53-.38,1.12-.55,1.75-.1.4-.2.8-.3,1.2.1.03.2.07.3.1.07.03.15.07.25.1.33.1.68.18,1.05.25.4.07.87.13,1.4.2.73.07,1.52.1,2.35.1s1.62-.03,2.35-.1c.53-.07,1.05-.15,1.55-.25.33-.07.65-.13.95-.2.07-.03.13-.07.2-.1.1-.03.2-.07.3-.1l-.3-1.2c-.17-.63-.33-1.22-.5-1.75-1.13-3.63-2.43-5.67-3.9-6.1-.2-.07-.42-.1-.65-.1s-.45.03-.65.1c-1.5.43-2.78,2.47-3.85,6.1Z"/>
      <path class="cls-3" d="m46.25,28.55c-.3.77-.92,1.43-1.85,2-.37.23-.75.43-1.15.6-.5.2-1.02.35-1.55.45-.73.17-1.52.25-2.35.25s-1.62-.08-2.35-.25c-.53-.1-1-.23-1.4-.4-.47-.17-.9-.38-1.3-.65-.97-.57-1.6-1.23-1.9-2-.1,1.6-.17,3.23-.2,4.9v.7c.07,1.47.77,2.72,2.1,3.75.4.37.83.67,1.3.9.4.2.87.38,1.4.55.73.2,1.52.3,2.35.3s1.62-.1,2.35-.3c.53-.17,1.05-.37,1.55-.6.4-.23.78-.52,1.15-.85,1.3-1.03,1.98-2.28,2.05-3.75v-.7c-.03-1.7-.1-3.33-.2-4.9m-10.65-10.95c-.37-.07-.72-.15-1.05-.25-.1-.03-.18-.07-.25-.1-.1-.03-.2-.07-.3-.1-.43,1.9-.8,3.92-1.1,6.05.03,0,.07.02.1.05.33.3.77.58,1.3.85.4.2.83.37,1.3.5.4.13.87.25,1.4.35.73.13,1.52.2,2.35.2s1.62-.07,2.35-.2c.53-.1,1.05-.22,1.55-.35.4-.13.78-.3,1.15-.5.5-.27.93-.55,1.3-.85,0-.03.02-.05.05-.05-.3-2.13-.65-4.15-1.05-6.05-.1.03-.2.07-.3.1-.07.03-.13.07-.2.1-.3.07-.62.13-.95.2-.5.1-1.02.18-1.55.25-.73.07-1.52.1-2.35.1s-1.62-.03-2.35-.1c-.53-.07-1-.13-1.4-.2Z"/>
    </g>
    <g id="Layer0_15_MEMBER_2_FILL" data-name="Layer0 15 MEMBER 2 FILL">
      <path d="m15.65,55.65c-.03.07-.08.13-.15.2-.67.6-1.5.92-2.5.95h-.05c-1.03,0-1.9-.33-2.6-1-.67-.7-1.02-1.53-1.05-2.5-.43-.27-.83-.57-1.2-.9h.05c-.2-.2-.4-.4-.6-.6-1.03.8-1.55,1.72-1.55,2.75,0,1.23.68,2.28,2.05,3.15,1.37.87,3.02,1.3,4.95,1.3s3.58-.43,4.95-1.3c1.37-.87,2.05-1.92,2.05-3.15,0-1.03-.52-1.93-1.55-2.7-.13.17-.3.35-.5.55h-.05c-.4.33-.8.63-1.2.9,0,.9-.35,1.68-1.05,2.35Z"/>
      <path class="cls-2" d="m18.45,33.8c-1.33-4.83-3.17-7.08-5.5-6.75-2.3-.3-4.1,1.95-5.4,6.75-1.03,3.6-1.55,7.98-1.55,13.15v.9c.03,1.47.55,2.78,1.55,3.95.2.2.4.4.6.6h-.05c.37.33.77.63,1.2.9.03.97.38,1.8,1.05,2.5.7.67,1.57,1,2.6,1h.05c1-.03,1.83-.35,2.5-.95.07-.07.12-.13.15-.2.7-.67,1.05-1.45,1.05-2.35.4-.27.8-.57,1.2-.9h.05c.2-.2.37-.38.5-.55.93-1.2,1.42-2.53,1.45-4v-.05c0-.27,0-.55,0-.85,0-5.17-.48-9.55-1.45-13.15m-5.5-4.7c1.37,0,2.53,1.73,3.5,5.2.93,3.47,1.4,7.68,1.4,12.65,0,.3,0,.58,0,.85-.03,1.13-.43,2.12-1.2,2.95-.07.03-.13.08-.2.15-.57.53-1.18.92-1.85,1.15v1.15c0,.43-.17.8-.5,1.1-.27.3-.63.45-1.1.45h-.05c-.43,0-.82-.15-1.15-.45-.3-.3-.45-.67-.45-1.1v-1.15c-.67-.2-1.27-.58-1.8-1.15-.07-.07-.12-.12-.15-.15-.83-.83-1.27-1.82-1.3-2.95,0-.27,0-.55,0-.85,0-4.97.48-9.18,1.45-12.65.93-3.47,2.07-5.2,3.4-5.2Z"/>
      <path class="cls-1" d="m14.6,53.2v-1.15c-.5.17-1.05.25-1.65.25-.57,0-1.1-.08-1.6-.25v1.15c0,.43.15.8.45,1.1.33.3.72.45,1.15.45h.05c.47,0,.83-.15,1.1-.45.33-.3.5-.67.5-1.1Z"/>
      <path class="cls-4" d="m16.45,34.3c-.97-3.47-2.13-5.2-3.5-5.2s-2.47,1.73-3.4,5.2c-.97,3.47-1.45,7.68-1.45,12.65,0,.3,0,.58,0,.85.03,1.13.47,2.12,1.3,2.95.03.03.08.08.15.15.53.57,1.13.95,1.8,1.15.5.17,1.03.25,1.6.25.6,0,1.15-.08,1.65-.25.67-.23,1.28-.62,1.85-1.15.07-.07.13-.12.2-.15.77-.83,1.17-1.82,1.2-2.95,0-.27,0-.55,0-.85,0-4.97-.47-9.18-1.4-12.65Z"/>
    </g>
  </g>
</svg>