<?xml version="1.0" encoding="UTF-8"?>
<svg id="Calque_2" data-name="Calque 2" xmlns="http://www.w3.org/2000/svg" viewBox="0 0 64 64">
  <defs>
    <style>
      .cls-1 {
        fill: #d9a24d;
      }

      .cls-2 {
        fill: #cd9948;
      }

      .cls-3 {
        fill: #e2a94f;
      }

      .cls-4 {
        fill: #219853;
      }

      .cls-5 {
        fill: #27ae60;
      }

      .cls-6 {
        fill: #29b865;
      }

      .cls-7 {
        fill: #24a159;
      }
    </style>
  </defs>
  <g id="Calque_1-2" data-name="Calque 1">
    <g id="Layer0_36_FILL" data-name="Layer0 36 FILL">
      <path class="cls-7" d="m36,60v4h4v-4h-4M60,8h4v-4h-4v4M8,16h4v-4h-4v4m20,32v-4h-4v4h4m4-12v4h4v-4h-4m24,12h-8v8h8v-8m-20-28h-4v4h4v-4Z"/>
      <path class="cls-5" d="m64,8h-4v-4h4V0H0v64h36v-4h4v4h24V8m-32,12h4v4h-4v-4m-4-12h4v4h-4v-4m28,4h4v4h-4v-4m-8,36h8v8h-8v-8m-16-8v-4h4v4h-4m-4,4v4h-4v-4h4m12,4v-4h4v4h-4M12,16h-4v-4h4v4m4,0h8v8h-8v-8m0,12v4h-4v-4h4m-12,20h4v4h-4v-4Z"/>
      <path class="cls-6" d="m8,48h-4v4h4v-4m8-16v-4h-4v4h4m8-16h-8v8h8v-8m16,28v4h4v-4h-4M60,12h-4v4h4v-4m-28-4h-4v4h4v-4Z"/>
    </g>
    <g id="Layer0_36_MEMBER_0_FILL" data-name="Layer0 36 MEMBER 0 FILL">
      <path class="cls-1" d="m47.55,21.85c-.7-7.26-2.9-14.55-6.6-21.85h-17.9c2.84,5.57,3.39,10.52,1.65,14.85-.79,1.97-2.14,3.91-4.05,5.8-3.1,3.13-4.65,6.92-4.65,11.35s1.55,8.2,4.65,11.3c3.13,3.13,6.92,4.7,11.35,4.7s8.2-1.57,11.3-4.7c3.13-3.1,4.7-6.87,4.7-11.3,0-3.85-.15-7.24-.45-10.15Z"/>
      <path class="cls-4" d="m43.15,0h-2.2c3.7,7.3,5.9,14.59,6.6,21.85.3,2.91.45,6.3.45,10.15,0,4.43-1.57,8.2-4.7,11.3-3.1,3.13-6.87,4.7-11.3,4.7s-8.22-1.57-11.35-4.7c-3.1-3.1-4.65-6.87-4.65-11.3s1.55-8.22,4.65-11.35c1.91-1.89,3.26-3.83,4.05-5.8,1.74-4.33,1.19-9.28-1.65-14.85h-2c0,.31.07.61.2.9,2.54,4.95,3.07,9.35,1.6,13.2-.71,1.74-1.91,3.44-3.6,5.1l-.05.05c-3.47,3.52-5.2,7.77-5.2,12.75,0,4.99,1.73,9.22,5.2,12.7,3.54,3.54,7.81,5.3,12.8,5.3,4.98,0,9.21-1.77,12.7-5.3h0c3.53-3.49,5.3-7.72,5.3-12.7,0-3.93-.15-7.38-.45-10.35-.7-7.2-2.83-14.41-6.4-21.65Z"/>
    </g>
    <g id="Layer0_36_MEMBER_0_MEMBER_0_FILL" data-name="Layer0 36 MEMBER 0 MEMBER 0 FILL">
      <path class="cls-3" d="m26,37v-4h-4v4h4Z"/>
    </g>
    <g id="Layer0_36_MEMBER_0_MEMBER_1_FILL" data-name="Layer0 36 MEMBER 0 MEMBER 1 FILL">
      <path class="cls-2" d="m32,44v-4h-4v4h4Z"/>
    </g>
    <g id="Layer0_36_MEMBER_0_MEMBER_2_FILL" data-name="Layer0 36 MEMBER 0 MEMBER 2 FILL">
      <path class="cls-2" d="m38,17h4v-4h-4v4Z"/>
    </g>
    <g id="Layer0_36_MEMBER_0_MEMBER_3_FILL" data-name="Layer0 36 MEMBER 0 MEMBER 3 FILL">
      <path class="cls-3" d="m36,9h4v-4h-4v4Z"/>
    </g>
  </g>
</svg>