<?xml version="1.0" encoding="UTF-8"?>
<svg id="Calque_2" data-name="Calque 2" xmlns="http://www.w3.org/2000/svg" viewBox="0 0 64 64">
  <defs>
    <style>
      .cls-1 {
        fill: #d9a24d;
      }

      .cls-2 {
        fill: #cd9948;
      }

      .cls-3 {
        fill: #e2a94f;
      }

      .cls-4 {
        fill: #219853;
      }

      .cls-5 {
        fill: #27ae60;
      }

      .cls-6 {
        fill: #29b865;
      }

      .cls-7 {
        fill: #24a159;
      }
    </style>
  </defs>
  <g id="Calque_1-2" data-name="Calque 1">
    <g id="Layer0_31_FILL" data-name="Layer0 31 FILL">
      <path class="cls-7" d="m64,8v-4h-4v4h4m-16,40v8h8v-8h-8m-20-4h-4v4h4v-4m8-4v-4h-4v4h4M8,12v4h4v-4h-4m28,8h-4v4h4v-4m0,44h4v-4h-4v4Z"/>
      <path class="cls-5" d="m36,64v-4h4v4h24V8h-4v-4h4V0H0v64h36m-4-44h4v4h-4v-4m-4-12h4v4h-4v-4m-12,8h8v8h-8v-8m-8,0v-4h4v4h-4m-4,36v-4h4v4h-4m8-20v-4h4v4h-4m24,4v4h-4v-4h4m4,8h4v4h-4v-4m-16,0h4v4h-4v-4m24,12v-8h8v8h-8m8-44h4v4h-4v-4Z"/>
      <path class="cls-6" d="m60,12h-4v4h4v-4m-16,32h-4v4h4v-4M12,28v4h4v-4h-4m-8,20v4h4v-4h-4M24,16h-8v8h8v-8m8-8h-4v4h4v-4Z"/>
    </g>
    <g id="Layer0_31_MEMBER_0_FILL" data-name="Layer0 31 MEMBER 0 FILL">
      <path class="cls-1" d="m0,23.05v17.9c5.07-2.57,10.13-3.92,15.2-4.05,3.1.07,4.45,2.53,4.05,7.4-.8,6.57.47,13.13,3.8,19.7h17.9c-4.2-8.23-5.15-16.47-2.85-24.7,2.3-8.63-1.48-14.78-11.35-18.45-8.9-3.03-17.82-2.3-26.75,2.2Z"/>
      <path class="cls-4" d="m0,42.95c.31,0,.61-.09.9-.25,4.78-2.4,9.57-3.67,14.35-3.8.71,0,1.21.29,1.5.85.49.99.66,2.44.5,4.35v-.05c-.81,6.65.38,13.3,3.55,19.95h2.25c-3.33-6.57-4.6-13.13-3.8-19.7.4-4.87-.95-7.33-4.05-7.4-5.07.13-10.13,1.48-15.2,4.05v2m27.45-24s-.03,0-.05,0c-9.12-3.11-18.25-2.5-27.4,1.85v2.25c8.93-4.5,17.85-5.23,26.75-2.2,9.87,3.67,13.65,9.82,11.35,18.45-2.3,8.23-1.35,16.47,2.85,24.7h2c0-.31-.09-.61-.25-.9-3.94-7.75-4.84-15.5-2.7-23.25v-.05c2.72-9.76-1.46-16.71-12.55-20.85Z"/>
    </g>
    <g id="Layer0_31_MEMBER_0_MEMBER_0_FILL" data-name="Layer0 31 MEMBER 0 MEMBER 0 FILL">
      <path class="cls-3" d="m29,50h4v-4h-4v4Z"/>
    </g>
    <g id="Layer0_31_MEMBER_0_MEMBER_1_FILL" data-name="Layer0 31 MEMBER 0 MEMBER 1 FILL">
      <path class="cls-2" d="m28,58v-4h-4v4h4Z"/>
    </g>
    <g id="Layer0_31_MEMBER_0_MEMBER_2_FILL" data-name="Layer0 31 MEMBER 0 MEMBER 2 FILL">
      <path class="cls-3" d="m15,22v4h4v-4h-4Z"/>
    </g>
    <g id="Layer0_31_MEMBER_0_MEMBER_3_FILL" data-name="Layer0 31 MEMBER 0 MEMBER 3 FILL">
      <path class="cls-2" d="m5,33h4v-4h-4v4Z"/>
    </g>
  </g>
</svg>