<?xml version="1.0" encoding="UTF-8"?>
<svg id="Calque_2" data-name="Calque 2" xmlns="http://www.w3.org/2000/svg" viewBox="0 0 64 64">
  <defs>
    <style>
      .cls-1 {
        fill: #d9a24d;
      }

      .cls-2 {
        fill: #cd9948;
      }

      .cls-3 {
        fill: #e2a94f;
      }

      .cls-4 {
        fill: #219853;
      }

      .cls-5 {
        fill: #27ae60;
      }

      .cls-6 {
        fill: #29b865;
      }

      .cls-7 {
        fill: #24a159;
      }
    </style>
  </defs>
  <g id="Calque_1-2" data-name="Calque 1">
    <g id="Layer0_35_FILL" data-name="Layer0 35 FILL">
      <path class="cls-7" d="m40,64v-4h-4v4h4M60,4v4h4v-4h-4m-28,36h4v-4h-4v4m-8,8h4v-4h-4v4m12-28h-4v4h4v-4M12,12h-4v4h4v-4m44,36h-8v8h8v-8Z"/>
      <path class="cls-5" d="m60,8v-4h4V0H0v64h36v-4h4v4h24V8h-4m-4,4h4v4h-4v-4m-12,36h-4v-4h4v4m4,0h8v8h-8v-8M8,12h4v4h-4v-4m24,8h4v4h-4v-4m-4-12h4v4h-4v-4m-12,8h8v8h-8v-8m12,32h-4v-4h4v4m8-8h-4v-4h4v4m-20-12v4h-4v-4h4m-12,20h4v4h-4v-4Z"/>
      <path class="cls-6" d="m8,48h-4v4h4v-4m8-16v-4h-4v4h4m8-16h-8v8h8v-8m8-8h-4v4h4v-4m8,40h4v-4h-4v4M60,12h-4v4h4v-4Z"/>
    </g>
    <g id="Layer0_35_MEMBER_0_FILL" data-name="Layer0 35 MEMBER 0 FILL">
      <path class="cls-1" d="m42.05,47.6c7.32-.73,14.64-2.95,21.95-6.65v-17.9c-5.52,2.81-10.79,3.28-15.8,1.4-1.23-.5-2.86-1.76-4.9-3.8-3.1-3.1-6.87-4.65-11.3-4.65s-8.22,1.55-11.35,4.65c-3.1,3.13-4.65,6.92-4.65,11.35s1.55,8.2,4.65,11.3c3.13,3.13,6.92,4.7,11.35,4.7,3.86,0,7.21-.13,10.05-.4Z"/>
      <path class="cls-4" d="m64,23.05v-2c-.31,0-.61.07-.9.2-4.97,2.54-9.7,2.97-14.2,1.3-1.04-.46-2.44-1.58-4.2-3.35-3.48-3.47-7.71-5.2-12.7-5.2-4.98,0-9.23,1.73-12.75,5.2l-.05.05c-3.47,3.52-5.2,7.77-5.2,12.75,0,4.99,1.73,9.22,5.2,12.7,3.54,3.54,7.81,5.3,12.8,5.3,3.93,0,7.33-.13,10.2-.4h.05c7.25-.73,14.5-2.88,21.75-6.45v-2.2c-7.31,3.7-14.63,5.92-21.95,6.65-2.84.27-6.19.4-10.05.4-4.43,0-8.22-1.57-11.35-4.7-3.1-3.1-4.65-6.87-4.65-11.3s1.55-8.22,4.65-11.35c3.13-3.1,6.92-4.65,11.35-4.65s8.2,1.55,11.3,4.65c2.04,2.04,3.67,3.3,4.9,3.8,5.01,1.88,10.28,1.41,15.8-1.4Z"/>
    </g>
    <g id="Layer0_35_MEMBER_0_MEMBER_0_FILL" data-name="Layer0 35 MEMBER 0 MEMBER 0 FILL">
      <path class="cls-3" d="m22,39h4v-4h-4v4Z"/>
    </g>
    <g id="Layer0_35_MEMBER_0_MEMBER_1_FILL" data-name="Layer0 35 MEMBER 0 MEMBER 1 FILL">
      <path class="cls-2" d="m36,46v-4h-4v4h4Z"/>
    </g>
    <g id="Layer0_35_MEMBER_0_MEMBER_2_FILL" data-name="Layer0 35 MEMBER 0 MEMBER 2 FILL">
      <path class="cls-2" d="m42,26v-4h-4v4h4Z"/>
    </g>
    <g id="Layer0_35_MEMBER_0_MEMBER_3_FILL" data-name="Layer0 35 MEMBER 0 MEMBER 3 FILL">
      <path class="cls-2" d="m56,36h4v-4h-4v4Z"/>
    </g>
  </g>
</svg>