<?xml version="1.0" encoding="UTF-8"?>
<svg id="Calque_2" data-name="Calque 2" xmlns="http://www.w3.org/2000/svg" viewBox="0 0 64 64">
  <defs>
    <style>
      .cls-1 {
        fill: #d9a24d;
      }

      .cls-2 {
        fill: #cd9948;
      }

      .cls-3 {
        fill: #e2a94f;
      }

      .cls-4 {
        fill: #219853;
      }

      .cls-5 {
        fill: #27ae60;
      }

      .cls-6 {
        fill: #29b865;
      }

      .cls-7 {
        fill: #24a159;
      }
    </style>
  </defs>
  <g id="Calque_1-2" data-name="Calque 1">
    <g id="Layer0_34_FILL" data-name="Layer0 34 FILL">
      <path class="cls-7" d="m40,64v-4h-4v4h4M60,4v4h4v-4h-4M28,44h-4v4h4v-4m8-4v-4h-4v4h4m0-20h-4v4h4v-4M12,12h-4v4h4v-4m36,36v8h8v-8h-8Z"/>
      <path class="cls-5" d="m60,8v-4h4V0H0v64h36v-4h4v4h24V8h-4m0,4v4h-4v-4h4m-20,32h4v4h-4v-4m8,12v-8h8v8h-8M8,12h4v4h-4v-4m24,8h4v4h-4v-4m-4-12h4v4h-4v-4m-12,8h8v8h-8v-8m20,20v4h-4v-4h4m-12,8h4v4h-4v-4m-8-12h-4v-4h4v4m-12,16h4v4h-4v-4Z"/>
      <path class="cls-6" d="m8,48h-4v4h4v-4m4-16h4v-4h-4v4m12-16h-8v8h8v-8m8-8h-4v4h4v-4m12,36h-4v4h4v-4m16-28v-4h-4v4h4Z"/>
    </g>
    <g id="Layer0_34_MEMBER_0_FILL" data-name="Layer0 34 MEMBER 0 FILL">
      <path class="cls-1" d="m48,32c0-4.43-1.57-8.22-4.7-11.35-3.1-3.1-6.87-4.65-11.3-4.65-3.87,0-7.5.1-10.9.3-6.78.81-13.81,3.06-21.1,6.75v17.9c5.57-2.84,10.37-3.44,14.4-1.8,2.28.88,4.36,2.26,6.25,4.15,3.13,3.13,6.92,4.7,11.35,4.7s8.2-1.57,11.3-4.7c3.13-3.1,4.7-6.87,4.7-11.3Z"/>
      <path class="cls-4" d="m43.3,20.65c3.13,3.13,4.7,6.92,4.7,11.35s-1.57,8.2-4.7,11.3c-3.1,3.13-6.87,4.7-11.3,4.7s-8.22-1.57-11.35-4.7c-1.89-1.89-3.97-3.27-6.25-4.15-4.03-1.64-8.83-1.04-14.4,1.8v2c.31,0,.61-.09.9-.25,4.94-2.5,9.19-3.06,12.75-1.7h0c2.04.8,3.89,2.03,5.55,3.7,3.54,3.54,7.81,5.3,12.8,5.3,4.98,0,9.21-1.77,12.7-5.3h0c3.53-3.49,5.3-7.72,5.3-12.7,0-4.99-1.76-9.26-5.3-12.8-3.48-3.47-7.71-5.2-12.7-5.2-3.92,0-7.6.1-11.05.3-.02,0-.05,0-.1,0-6.7.81-13.65,2.98-20.85,6.5v2.25c7.29-3.69,14.32-5.94,21.1-6.75,3.4-.2,7.03-.3,10.9-.3,4.43,0,8.2,1.55,11.3,4.65Z"/>
    </g>
    <g id="Layer0_34_MEMBER_0_MEMBER_0_FILL" data-name="Layer0 34 MEMBER 0 MEMBER 0 FILL">
      <path class="cls-3" d="m21,40h4v-4h-4v4Z"/>
    </g>
    <g id="Layer0_34_MEMBER_0_MEMBER_1_FILL" data-name="Layer0 34 MEMBER 0 MEMBER 1 FILL">
      <path class="cls-2" d="m32,45v-4h-4v4h4Z"/>
    </g>
    <g id="Layer0_34_MEMBER_0_MEMBER_2_FILL" data-name="Layer0 34 MEMBER 0 MEMBER 2 FILL">
      <path class="cls-3" d="m36,19h-4v4h4v-4Z"/>
    </g>
    <g id="Layer0_34_MEMBER_0_MEMBER_3_FILL" data-name="Layer0 34 MEMBER 0 MEMBER 3 FILL">
      <path class="cls-2" d="m4,30h4v-4h-4v4Z"/>
    </g>
  </g>
</svg>