<?xml version="1.0" encoding="UTF-8"?>
<svg id="Calque_2" data-name="Calque 2" xmlns="http://www.w3.org/2000/svg" viewBox="0 0 64 64">
  <defs>
    <style>
      .cls-1 {
        fill: #d9a24d;
      }

      .cls-2 {
        fill: #cd9948;
      }

      .cls-3 {
        fill: #e2a94f;
      }

      .cls-4 {
        fill: #219853;
      }

      .cls-5 {
        fill: #27ae60;
      }

      .cls-6 {
        fill: #29b865;
      }

      .cls-7 {
        fill: #24a159;
      }
    </style>
  </defs>
  <g id="Calque_1-2" data-name="Calque 1">
    <g id="Layer0_30_FILL" data-name="Layer0 30 FILL">
      <path class="cls-7" d="m36,64h4v-4h-4v4m12-16v8h8v-8h-8m-16-8h4v-4h-4v4m-4,4h-4v4h4v-4M12,16v-4h-4v4h4m24,4h-4v4h4v-4m28-12v-4h-4v4h4Z"/>
      <path class="cls-5" d="m64,4V0H0v64h36v-4h4v4h24V8h-4v-4h4m-32,16h4v4h-4v-4m0-12v4h-4v-4h4m24,8v-4h4v4h-4m-40,0h8v8h-8v-8m-4-4v4h-4v-4h4m12,32h4v4h-4v-4m-8-16v4h-4v-4h4m-8,20v4h-4v-4h4m32-4h4v4h-4v-4m-4-4h-4v-4h4v4m12,16v-8h8v8h-8Z"/>
      <path class="cls-6" d="m44,44h-4v4h4v-4m-36,8v-4h-4v4h4m8-20v-4h-4v4h4m8-16h-8v8h8v-8m32-4v4h4v-4h-4m-24,0v-4h-4v4h4Z"/>
    </g>
    <g id="Layer0_30_MEMBER_0_FILL" data-name="Layer0 30 MEMBER 0 FILL">
      <path class="cls-4" d="m64,43.15v-2.2c-6.83,3.47-13.67,4.72-20.5,3.75-4.7-.6-6.88,1.12-6.55,5.15.27,4.73,1.6,9.45,4,14.15h2c0-.31-.09-.61-.25-.9-2.25-4.44-3.5-8.89-3.75-13.35,0-.02,0-.05,0-.1-.1-1.16.1-2.01.6-2.55.8-.49,2.02-.64,3.65-.45h.05c6.92,1,13.83-.16,20.75-3.5m-43.2,20.85h2.25c-4.5-8.93-5.23-17.85-2.2-26.75,4.37-9.2,11.82-12.7,22.35-10.5,6.93,1.07,13.87-.17,20.8-3.7v-2c-.31,0-.61.07-.9.2-6.53,3.34-13.07,4.51-19.6,3.5-11.53-2.36-19.68,1.53-24.45,11.65-.04.07-.07.13-.1.2-3.11,9.12-2.5,18.25,1.85,27.4Z"/>
      <path class="cls-1" d="m20.85,37.25c-3.03,8.9-2.3,17.82,2.2,26.75h17.9c-2.4-4.7-3.73-9.42-4-14.15-.33-4.03,1.85-5.75,6.55-5.15,6.83.97,13.67-.28,20.5-3.75v-17.9c-6.93,3.53-13.87,4.77-20.8,3.7-10.53-2.2-17.98,1.3-22.35,10.5Z"/>
    </g>
    <g id="Layer0_30_MEMBER_0_MEMBER_0_FILL" data-name="Layer0 30 MEMBER 0 MEMBER 0 FILL">
      <path class="cls-3" d="m34,41h4v-4h-4v4Z"/>
    </g>
    <g id="Layer0_30_MEMBER_0_MEMBER_1_FILL" data-name="Layer0 30 MEMBER 0 MEMBER 1 FILL">
      <path class="cls-2" d="m46,35v-4h-4v4h4Z"/>
    </g>
    <g id="Layer0_30_MEMBER_0_MEMBER_2_FILL" data-name="Layer0 30 MEMBER 0 MEMBER 2 FILL">
      <path class="cls-2" d="m22,56h4v-4h-4v4Z"/>
    </g>
  </g>
</svg>