<?xml version="1.0" encoding="UTF-8"?>
<svg id="Calque_2" data-name="Calque 2" xmlns="http://www.w3.org/2000/svg" viewBox="0 0 64 64">
  <defs>
    <style>
      .cls-1 {
        fill: #d9a24d;
      }

      .cls-2 {
        fill: #cd9948;
      }

      .cls-3 {
        fill: #e2a94f;
      }

      .cls-4 {
        fill: #219853;
      }

      .cls-5 {
        fill: #27ae60;
      }

      .cls-6 {
        fill: #29b865;
      }

      .cls-7 {
        fill: #24a159;
      }
    </style>
  </defs>
  <g id="Calque_1-2" data-name="Calque 1">
    <g id="Layer0_28_FILL" data-name="Layer0 28 FILL">
      <path class="cls-7" d="m36,60v4h4v-4h-4M60,8h4v-4h-4v4m-4,48v-8h-8v8h8m-20-16v-4h-4v4h4m0-20h-4v4h4v-4m-12,24v4h4v-4h-4M8,16h4v-4h-4v4Z"/>
      <path class="cls-5" d="m0,0v64h36v-4h4v4h24V8h-4v-4h4V0H0m12,16h-4v-4h4v4m4,0h8v8h-8v-8m0,16h-4v-4h4v4m-12,20v-4h4v4h-4m20-4v-4h4v4h-4m4-36v-4h4v4h-4m4,8h4v4h-4v-4m28-8v4h-4v-4h4m-24,24v4h-4v-4h4m4,8h4v4h-4v-4m16,4v8h-8v-8h8Z"/>
      <path class="cls-6" d="m44,44h-4v4h4v-4m16-28v-4h-4v4h4M28,8v4h4v-4h-4M4,48v4h4v-4h-4m8-16h4v-4h-4v4m12-16h-8v8h8v-8Z"/>
    </g>
    <g id="Layer0_28_MEMBER_0_FILL" data-name="Layer0 28 MEMBER 0 FILL">
      <path class="cls-4" d="m43.15,0h-2.2c5.4,10.67,5.4,21.33,0,32-3.27,6.42-4.57,12.83-3.9,19.25.44,4.25,1.74,8.5,3.9,12.75h2c0-.31-.09-.61-.25-.9-1.99-3.95-3.21-7.9-3.65-11.85-.66-6.12.55-12.23,3.65-18.35,5.57-10.97,5.72-21.93.45-32.9m-23.9,44.2c1-4.3-.17-6.73-3.5-7.3-5.27.03-10.52,1.38-15.75,4.05v2c.31,0,.61-.09.9-.25,4.88-2.46,9.76-3.73,14.65-3.8.85.17,1.43.54,1.75,1.1.37.91.37,2.16,0,3.75-.01.07-.03.14-.05.2-.28,2.43-.32,4.87-.1,7.3.42,4.25,1.64,8.5,3.65,12.75h2.25c-2.15-4.25-3.45-8.5-3.9-12.75-.22-2.35-.18-4.7.1-7.05M23.05,0h-2c0,.31.07.61.2.9,2.59,5.07,3.89,10.12,3.9,15.15,0,.76-.13,1.31-.4,1.65-.34.18-.85.19-1.55.05l.05.05c-7.76-1.71-15.51-.71-23.25,3v2.25c7.6-3.87,15.22-4.97,22.85-3.3,2.87.53,4.3-.7,4.3-3.7,0-5.33-1.37-10.68-4.1-16.05Z"/>
      <path class="cls-1" d="m15.75,36.9c3.33.57,4.5,3,3.5,7.3-.28,2.35-.32,4.7-.1,7.05.45,4.25,1.75,8.5,3.9,12.75h17.9c-2.16-4.25-3.46-8.5-3.9-12.75-.67-6.42.63-12.83,3.9-19.25,5.4-10.67,5.4-21.33,0-32h-17.9c2.73,5.37,4.1,10.72,4.1,16.05,0,3-1.43,4.23-4.3,3.7-7.63-1.67-15.25-.57-22.85,3.3v17.9c5.23-2.67,10.48-4.02,15.75-4.05Z"/>
    </g>
    <g id="Layer0_28_MEMBER_0_MEMBER_0_FILL" data-name="Layer0 28 MEMBER 0 MEMBER 0 FILL">
      <path class="cls-3" d="m21,22v4h4v-4h-4Z"/>
    </g>
    <g id="Layer0_28_MEMBER_0_MEMBER_1_FILL" data-name="Layer0 28 MEMBER 0 MEMBER 1 FILL">
      <path class="cls-2" d="m24,28v4h4v-4h-4Z"/>
    </g>
    <g id="Layer0_28_MEMBER_0_MEMBER_2_FILL" data-name="Layer0 28 MEMBER 0 MEMBER 2 FILL">
      <path class="cls-3" d="m34,9v4h4v-4h-4Z"/>
    </g>
    <g id="Layer0_28_MEMBER_0_MEMBER_3_FILL" data-name="Layer0 28 MEMBER 0 MEMBER 3 FILL">
      <path class="cls-2" d="m24,50v4h4v-4h-4Z"/>
    </g>
    <g id="Layer0_28_MEMBER_0_MEMBER_4_FILL" data-name="Layer0 28 MEMBER 0 MEMBER 4 FILL">
      <path class="cls-2" d="m6,31H2v4h4v-4Z"/>
    </g>
  </g>
</svg>