<?xml version="1.0" encoding="UTF-8"?>
<svg id="Calque_2" data-name="Calque 2" xmlns="http://www.w3.org/2000/svg" viewBox="0 0 64 64">
  <defs>
    <style>
      .cls-1 {
        fill: #d9a24d;
      }

      .cls-2 {
        fill: #cd9948;
      }

      .cls-3 {
        fill: #e2a94f;
      }

      .cls-4 {
        fill: #219853;
      }

      .cls-5 {
        fill: #27ae60;
      }

      .cls-6 {
        fill: #29b865;
      }

      .cls-7 {
        fill: #24a159;
      }
    </style>
  </defs>
  <g id="Calque_1-2" data-name="Calque 1">
    <g id="Layer0_37_FILL" data-name="Layer0 37 FILL">
      <path class="cls-7" d="m36,60v4h4v-4h-4m28-52v-4h-4v4h4m-16,40v8h8v-8h-8m-20,0v-4h-4v4h4m8-12h-4v4h4v-4m0-16h-4v4h4v-4M8,12v4h4v-4h-4Z"/>
      <path class="cls-5" d="m0,0v64h36v-4h4v4h24V8h-4v-4h4V0H0m8,16v-4h4v4h-4m0,36h-4v-4h4v4M60,12v4h-4v-4h4m-44,4h8v8h-8v-8m16-4h-4v-4h4v4m0,8h4v4h-4v-4m0,16h4v4h-4v-4m8,12v-4h4v4h-4M12,28h4v4h-4v-4m16,16v4h-4v-4h4m20,12v-8h8v8h-8Z"/>
      <path class="cls-6" d="m16,28h-4v4h4v-4m24,16v4h4v-4h-4M28,12h4v-4h-4v4m-4,4h-8v8h8v-8m36,0v-4h-4v4h4M4,52h4v-4h-4v4Z"/>
    </g>
    <g id="Layer0_37_MEMBER_0_FILL" data-name="Layer0 37 MEMBER 0 FILL">
      <path class="cls-1" d="m32,16c-4.43,0-8.22,1.55-11.35,4.65-3.1,3.13-4.65,6.92-4.65,11.35,0,3.87.15,7.39.45,10.55.7,7,2.9,14.15,6.6,21.45h17.9c-2.84-5.57-3.32-10.72-1.45-15.45.64-1.59,1.91-3.34,3.8-5.25,3.13-3.1,4.7-6.87,4.7-11.3s-1.57-8.22-4.7-11.35c-3.1-3.1-6.87-4.65-11.3-4.65Z"/>
      <path class="cls-4" d="m20.65,20.65c3.13-3.1,6.92-4.65,11.35-4.65s8.2,1.55,11.3,4.65c3.13,3.13,4.7,6.92,4.7,11.35s-1.57,8.2-4.7,11.3c-1.89,1.91-3.16,3.66-3.8,5.25-1.87,4.73-1.39,9.88,1.45,15.45h2c0-.31-.09-.61-.25-.9-2.52-4.99-2.97-9.6-1.35-13.85v.05c.58-1.38,1.7-2.91,3.35-4.6h0c3.53-3.49,5.3-7.72,5.3-12.7,0-4.99-1.76-9.26-5.3-12.8-3.48-3.47-7.71-5.2-12.7-5.2-4.98,0-9.23,1.73-12.75,5.2l-.05.05c-3.47,3.52-5.2,7.77-5.2,12.75,0,3.95.15,7.53.45,10.75.7,6.94,2.81,14.02,6.35,21.25h2.25c-3.7-7.3-5.9-14.45-6.6-21.45-.3-3.16-.45-6.68-.45-10.55,0-4.43,1.55-8.22,4.65-11.35Z"/>
    </g>
    <g id="Layer0_37_MEMBER_0_MEMBER_0_FILL" data-name="Layer0 37 MEMBER 0 MEMBER 0 FILL">
      <path class="cls-3" d="m35,28h4v-4h-4v4Z"/>
    </g>
    <g id="Layer0_37_MEMBER_0_MEMBER_1_FILL" data-name="Layer0 37 MEMBER 0 MEMBER 1 FILL">
      <path class="cls-2" d="m43,36v-4h-4v4h4Z"/>
    </g>
    <g id="Layer0_37_MEMBER_0_MEMBER_2_FILL" data-name="Layer0 37 MEMBER 0 MEMBER 2 FILL">
      <path class="cls-3" d="m30,30v4h4v-4h-4Z"/>
    </g>
    <g id="Layer0_37_MEMBER_0_MEMBER_3_FILL" data-name="Layer0 37 MEMBER 0 MEMBER 3 FILL">
      <path class="cls-2" d="m24,53h4v-4h-4v4Z"/>
    </g>
  </g>
</svg>