<?xml version="1.0" encoding="UTF-8"?>
<svg id="Calque_2" data-name="Calque 2" xmlns="http://www.w3.org/2000/svg" viewBox="0 0 64 64">
  <defs>
    <style>
      .cls-1 {
        fill: #d9a24d;
      }

      .cls-2 {
        fill: #cd9948;
      }

      .cls-3 {
        fill: #e2a94f;
      }

      .cls-4 {
        fill: #219853;
      }

      .cls-5 {
        fill: #27ae60;
      }

      .cls-6 {
        fill: #29b865;
      }

      .cls-7 {
        fill: #24a159;
      }
    </style>
  </defs>
  <g id="Calque_1-2" data-name="Calque 1">
    <g id="Layer0_32_FILL" data-name="Layer0 32 FILL">
      <path class="cls-7" d="m36,60v4h4v-4h-4M60,8h4v-4h-4v4m-4,40h-8v8h8v-8m-24-12v4h4v-4h-4m-4,12v-4h-4v4h4M12,12h-4v4h4v-4m24,8h-4v4h4v-4Z"/>
      <path class="cls-5" d="m64,8h-4v-4h4V0H0v64h36v-4h4v4h24V8m-32,12h4v4h-4v-4m0-12v4h-4v-4h4m24,8v-4h4v4h-4m-40,0h8v8h-8v-8m-8-4h4v4h-4v-4m4,20v-4h4v4h-4m16,12v4h-4v-4h4m-24,4h4v4h-4v-4m28-8v-4h4v4h-4m8,4h4v4h-4v-4m8,4h8v8h-8v-8Z"/>
      <path class="cls-6" d="m44,44h-4v4h4v-4m-36,4h-4v4h4v-4m4-20v4h4v-4h-4m12-12h-8v8h8v-8m32-4v4h4v-4h-4m-24,0v-4h-4v4h4Z"/>
    </g>
    <g id="Layer0_32_MEMBER_0_FILL" data-name="Layer0 32 MEMBER 0 FILL">
      <path class="cls-4" d="m21.05,0c0,.31.07.61.2.9,3.94,7.73,4.86,15.44,2.75,23.15,0,.05,0,.09,0,.1-2.3,10.73,1.9,17.71,12.6,20.95.02,0,.04,0,.05,0,9.11,3.07,18.23,2.42,27.35-1.95v-2.2c-8.93,4.5-17.85,5.25-26.75,2.25-9.57-2.87-13.33-9.07-11.3-18.6,2.23-8.2,1.27-16.4-2.9-24.6h-2m19.9,0c3.17,6.23,4.48,12.47,3.95,18.7-.87,5.33.75,8.13,4.85,8.4,4.73-.27,9.48-1.62,14.25-4.05v-2c-.31,0-.61.07-.9.2-4.43,2.28-8.85,3.56-13.25,3.85-.02,0-.06,0-.1,0-1.19-.1-2.04-.54-2.55-1.3-.55-1.1-.67-2.7-.35-4.8.03-.03.04-.08.05-.15.54-6.28-.71-12.56-3.75-18.85h-2.2Z"/>
      <path class="cls-1" d="m44.9,18.7c.53-6.23-.78-12.47-3.95-18.7h-17.9c4.17,8.2,5.13,16.4,2.9,24.6-2.03,9.53,1.73,15.73,11.3,18.6,8.9,3,17.82,2.25,26.75-2.25v-17.9c-4.77,2.43-9.52,3.78-14.25,4.05-4.1-.27-5.72-3.07-4.85-8.4Z"/>
    </g>
    <g id="Layer0_32_MEMBER_0_MEMBER_0_FILL" data-name="Layer0 32 MEMBER 0 MEMBER 0 FILL">
      <path class="cls-3" d="m28,26v4h4v-4h-4Z"/>
    </g>
    <g id="Layer0_32_MEMBER_0_MEMBER_1_FILL" data-name="Layer0 32 MEMBER 0 MEMBER 1 FILL">
      <path class="cls-2" d="m39,38v-4h-4v4h4Z"/>
    </g>
    <g id="Layer0_32_MEMBER_0_MEMBER_2_FILL" data-name="Layer0 32 MEMBER 0 MEMBER 2 FILL">
      <path class="cls-3" d="m42,5h-4v4h4v-4Z"/>
    </g>
    <g id="Layer0_32_MEMBER_0_MEMBER_3_FILL" data-name="Layer0 32 MEMBER 0 MEMBER 3 FILL">
      <path class="cls-2" d="m57,34h4v-4h-4v4Z"/>
    </g>
  </g>
</svg>