<?xml version="1.0" encoding="UTF-8"?>
<svg id="Calque_2" data-name="Calque 2" xmlns="http://www.w3.org/2000/svg" viewBox="0 0 64 64">
  <defs>
    <style>
      .cls-1 {
        fill: #d9a24d;
      }

      .cls-2 {
        fill: #cd9948;
      }

      .cls-3 {
        fill: #e2a94f;
      }

      .cls-4 {
        fill: #219853;
      }

      .cls-5 {
        fill: #27ae60;
      }

      .cls-6 {
        fill: #29b865;
      }

      .cls-7 {
        fill: #24a159;
      }
    </style>
  </defs>
  <g id="Calque_1-2" data-name="Calque 1">
    <g id="Layer0_27_FILL" data-name="Layer0 27 FILL">
      <path class="cls-7" d="m36,60v4h4v-4h-4M60,8h4v-4h-4v4m-12,40v8h8v-8h-8m-24-4v4h4v-4h-4m8-4h4v-4h-4v4m4-20h-4v4h4v-4m-24-4v-4h-4v4h4Z"/>
      <path class="cls-5" d="m64,4V0H0v64h36v-4h4v4h24V8h-4v-4h4m-8,8h4v4h-4v-4m-40,4h8v8h-8v-8m16-4h-4v-4h4v4m-20,0v4h-4v-4h4m20,8h4v4h-4v-4m4,20h-4v-4h4v4m-24-12h4v4h-4v-4m12,20v-4h4v4h-4m20-4v4h-4v-4h4m4,12v-8h8v8h-8m-44-4v-4h4v4h-4Z"/>
      <path class="cls-6" d="m4,48v4h4v-4h-4m40,0v-4h-4v4h4m-28-20h-4v4h4v-4m12-16h4v-4h-4v4m-4,4h-8v8h8v-8m36-4h-4v4h4v-4Z"/>
    </g>
    <g id="Layer0_27_MEMBER_0_FILL" data-name="Layer0 27 MEMBER 0 FILL">
      <path class="cls-4" d="m64,43.15v-2.2c-10.67,5.4-21.33,5.4-32,0-7.43-3.79-14.87-4.94-22.3-3.45-3.23.65-6.47,1.8-9.7,3.45v2c.31,0,.61-.09.9-.25,2.93-1.48,5.87-2.53,8.8-3.15,7.13-1.51,14.27-.46,21.4,3.15,10.97,5.57,21.93,5.72,32.9.45M43.15,0h-2.2c3.53,6.97,4.77,13.95,3.7,20.95-.73,3.97.45,6.03,3.55,6.2,5.27-.03,10.53-1.4,15.8-4.1v-2c-.31,0-.61.07-.9.2-4.92,2.53-9.87,3.83-14.85,3.9-.7-.04-1.22-.28-1.55-.7-.31-.7-.34-1.75-.1-3.15.02,0,.02-.03,0-.05,1.11-7.1-.04-14.18-3.45-21.25m-18,15.6c.01.71-.19,1.23-.6,1.55-.76.38-1.93.44-3.5.2-3.79-.55-7.57-.47-11.35.25-3.24.6-6.47,1.67-9.7,3.2v2.25c3.23-1.64,6.46-2.79,9.7-3.45,3.68-.72,7.36-.8,11.05-.25,4.33.63,6.47-.63,6.4-3.8-.1-5.17-1.47-10.35-4.1-15.55h-2c0,.31.07.61.2.9,2.5,4.92,3.8,9.82,3.9,14.7Z"/>
      <path class="cls-1" d="m40.95,0h-17.9c2.63,5.2,4,10.38,4.1,15.55.07,3.17-2.07,4.43-6.4,3.8-3.69-.55-7.37-.47-11.05.25-3.24.66-6.47,1.81-9.7,3.45v17.9c3.23-1.65,6.47-2.8,9.7-3.45,7.43-1.49,14.87-.34,22.3,3.45,10.67,5.4,21.33,5.4,32,0v-17.9c-5.27,2.7-10.53,4.07-15.8,4.1-3.1-.17-4.28-2.23-3.55-6.2,1.07-7-.17-13.98-3.7-20.95Z"/>
    </g>
    <g id="Layer0_27_MEMBER_0_MEMBER_0_FILL" data-name="Layer0 27 MEMBER 0 MEMBER 0 FILL">
      <path class="cls-3" d="m18,30h4v-4h-4v4Z"/>
    </g>
    <g id="Layer0_27_MEMBER_0_MEMBER_1_FILL" data-name="Layer0 27 MEMBER 0 MEMBER 1 FILL">
      <path class="cls-2" d="m50,36v-4h-4v4h4Z"/>
    </g>
    <g id="Layer0_27_MEMBER_0_MEMBER_2_FILL" data-name="Layer0 27 MEMBER 0 MEMBER 2 FILL">
      <path class="cls-2" d="m10,26h4v-4h-4v4Z"/>
    </g>
    <g id="Layer0_27_MEMBER_0_MEMBER_3_FILL" data-name="Layer0 27 MEMBER 0 MEMBER 3 FILL">
      <path class="cls-3" d="m35,6v4h4v-4h-4Z"/>
    </g>
    <g id="Layer0_27_MEMBER_0_MEMBER_4_FILL" data-name="Layer0 27 MEMBER 0 MEMBER 4 FILL">
      <path class="cls-2" d="m54,41h4v-4h-4v4Z"/>
    </g>
  </g>
</svg>