<?xml version="1.0" encoding="UTF-8"?>
<svg id="Calque_2" data-name="Calque 2" xmlns="http://www.w3.org/2000/svg" viewBox="0 0 64 64">
  <defs>
    <style>
      .cls-1 {
        fill: #d9a24d;
      }

      .cls-2 {
        fill: #cd9948;
      }

      .cls-3 {
        fill: #e2a94f;
      }

      .cls-4 {
        fill: #219853;
      }

      .cls-5 {
        fill: #27ae60;
      }

      .cls-6 {
        fill: #29b865;
      }

      .cls-7 {
        fill: #24a159;
      }
    </style>
  </defs>
  <g id="Calque_1-2" data-name="Calque 1">
    <g id="Layer0_24_FILL" data-name="Layer0 24 FILL">
      <path class="cls-7" d="m36,60v4h4v-4h-4M64,4h-4v4h4v-4m-16,44v8h8v-8h-8m-12-12h-4v4h4v-4m0-16h-4v4h4v-4m-8,28v-4h-4v4h4M12,12h-4v4h4v-4Z"/>
      <path class="cls-5" d="m60,4h4V0H0v64h36v-4h4v4h24V8h-4v-4m-28,4v4h-4v-4h4m24,8v-4h4v4h-4m-40,0h8v8h-8v-8m-8-4h4v4h-4v-4m4,16h4v4h-4v-4m-8,20h4v4h-4v-4m24-4v4h-4v-4h4m4-24h4v4h-4v-4m0,16h4v4h-4v-4m8,12v-4h4v4h-4m8,8v-8h8v8h-8Z"/>
      <path class="cls-6" d="m40,44v4h4v-4h-4m-32,4h-4v4h4v-4m8-20h-4v4h4v-4m8-12h-8v8h8v-8m32-4v4h4v-4h-4m-24,0v-4h-4v4h4Z"/>
    </g>
    <g id="Layer0_24_MEMBER_0_FILL" data-name="Layer0 24 MEMBER 0 FILL">
      <path class="cls-1" d="m23.05,32c-5.4,10.67-5.4,21.33,0,32h17.9c-.34-.66-.65-1.33-.95-2l-.85-2c-3.56-9.33-2.96-18.66,1.8-28,5.4-10.67,5.4-21.33,0-32h-17.9c5.43,10.67,5.43,21.33,0,32Z"/>
      <path class="cls-4" d="m21.05,0c0,.31.07.61.2.9,5.14,10.07,5.14,20.13,0,30.2-5.54,10.97-5.69,21.93-.45,32.9h2.25c-5.4-10.67-5.4-21.33,0-32,5.43-10.67,5.43-21.33,0-32h-2m22.1,0h-2.2c5.4,10.67,5.4,21.33,0,32-4.76,9.34-5.36,18.67-1.8,28l.85,2c.3.67.61,1.34.95,2h2c0-.31-.09-.61-.25-.9-.3-.63-.6-1.26-.9-1.9h.05l-.8-1.95-.05-.05c-3.32-8.76-2.75-17.52,1.7-26.3,5.57-10.97,5.72-21.93.45-32.9Z"/>
    </g>
    <g id="Layer0_24_MEMBER_0_MEMBER_0_FILL" data-name="Layer0 24 MEMBER 0 MEMBER 0 FILL">
      <path class="cls-2" d="m38,6v4h4v-4h-4Z"/>
    </g>
    <g id="Layer0_24_MEMBER_0_MEMBER_1_FILL" data-name="Layer0 24 MEMBER 0 MEMBER 1 FILL">
      <path class="cls-3" d="m34,13v4h4v-4h-4Z"/>
    </g>
    <g id="Layer0_24_MEMBER_0_MEMBER_2_FILL" data-name="Layer0 24 MEMBER 0 MEMBER 2 FILL">
      <path class="cls-3" d="m26,35v4h4v-4h-4Z"/>
    </g>
    <g id="Layer0_24_MEMBER_0_MEMBER_3_FILL" data-name="Layer0 24 MEMBER 0 MEMBER 3 FILL">
      <path class="cls-3" d="m26,41h-4v4h4v-4Z"/>
    </g>
    <g id="Layer0_24_MEMBER_0_MEMBER_4_FILL" data-name="Layer0 24 MEMBER 0 MEMBER 4 FILL">
      <path class="cls-2" d="m28,51h-4v4h4v-4Z"/>
    </g>
  </g>
</svg>