<?xml version="1.0" encoding="UTF-8"?>
<svg id="Calque_2" data-name="Calque 2" xmlns="http://www.w3.org/2000/svg" viewBox="0 0 16.1 24">
  <defs>
    <style>
      .cls-1 {
        fill: #686d6d;
      }

      .cls-2 {
        fill: #e9c07f;
      }

      .cls-3 {
        fill: #ffd18b;
      }

      .cls-4 {
        fill: #9a6836;
      }

      .cls-5 {
        fill: #c48647;
      }

      .cls-6 {
        fill: #af8f5e;
      }

      .cls-7 {
        fill: #acb8b8;
      }
    </style>
  </defs>
  <g id="Calque_1-2" data-name="Calque 1">
    <g id="Layer0_101_FILL" data-name="Layer0 101 FILL">
      <path class="cls-1" d="m4.05,18h-2.05v2h.05v2c0,.57.2,1.05.6,1.45.37.37.83.55,1.4.55v-6m10.05,0h-2.05v6c.57,0,1.05-.18,1.45-.55.37-.4.55-.88.55-1.45v-2h.05v-2Z"/>
      <path class="cls-6" d="m12.05,24v-2H4.05v2h8m2.05-18h-.05v2h.05v12c.57,0,1.05-.18,1.45-.55.37-.4.55-.88.55-1.45v-10c0-.57-.18-1.03-.55-1.4-.4-.4-.88-.6-1.45-.6M.6,6.6c-.4.37-.6.83-.6,1.4v10c0,.57.2,1.05.6,1.45.37.37.83.55,1.4.55V6c-.57,0-1.03.2-1.4.6Z"/>
      <path class="cls-7" d="m12.05,14H4.05v8h8v-8m-6-6h-2v4h8v-4h-6Z"/>
      <path class="cls-2" d="m12.05,12v6h2.05v-8h-2.05v2m-8,0v-2h-2.05v8h2.05v-6Z"/>
      <path class="cls-3" d="m14.1,8h-2.05v2h2.05v-2m-10.05,4v2h8v-2H4.05m0-4h-2.05v2h2.05v-2m6,0v-4h-4v4h4Z"/>
      <path class="cls-5" d="m10.05,2h-4l-2,2v4h2v-4h4v4h2v-4l-2-2Z"/>
      <path class="cls-4" d="m4.65.6l-2,2c-.4.37-.6.83-.6,1.4v2h-.05v2h2.05v-4l2-2h4l2,2v4h2v-4c0-.57-.18-1.03-.55-1.4l-2-2c-.4-.4-.88-.6-1.45-.6h-4c-.57,0-1.03.2-1.4.6Z"/>
    </g>
  </g>
</svg>