<?xml version="1.0" encoding="UTF-8"?>
<svg id="Calque_2" data-name="Calque 2" xmlns="http://www.w3.org/2000/svg" viewBox="0 0 20.1 26">
  <defs>
    <style>
      .cls-1 {
        fill: #f5f5f5;
      }

      .cls-2 {
        fill: #e9c07f;
      }

      .cls-3 {
        fill: #ffd18b;
      }

      .cls-4 {
        fill: #9a6836;
      }

      .cls-5 {
        fill: #c48647;
      }

      .cls-6 {
        fill: #af8f5e;
      }

      .cls-7 {
        fill: #115f32;
      }

      .cls-8 {
        fill: #1ea7e1;
      }

      .cls-9 {
        fill: #1b914d;
      }
    </style>
  </defs>
  <g id="Calque_1-2" data-name="Calque 1">
    <g id="Layer0_110_FILL" data-name="Layer0 110 FILL">
      <path class="cls-2" d="m2,16v4h2.05v-4h-2.05m14.1-2h-2v1.75l.05,2.25h1.95v-4Z"/>
      <path class="cls-6" d="m2,20v-4H0v4c0,.57.2,1.05.6,1.45.37.37.83.55,1.4.55h2.05v-2h-2.05Z"/>
      <path class="cls-7" d="m12.05,26v-2H4.05v-2h-2v2c0,.57.2,1.05.6,1.45.37.37.83.55,1.4.55h8M6.05,0c-.57,0-1.03.2-1.4.6-.4.37-.6.83-.6,1.4v6h-2.05c-.57,0-1.03.2-1.4.6-.4.37-.6.83-.6,1.4v6h2v-6h4.05V2h4v8h2V2c0-.57-.18-1.03-.55-1.4-.4-.4-.88-.6-1.45-.6h-4Z"/>
      <path class="cls-5" d="m16.1,24v-6h-1.95v2h-.05v4h2m-2-14h.05l-.05,4h2v-6l2-2V2h-4v2h2v2h-2v4Z"/>
      <path class="cls-9" d="m10.05,12h-4v6h-2v6h8v-6h-2v-6m4.05,2h-2.05v4h2.05v-4m-10.05-4h-2.05v6h2.05v-6M10.05,2h-4v6h4V2Z"/>
      <path class="cls-1" d="m12.05,14v-4h-2v8h2v-4m-6-2v-2h-2v8h2v-6Z"/>
      <path class="cls-8" d="m12.1,10h-.05v2.25l.05-2.25Z"/>
      <path class="cls-3" d="m6.05,10v2h4v-4h-4v2Z"/>
      <path class="cls-4" d="m12.1,2h-.05v8h.05l-.05,2.25v1.75h2.05l.05-4h-.05v-4h2v-2h-2v-2h4v4l-2,2v16h-2v-4h.05v-2h-2.1v8h4.1c.53,0,1-.18,1.4-.55.37-.4.55-.88.55-1.45v-15.15l1.45-1.4c.37-.4.55-.88.55-1.45V2c0-.57-.18-1.03-.55-1.4-.4-.4-.88-.6-1.45-.6h-4c-.57,0-1.03.2-1.4.6-.4.37-.6.83-.6,1.4Z"/>
    </g>
  </g>
</svg>