<?xml version="1.0" encoding="UTF-8"?>
<svg id="Calque_2" data-name="Calque 2" xmlns="http://www.w3.org/2000/svg" viewBox="0 0 16.1 24">
  <defs>
    <style>
      .cls-1 {
        fill: #f5f5f5;
      }

      .cls-2 {
        fill: #e9c07f;
      }

      .cls-3 {
        fill: #fc0;
      }

      .cls-4 {
        fill: #ffd18b;
      }

      .cls-5 {
        fill: #9a6836;
      }

      .cls-6 {
        fill: #c48647;
      }

      .cls-7 {
        fill: #af8f5e;
      }

      .cls-8 {
        fill: #c69d00;
      }

      .cls-9 {
        fill: #157da8;
      }

      .cls-10 {
        fill: #1ea7e1;
      }

      .cls-11 {
        fill: #7b7360;
      }
    </style>
  </defs>
  <g id="Calque_1-2" data-name="Calque 1">
    <g id="Layer0_89_FILL" data-name="Layer0 89 FILL">
      <path class="cls-2" d="m4.05,18v-4l-2.05-2v6h2.05m8-4v4h2.05v-6l-2.05,2Z"/>
      <path class="cls-9" d="m2,18H0v4c0,.57.2,1.05.6,1.45.37.37.83.55,1.4.55h2.05v-2h-2.05v-4m12.1,0h-.05v4h-2v2h2c.57,0,1.05-.18,1.45-.55.37-.4.55-.88.55-1.45v-3.5c.03-.17.05-.33.05-.5h-2m-2.05-14h-2v4h4.05v4h2v-4c0-.57-.18-1.03-.55-1.4-.4-.4-.88-.6-1.45-.6h-2.05v-2m-8,0v2h-2.05c-.57,0-1.03.2-1.4.6-.4.37-.6.83-.6,1.4v4h2v-4h4.05v-4h-2Z"/>
      <path class="cls-7" d="m2,12H0v6h2v-6m14.1,0h-2v6h2v-6Z"/>
      <path class="cls-10" d="m4.05,12v-4h-2.05v4l2.05,2v4h-2.05v4h2.05v-2h2.25v-8h-2.25m10.05,0v-4h-2.05v4h-2v8h2v2h2v-4h-2v-4l2.05-2Z"/>
      <path class="cls-5" d="m12.05,24v-2H4.05v2h8Z"/>
      <path class="cls-6" d="m12.05,20H4.05v2h8v-2Z"/>
      <path class="cls-1" d="m10.05,12h2v-4h-2v2h-4v-2h-2v4h2.25v8h3.75v-8Z"/>
      <path class="cls-4" d="m10.05,6h-4v4h4v-4Z"/>
      <path class="cls-11" d="m6.05,4v2h4v-2h-4Z"/>
      <path class="cls-3" d="m6.05,2v2h4v-2h-4Z"/>
      <path class="cls-8" d="m4.65.6c-.4.37-.6.83-.6,1.4v2h2v-2h4v2h2v-2c0-.57-.18-1.03-.55-1.4-.4-.4-.88-.6-1.45-.6h-4c-.57,0-1.03.2-1.4.6Z"/>
    </g>
  </g>
</svg>