<?xml version="1.0" encoding="UTF-8"?>
<svg id="Calque_2" data-name="Calque 2" xmlns="http://www.w3.org/2000/svg" viewBox="0 0 20.05 25">
  <defs>
    <style>
      .cls-1 {
        fill: #686d6d;
      }

      .cls-2 {
        fill: #e9c07f;
      }

      .cls-3 {
        fill: #ffd18b;
      }

      .cls-4 {
        fill: #9a6836;
      }

      .cls-5 {
        fill: #c48647;
      }

      .cls-6 {
        fill: #acb8b8;
      }

      .cls-7 {
        fill: #157da8;
      }

      .cls-8 {
        fill: #1ea7e1;
      }
    </style>
  </defs>
  <g id="Calque_1-2" data-name="Calque 1">
    <g id="Layer0_92_FILL" data-name="Layer0 92 FILL">
      <path class="cls-5" d="m14.05,15v8h2v-8h-2m-10,6v2h8v-2H4.05m0-6v4h4v-4h-4m-2-6h-.05v2h2.05v2h12v-4h-6l-2,2-2-2H2.05Z"/>
      <path class="cls-3" d="m12.05,19h-1.95v2h1.95v-2m4-4v-2h-5.95v2h5.95m-6-10h-4v4l2,2,2-2v-4Z"/>
      <path class="cls-8" d="m10.1,15v4h1.95v-4h-1.95m1.95-10l-2-2h-4l-2,2v4h2v-4h4v4h2v-4Z"/>
      <path class="cls-4" d="m4.05,23h-2c0,.57.2,1.05.6,1.45.37.37.83.55,1.4.55h8c.37,0,.7-.08,1-.25.3.17.63.25,1,.25h2c.57,0,1.05-.18,1.45-.55.37-.4.55-.88.55-1.45v-12h-2v12h-2v-8h-2v8H4.05M2.05,7h-.05c-.57,0-1.03.2-1.4.6-.4.37-.6.83-.6,1.4v4h2v-4h.05v-2Z"/>
      <path class="cls-1" d="m2,13H0v8c0,.57.2,1.05.6,1.45.37.37.83.55,1.4.55h2.05v-2h-2.05v-8M12.2,2.3l-.15,2.7v4h2V3l1-1,1,1v4h2v2h-2v2h2c.57,0,1.05-.18,1.45-.55.37-.4.55-.88.55-1.45v-2c0-.57-.18-1.03-.55-1.4-.4-.4-.88-.6-1.45-.6v-2c0-.57-.18-1.03-.55-1.4l-1-1c-.4-.4-.88-.6-1.45-.6s-1.03.2-1.4.6l-1,1c-.23.2-.38.43-.45.7Z"/>
      <path class="cls-6" d="m4.05,13h-2.05v8h8.1v-8h-6.05m0,6v-4h4v4h-4m12-12V3l-1-1-1,1v6h4v-2h-2Z"/>
      <path class="cls-2" d="m2,13h2.05v-2h-2.05v2Z"/>
      <path class="cls-7" d="m12.05,5l.15-2.7-.7-.7c-.4-.4-.88-.6-1.45-.6h-4c-.57,0-1.03.2-1.4.6l-2,2c-.4.37-.6.83-.6,1.4v4h2v-4l2-2h4l2,2Z"/>
    </g>
  </g>
</svg>