<?xml version="1.0" encoding="UTF-8"?>
<svg id="Calque_2" data-name="Calque 2" xmlns="http://www.w3.org/2000/svg" viewBox="0 0 18.05 25">
  <defs>
    <style>
      .cls-1 {
        fill: #686d6d;
      }

      .cls-2 {
        fill: #e9c07f;
      }

      .cls-3 {
        fill: #ffd18b;
      }

      .cls-4 {
        fill: #9a6836;
      }

      .cls-5 {
        fill: #c48647;
      }

      .cls-6 {
        fill: #af8f5e;
      }

      .cls-7 {
        fill: #acb8b8;
      }

      .cls-8 {
        fill: #115f32;
      }

      .cls-9 {
        fill: #1b914d;
      }
    </style>
  </defs>
  <g id="Calque_1-2" data-name="Calque 1">
    <g id="Layer0_105_FILL" data-name="Layer0 105 FILL">
      <path class="cls-3" d="m12.05,21v-2H4.05v2h8m4-8h-6v2h6v-2m-10,0h-2v2h2v-2m0-4l2,2,2-2v-4h-4v4Z"/>
      <path class="cls-5" d="m12.05,23v-2H4.05v2h8m4-8h-2v8h2v-8M2,9v2h2.05v2h2v2h4v-2h6v-4h-6l-2,2-2-2H2Z"/>
      <path class="cls-9" d="m12.05,19v-4H4.05v4h8M6.05,3l-2,2v4h2v-4h4v4h2v-4l-2-2h-4Z"/>
      <path class="cls-4" d="m18.05,9h-2v14h-2v-8h-2v8H4.05v-2h-2v2c0,.57.2,1.05.6,1.45.37.37.83.55,1.4.55h8c.37,0,.7-.08,1-.25.3.17.63.25,1,.25h2c.57,0,1.05-.18,1.45-.55.37-.4.55-.88.55-1.45v-14Z"/>
      <path class="cls-7" d="m16.05,3l-1-1-1,1v6h2V3Z"/>
      <path class="cls-2" d="m4.05,13v-2h-2.05v8h2.05v-6Z"/>
      <path class="cls-6" d="m2,11v-4c-.57,0-1.03.2-1.4.6-.3.27-.48.58-.55.95-.03.1-.05.23-.05.4v10.15c0,.13.02.27.05.4.07.33.25.65.55.95.37.37.83.55,1.4.55h2.05v-2h-2.05v-8Z"/>
      <path class="cls-8" d="m4.05,5l2-2h4l2,2,.15-2.7-.7-.7c-.4-.4-.88-.6-1.45-.6h-4c-.57,0-1.03.2-1.4.6l-2,2c-.4.37-.6.83-.6,1.4v2h-.05v2h2.05v-4Z"/>
      <path class="cls-1" d="m15.05,0c-.57,0-1.03.2-1.4.6l-1,1c-.23.2-.38.43-.45.7l-.15,2.7v4h2V3l1-1,1,1v6h2V3c0-.57-.18-1.03-.55-1.4l-1-1c-.4-.4-.88-.6-1.45-.6Z"/>
    </g>
  </g>
</svg>