<?xml version="1.0" encoding="UTF-8"?>
<svg id="Calque_2" data-name="Calque 2" xmlns="http://www.w3.org/2000/svg" viewBox="0 0 113 113">
  <defs>
    <style>
      .cls-1 {
        fill: #fc0;
      }
    </style>
  </defs>
  <g id="Calque_1-2" data-name="Calque 1">
    <path class="cls-1" d="m30.15,30.2c1.2-1.2,4.78.37,10.75,4.7l6.95,5.45c.4-8.87,1.15-16.8,2.25-23.8,1.77-11.03,3.9-16.55,6.4-16.55s4.68,5.52,6.45,16.55c1.1,7,1.87,14.93,2.3,23.8,2.4-2.03,4.7-3.85,6.9-5.45,5.97-4.33,9.55-5.92,10.75-4.75,1.17,1.17-.42,4.73-4.75,10.7l-5.45,6.95c8.83.43,16.75,1.2,23.75,2.3,11.03,1.77,16.55,3.9,16.55,6.4s-5.52,4.63-16.55,6.4c-7,1.13-14.92,1.92-23.75,2.35l5.45,6.9c4.33,5.97,5.9,9.53,4.7,10.7-1.17,1.17-4.73-.4-10.7-4.7-2.2-1.63-4.5-3.45-6.9-5.45-.43,8.83-1.2,16.75-2.3,23.75-1.77,11.03-3.92,16.55-6.45,16.55s-4.63-5.52-6.4-16.55c-1.1-7-1.85-14.92-2.25-23.75l-6.95,5.45c-5.97,4.3-9.53,5.87-10.7,4.7-1.2-1.17.37-4.73,4.7-10.7,1.63-2.23,3.45-4.53,5.45-6.9-8.83-.43-16.77-1.22-23.8-2.35-11.03-1.77-16.55-3.9-16.55-6.4s5.52-4.63,16.55-6.4c7.03-1.1,14.97-1.87,23.8-2.3l-5.45-6.95c-4.33-5.97-5.92-9.52-4.75-10.65"/>
  </g>
</svg>